<?xml version="1.0" encoding="UTF-8" standalone="no"?>
<svg
   xmlns:dc="http://purl.org/dc/elements/1.1/"
   xmlns:cc="http://creativecommons.org/ns#"
   xmlns:rdf="http://www.w3.org/1999/02/22-rdf-syntax-ns#"
   xmlns:svg="http://www.w3.org/2000/svg"
   xmlns="http://www.w3.org/2000/svg"
   xmlns:sodipodi="http://sodipodi.sourceforge.net/DTD/sodipodi-0.dtd"
   xmlns:inkscape="http://www.inkscape.org/namespaces/inkscape"
   version="1.1"
   id="Capa_1"
   x="0px"
   y="0px"
   width="397.799px"
   height="397.799px"
   viewBox="0 0 397.799 397.799"
   style="enable-background:new 0 0 397.799 397.799;"
   xml:space="preserve"
   inkscape:version="0.48.4 r9939"
   sodipodi:docname="neighbors2.svg"><title
     id="title2994">Halloween ghost</title><metadata
     id="metadata17"><rdf:RDF><cc:Work
         rdf:about=""><dc:format>image/svg+xml</dc:format><dc:type
           rdf:resource="http://purl.org/dc/dcmitype/StillImage" /><dc:title>Halloween ghost</dc:title><dc:creator><cc:Agent><dc:title>Freepik (http://www.freepik.com)</dc:title></cc:Agent></dc:creator><dc:source>http://www.flaticon.com/free-icon/halloween-ghost_61865</dc:source><dc:rights><cc:Agent><dc:title></dc:title></cc:Agent></dc:rights><dc:description>&lt;div&gt;Icon made by &lt;a href=&quot;http://www.freepik.com&quot; title=&quot;Freepik&quot;&gt;Freepik&lt;/a&gt; from &lt;a href=&quot;http://www.flaticon.com&quot; title=&quot;Flaticon&quot;&gt;www.flaticon.com&lt;/a&gt; is licensed under &lt;a href=&quot;http://creativecommons.org/licenses/by/3.0/&quot; title=&quot;Creative Commons BY 3.0&quot;&gt;CC BY 3.0&lt;/a&gt;&lt;/div&gt;</dc:description><cc:license
           rdf:resource="http://creativecommons.org/licenses/by/3.0/" /></cc:Work><cc:License
         rdf:about="http://creativecommons.org/licenses/by/3.0/"><cc:permits
           rdf:resource="http://creativecommons.org/ns#Reproduction" /><cc:permits
           rdf:resource="http://creativecommons.org/ns#Distribution" /><cc:requires
           rdf:resource="http://creativecommons.org/ns#Notice" /><cc:requires
           rdf:resource="http://creativecommons.org/ns#Attribution" /><cc:permits
           rdf:resource="http://creativecommons.org/ns#DerivativeWorks" /></cc:License></rdf:RDF></metadata><defs
     id="defs15" /><sodipodi:namedview
     pagecolor="#ffffff"
     bordercolor="#666666"
     borderopacity="1"
     objecttolerance="10"
     gridtolerance="10"
     guidetolerance="10"
     inkscape:pageopacity="0"
     inkscape:pageshadow="2"
     inkscape:window-width="1920"
     inkscape:window-height="1176"
     id="namedview13"
     showgrid="false"
     inkscape:zoom="0.59326442"
     inkscape:cx="-109.56329"
     inkscape:cy="198.89951"
     inkscape:window-x="1920"
     inkscape:window-y="24"
     inkscape:window-maximized="1"
     inkscape:current-layer="Capa_1" /><g
     id="g3"><g
       id="g5"><path
         d="M198.899,0c-84.73,0-153.66,68.934-153.66,153.666v220.447c0,4.027,0.188,8.242,0.578,12.885    c0.516,6.154,5.66,10.801,11.719,10.801c0.219,0,0.426-0.012,0.645-0.021c3.809,0.16,7.629-1.525,10.031-4.844l37.57-51.73    l37.559,51.736c0.102,0.145,0.242,0.248,0.355,0.385c0.348,0.439,0.727,0.848,1.152,1.236c0.25,0.242,0.504,0.49,0.781,0.709    c0.113,0.086,0.207,0.188,0.32,0.275c0.312,0.229,0.656,0.385,0.992,0.58c0.297,0.174,0.574,0.367,0.883,0.514    c0.68,0.32,1.371,0.562,2.07,0.746c0.117,0.029,0.219,0.082,0.324,0.104c0.805,0.191,1.621,0.271,2.438,0.289    c0.07,0,0.152,0.021,0.219,0.021c0.141,0,0.277-0.059,0.426-0.062c0.91-0.035,1.816-0.178,2.691-0.42    c0.219-0.057,0.438-0.092,0.645-0.166c1.012-0.34,1.957-0.834,2.852-1.443c0.094-0.068,0.207-0.088,0.301-0.154    c0.184-0.135,0.32-0.307,0.496-0.443c0.297-0.242,0.586-0.49,0.852-0.76c0.32-0.322,0.609-0.65,0.883-0.994    c0.129-0.15,0.266-0.266,0.383-0.42l37.555-51.73l37.57,51.736c0.105,0.148,0.254,0.252,0.367,0.395    c0.336,0.428,0.715,0.828,1.129,1.215c0.266,0.248,0.527,0.5,0.805,0.719c0.117,0.086,0.195,0.195,0.312,0.275    c0.309,0.225,0.656,0.381,0.977,0.57c0.301,0.178,0.586,0.379,0.898,0.523c0.676,0.32,1.367,0.562,2.069,0.746    c0.113,0.029,0.207,0.082,0.32,0.104c0.805,0.191,1.621,0.271,2.438,0.289c0.069,0,0.151,0.021,0.219,0.021    c0.141,0,0.277-0.059,0.426-0.062c0.91-0.035,1.81-0.178,2.691-0.42c0.219-0.057,0.438-0.092,0.645-0.166    c1.017-0.34,1.957-0.834,2.855-1.443c0.09-0.068,0.207-0.088,0.297-0.154c0.184-0.135,0.324-0.301,0.496-0.443    c0.297-0.242,0.586-0.496,0.862-0.766c0.31-0.311,0.599-0.639,0.863-0.973c0.125-0.154,0.273-0.275,0.392-0.438l37.577-51.766    l36.642,50.207c2.91,3.996,8.004,5.738,12.758,4.383c4.738-1.357,8.145-5.527,8.512-10.457c0.242-3.283,0.48-7.184,0.48-11.188    V153.666C352.559,68.933,283.633,0,198.899,0z M329,348.939l-25.34-34.73c-2.219-3.043-5.75-4.836-9.512-4.836    c-0.012,0-0.012,0-0.012,0c-3.773,0.006-7.306,1.812-9.527,4.859l-37.559,51.736l-37.556-51.736    c-2.223-3.055-5.766-4.859-9.539-4.859s-7.316,1.807-9.523,4.859l-37.57,51.736l-37.547-51.736    c-2.219-3.055-5.762-4.859-9.535-4.859c-3.773,0-7.316,1.807-9.535,4.859l-27.449,37.811V153.666    c0-71.739,58.371-130.107,130.102-130.107c71.746,0,130.102,58.368,130.102,130.107L329,348.939L329,348.939z"
         id="path7" /><path
         d="M133.735,115.752c-18.855,0-34.199,15.339-34.199,34.198c0,18.86,15.344,34.199,34.199,34.199    s34.199-15.339,34.199-34.199C167.934,131.09,152.59,115.752,133.735,115.752z M133.735,160.59    c-5.867,0-10.641-4.773-10.641-10.641c0-5.866,4.773-10.64,10.641-10.64s10.641,4.773,10.641,10.64    C144.376,155.817,139.602,160.59,133.735,160.59z"
         id="path9" /><path
         d="M266.196,115.752c-18.854,0-34.199,15.339-34.199,34.198c0,18.86,15.345,34.199,34.199,34.199    c18.853,0,34.199-15.339,34.199-34.199C300.395,131.09,285.047,115.752,266.196,115.752z M266.196,160.59    c-5.867,0-10.641-4.773-10.641-10.641c0-5.866,4.772-10.64,10.641-10.64s10.641,4.773,10.641,10.64    C276.836,155.817,272.063,160.59,266.196,160.59z"
         id="path11" /></g></g></svg>