<?xml version="1.0" encoding="UTF-8" standalone="no"?>
<svg
   xmlns:dc="http://purl.org/dc/elements/1.1/"
   xmlns:cc="http://creativecommons.org/ns#"
   xmlns:rdf="http://www.w3.org/1999/02/22-rdf-syntax-ns#"
   xmlns:svg="http://www.w3.org/2000/svg"
   xmlns="http://www.w3.org/2000/svg"
   xmlns:sodipodi="http://sodipodi.sourceforge.net/DTD/sodipodi-0.dtd"
   xmlns:inkscape="http://www.inkscape.org/namespaces/inkscape"
   width="2816"
   height="2816"
   viewBox="0 0 2816 2816"
   id="svg3033"
   version="1.1"
   inkscape:version="0.48.4 r9939"
   sodipodi:docname="neighbors.svg">
  <metadata
     id="metadata3041">
    <rdf:RDF>
      <cc:Work
         rdf:about="">
        <dc:format>image/svg+xml</dc:format>
        <dc:type
           rdf:resource="http://purl.org/dc/dcmitype/StillImage" />
      </cc:Work>
    </rdf:RDF>
  </metadata>
  <defs
     id="defs3039" />
  <sodipodi:namedview
     pagecolor="#ffffff"
     bordercolor="#666666"
     borderopacity="1"
     objecttolerance="10"
     gridtolerance="10"
     guidetolerance="10"
     inkscape:pageopacity="0"
     inkscape:pageshadow="2"
     inkscape:window-width="1114"
     inkscape:window-height="1007"
     id="namedview3037"
     showgrid="false"
     inkscape:snap-page="true"
     inkscape:zoom="0.29865057"
     inkscape:cx="1408"
     inkscape:cy="1409.8956"
     inkscape:window-x="2203"
     inkscape:window-y="78"
     inkscape:window-maximized="0"
     inkscape:current-layer="svg3033" />
  <path
     d="m 1192.5347,2585.1864 161.5221,-753.7692 -161.5221,-215.3627 -215.36264,-107.6813 z m 430.7254,0 215.3627,-1076.8132 -215.3627,107.6813 -161.5221,215.3627 z M 1892.4635,885.84073 q -3.3651,-6.73006 -6.7302,-10.0951 -16.8252,-13.46013 -161.5219,-13.46013 -117.7765,0 -280.981,31.96789 -11.7777,3.36503 -35.333,3.36503 -23.5553,0 -35.333,-3.36503 -163.2046,-31.96789 -280.981,-31.96789 -144.69665,0 -161.52181,13.46013 -3.36504,3.36504 -6.73021,10.0951 3.36517,30.28531 6.73021,45.42803 3.36503,5.04762 12.61891,10.93633 9.25374,5.88884 12.61891,17.66653 3.36503,6.73007 12.61878,34.49169 9.25387,27.76159 11.77767,34.49169 2.52386,6.7301 12.61886,28.6026 10.09508,21.8728 14.30158,28.6028 4.2062,6.7301 15.1425,23.5555 10.9365,16.8251 20.1904,22.714 9.2538,5.8888 23.5552,15.9839 14.3015,10.0951 29.4441,13.4602 15.1427,3.365 34.4917,6.73 19.349,3.365 41.2217,3.365 60.5708,0 99.2687,-21.0313 38.698,-21.0317 54.6819,-50.4757 15.984,-29.4441 24.3967,-58.047 8.4125,-28.6026 19.349,-49.63429 10.9364,-21.03141 29.444,-21.03141 h 20.1903 q 18.5076,0 29.4441,21.03141 10.9363,21.03169 19.349,49.63429 8.4127,28.6029 24.3967,58.047 15.9839,29.444 54.6819,50.4757 38.6979,21.0313 99.2687,21.0313 21.8728,0 41.2218,-3.365 19.349,-3.365 34.4916,-6.73 15.1427,-3.3651 29.4441,-13.4602 14.3014,-10.0951 23.5553,-15.9839 9.2539,-5.8889 20.1903,-22.714 10.9364,-16.8254 15.1426,-23.5555 4.2064,-6.73 14.3015,-28.6028 10.0951,-21.8725 12.6189,-28.6026 2.5238,-6.7301 11.7777,-34.49169 9.2537,-27.76162 12.619,-34.49169 3.3649,-11.77769 12.6186,-17.66653 9.254,-5.88871 12.619,-10.93633 3.3651,-15.14272 6.7302,-45.42803 z m 699.9287,1478.93557 q 0,203.585 -122.8239,319.6791 -122.8242,116.0938 -326.4091,116.0938 H 672.636 q -203.58505,0 -326.40906,-116.0938 -122.82406,-116.0941 -122.82406,-319.6791 0,-102.6338 7.57134,-198.5375 7.57134,-95.9037 31.96789,-211.1563 24.39656,-115.2527 63.09453,-207.7913 38.69802,-92.5387 106.84012,-174.141 68.1421,-81.6024 157.3157,-125.348 L 438.76558,1077.648 h 360.05927 q -37.01524,-107.68128 -37.01524,-215.3625 0,-20.19034 3.36504,-53.84068 -326.40907,-67.30096 -326.40907,-161.52204 0,-95.90383 353.3292,-166.56967 28.60286,-104.31625 86.6498,-225.45775 Q 936.79165,133.75385 997.36232,63.087977 1051.203,0.83471043 1125.234,0.83471043 q 50.4755,0 141.3316,52.15813657 90.8561,52.158153 141.3318,52.158153 50.4755,0 141.3318,-52.158153 90.8561,-52.15813657 141.3317,-52.15813657 74.0309,0 127.8716,62.25326657 60.5707,70.665873 118.618,191.807383 58.0469,121.1415 86.6497,225.45775 353.3294,70.66584 353.3294,166.56967 0,94.22108 -326.4091,161.52204 11.7778,136.28408 -33.6503,269.20318 h 360.0594 l -137.9667,378.5669 q 105.9989,55.5234 180.8709,162.3634 74.8724,106.8402 110.2053,241.4418 35.3329,134.6016 48.793,254.9019 13.4601,120.3002 13.4601,249.8543 z"
     id="path3035"
     inkscape:connector-curvature="0" />
</svg>
