<?xml version="1.0" encoding="UTF-8" standalone="no"?>
<!-- Created with Inkscape (http://www.inkscape.org/) -->

<svg
   xmlns:dc="http://purl.org/dc/elements/1.1/"
   xmlns:cc="http://creativecommons.org/ns#"
   xmlns:rdf="http://www.w3.org/1999/02/22-rdf-syntax-ns#"
   xmlns:svg="http://www.w3.org/2000/svg"
   xmlns="http://www.w3.org/2000/svg"
   xmlns:sodipodi="http://sodipodi.sourceforge.net/DTD/sodipodi-0.dtd"
   xmlns:inkscape="http://www.inkscape.org/namespaces/inkscape"
   id="svg2"
   version="1.1"
   inkscape:version="0.48.2 r9819"
   width="177.16375"
   height="47.88325"
   xml:space="preserve"
   sodipodi:docname="Vector Smart Object.ai"><metadata
     id="metadata8"><rdf:RDF><cc:Work
         rdf:about=""><dc:format>image/svg+xml</dc:format><dc:type
           rdf:resource="http://purl.org/dc/dcmitype/StillImage" /><dc:title></dc:title></cc:Work></rdf:RDF></metadata><defs
     id="defs6"><clipPath
       clipPathUnits="userSpaceOnUse"
       id="clipPath16"><path
         d="m 0,38.307 141.731,0 L 141.731,0 0,0 0,38.307 z"
         id="path18" /></clipPath></defs><sodipodi:namedview
     pagecolor="#ffffff"
     bordercolor="#666666"
     borderopacity="1"
     objecttolerance="10"
     gridtolerance="10"
     guidetolerance="10"
     inkscape:pageopacity="0"
     inkscape:pageshadow="2"
     inkscape:window-width="1263"
     inkscape:window-height="897"
     id="namedview4"
     showgrid="false"
     inkscape:zoom="4.4365733"
     inkscape:cx="94.255928"
     inkscape:cy="-3.675623"
     inkscape:window-x="0"
     inkscape:window-y="0"
     inkscape:window-maximized="0"
     inkscape:current-layer="g10" /><g
     id="g10"
     inkscape:groupmode="layer"
     inkscape:label="Vector Smart Object"
     transform="matrix(1.25,0,0,-1.25,0,47.88325)"><g
       id="g12"><g
         id="g14"
         clip-path="url(#clipPath16)"><g
           id="g20"
           transform="translate(141.7314,6.5049)"><path
             d="m 0,0 c 0,-3.579 -2.928,-6.505 -6.505,-6.505 l -128.719,0 c -3.581,0 -6.507,2.926 -6.507,6.505 l 0,25.297 c 0,3.578 2.926,6.505 6.507,6.505 l 128.719,0 C -2.928,31.802 0,28.875 0,25.297 L 0,0 z"
             style="fill:#ee3243;fill-opacity:1;fill-rule:nonzero;stroke:none"
             id="path22" /></g><g
           id="g24"
           transform="translate(24.3091,28.9087)"><path
             d="m 0,0 4.958,0 0,-12.668 c 0,-4.729 -3.314,-7.93 -8.594,-7.93 -5.281,0 -8.598,3.201 -8.598,7.93 l 0,12.668 4.963,0 0,-12.784 c 0,-2.422 1.444,-3.69 3.635,-3.69 2.191,0 3.636,1.268 3.636,3.69 L 0,0 z"
             style="fill:#ffffff;fill-opacity:1;fill-rule:nonzero;stroke:none"
             id="path26" /></g><g
           id="g28"
           transform="translate(45.5747,8.7119)"><path
             d="m 0,0 -7.559,11.799 0,-11.799 -4.847,0 0,20.197 4.701,0 7.586,-11.802 0,11.802 4.85,0 L 4.731,0 0,0 z"
             style="fill:#ffffff;fill-opacity:1;fill-rule:nonzero;stroke:none"
             id="path30" /></g><path
           d="m 60.229,8.712 -4.96,0 0,20.197 4.96,0 0,-20.197 z"
           style="fill:#ffffff;fill-opacity:1;fill-rule:nonzero;stroke:none"
           id="path32" /><g
           id="g34"
           transform="translate(66.9956,28.9087)"><path
             d="M 0,0 7.586,-11.802 7.586,0 0,0 z"
             style="fill:#ffffff;fill-opacity:1;fill-rule:nonzero;stroke:none"
             id="path36" /></g><g
           id="g38"
           transform="translate(80.2236,28.9087)"><path
             d="m 0,0 14.626,0 0,-4.125 -9.665,0 0,-3.779 8.809,0 0,-4.127 -8.809,0 0,-4.042 9.698,0 0,-4.124 L 0,-20.197 0,0 z"
             style="fill:#ffffff;fill-opacity:1;fill-rule:nonzero;stroke:none"
             id="path40" /></g><g
           id="g42"
           transform="translate(112.252,28.9087)"><path
             d="m 0,0 0,-4.185 -5.451,0 0,-16.012 -4.964,0 0,16.012 -5.451,0 0,4.185 L 0,0 z"
             style="fill:#ffffff;fill-opacity:1;fill-rule:nonzero;stroke:none"
             id="path44" /></g><g
           id="g46"
           transform="translate(129.6572,28.9087)"><path
             d="m 0,0 0,-4.185 -5.456,0 0,-16.012 -4.957,0 0,16.012 -5.456,0 0,4.185 L 0,0 z"
             style="fill:#ffffff;fill-opacity:1;fill-rule:nonzero;stroke:none"
             id="path48" /></g><g
           id="g50"
           transform="translate(73.4619,8.7119)"><path
             d="M 0,0 -7.586,11.802 -7.586,0 0,0 z"
             style="fill:#ffffff;fill-opacity:1;fill-rule:nonzero;stroke:none"
             id="path52" /></g></g></g></g></svg>