<?xml version="1.0" encoding="UTF-8" standalone="no"?>
<!-- Created with Inkscape (http://www.inkscape.org/) -->
<svg
   xmlns:dc="http://purl.org/dc/elements/1.1/"
   xmlns:cc="http://creativecommons.org/ns#"
   xmlns:rdf="http://www.w3.org/1999/02/22-rdf-syntax-ns#"
   xmlns:svg="http://www.w3.org/2000/svg"
   xmlns="http://www.w3.org/2000/svg"
   xmlns:xlink="http://www.w3.org/1999/xlink"
   xmlns:sodipodi="http://sodipodi.sourceforge.net/DTD/sodipodi-0.dtd"
   xmlns:inkscape="http://www.inkscape.org/namespaces/inkscape"
   width="48px"
   height="48px"
   id="svg2108"
   sodipodi:version="0.32"
   inkscape:version="0.46"
   sodipodi:docbase="/home/jimmac/src/cvs/tango-icon-theme/scalable/apps"
   sodipodi:docname="radius.svg"
   inkscape:output_extension="org.inkscape.output.svg.inkscape"
   inkscape:export-filename="/home/jodal/Desktop/radius.png"
   inkscape:export-xdpi="75"
   inkscape:export-ydpi="75">
  <defs
     id="defs3"><inkscape:perspective
   sodipodi:type="inkscape:persp3d"
   inkscape:vp_x="0 : 24 : 1"
   inkscape:vp_y="0 : 1000 : 0"
   inkscape:vp_z="48 : 24 : 1"
   inkscape:persp3d-origin="24 : 16 : 1"
   id="perspective72" />
<linearGradient
   inkscape:collect="always"
   id="linearGradient4356">
  <stop
     style="stop-color:#000000;stop-opacity:1;"
     offset="0"
     id="stop4358" />
  <stop
     style="stop-color:#000000;stop-opacity:0;"
     offset="1"
     id="stop4360" />
</linearGradient>
<linearGradient
   id="linearGradient4344">
  <stop
     style="stop-color:#727e0a;stop-opacity:1;"
     offset="0"
     id="stop4346" />
  <stop
     style="stop-color:#5b6508;stop-opacity:1.0000000;"
     offset="1.0000000"
     id="stop4348" />
</linearGradient>
<linearGradient
   id="linearGradient4338">
  <stop
     id="stop4340"
     offset="0.0000000"
     style="stop-color:#e9b15e;stop-opacity:1.0000000;" />
  <stop
     id="stop4342"
     offset="1.0000000"
     style="stop-color:#966416;stop-opacity:1.0000000;" />
</linearGradient>
<linearGradient
   id="linearGradient4163">
  <stop
     style="stop-color:#3b74bc;stop-opacity:1.0000000;"
     offset="0.0000000"
     id="stop4165" />
  <stop
     style="stop-color:#2d5990;stop-opacity:1.0000000;"
     offset="1.0000000"
     id="stop4167" />
</linearGradient>
<linearGradient
   id="linearGradient3824">
  <stop
     style="stop-color:#ffffff;stop-opacity:1;"
     offset="0"
     id="stop3826" />
  <stop
     style="stop-color:#c9c9c9;stop-opacity:1.0000000;"
     offset="1.0000000"
     id="stop3828" />
</linearGradient>
<linearGradient
   inkscape:collect="always"
   id="linearGradient3816">
  <stop
     style="stop-color:#000000;stop-opacity:1;"
     offset="0"
     id="stop3818" />
  <stop
     style="stop-color:#000000;stop-opacity:0;"
     offset="1"
     id="stop3820" />
</linearGradient>
<linearGradient
   id="linearGradient3800">
  <stop
     style="stop-color:#f4d9b1;stop-opacity:1.0000000;"
     offset="0.0000000"
     id="stop3802" />
  <stop
     style="stop-color:#df9725;stop-opacity:1.0000000;"
     offset="1.0000000"
     id="stop3804" />
</linearGradient>
<radialGradient
   inkscape:collect="always"
   xlink:href="#linearGradient3800"
   id="radialGradient3806"
   cx="29.344931"
   cy="17.064077"
   fx="29.344931"
   fy="17.064077"
   r="9.1620579"
   gradientUnits="userSpaceOnUse" />
<radialGradient
   inkscape:collect="always"
   xlink:href="#linearGradient3816"
   id="radialGradient3822"
   cx="31.112698"
   cy="19.008621"
   fx="31.112698"
   fy="19.008621"
   r="8.6620579"
   gradientUnits="userSpaceOnUse" />
<linearGradient
   inkscape:collect="always"
   xlink:href="#linearGradient3824"
   id="linearGradient3830"
   x1="30.935921"
   y1="29.553486"
   x2="30.935921"
   y2="35.803486"
   gradientUnits="userSpaceOnUse" />
<radialGradient
   inkscape:collect="always"
   xlink:href="#linearGradient4163"
   id="radialGradient4169"
   cx="28.089741"
   cy="27.203083"
   fx="28.089741"
   fy="27.203083"
   r="13.565360"
   gradientTransform="matrix(1.297564,0,0,0.884831,-8.358505,4.940469)"
   gradientUnits="userSpaceOnUse" />
<radialGradient
   inkscape:collect="always"
   xlink:href="#linearGradient3800"
   id="radialGradient4171"
   gradientUnits="userSpaceOnUse"
   cx="29.344931"
   cy="17.064077"
   fx="29.344931"
   fy="17.064077"
   r="9.1620579"
   gradientTransform="matrix(0.787998,0,0,0.787998,6.221198,3.617627)" />
<linearGradient
   inkscape:collect="always"
   xlink:href="#linearGradient3824"
   id="linearGradient4175"
   gradientUnits="userSpaceOnUse"
   x1="30.935921"
   y1="29.553486"
   x2="30.935921"
   y2="35.803486"
   gradientTransform="translate(0.707108,0.000000)" />
<radialGradient
   inkscape:collect="always"
   xlink:href="#linearGradient3816"
   id="radialGradient4179"
   gradientUnits="userSpaceOnUse"
   cx="31.112698"
   cy="19.008621"
   fx="31.112698"
   fy="19.008621"
   r="8.6620579" />
<linearGradient
   inkscape:collect="always"
   xlink:href="#linearGradient3824"
   id="linearGradient4326"
   gradientUnits="userSpaceOnUse"
   gradientTransform="translate(-12.41789,-7.000000)"
   x1="30.935921"
   y1="29.553486"
   x2="30.935921"
   y2="35.803486" />
<radialGradient
   inkscape:collect="always"
   xlink:href="#linearGradient4338"
   id="radialGradient4328"
   gradientUnits="userSpaceOnUse"
   gradientTransform="matrix(0.787998,0,0,0.787998,6.221198,3.617627)"
   cx="29.344931"
   cy="17.064077"
   fx="29.344931"
   fy="17.064077"
   r="9.1620579" />
<radialGradient
   inkscape:collect="always"
   xlink:href="#linearGradient3816"
   id="radialGradient4330"
   gradientUnits="userSpaceOnUse"
   cx="31.112698"
   cy="19.008621"
   fx="31.112698"
   fy="19.008621"
   r="8.6620579" />
<linearGradient
   inkscape:collect="always"
   xlink:href="#linearGradient3824"
   id="linearGradient4332"
   gradientUnits="userSpaceOnUse"
   x1="30.935921"
   y1="29.553486"
   x2="30.935921"
   y2="35.803486"
   gradientTransform="translate(-13.12500,-7.000000)" />
<radialGradient
   inkscape:collect="always"
   xlink:href="#linearGradient3816"
   id="radialGradient4336"
   gradientUnits="userSpaceOnUse"
   cx="31.112698"
   cy="19.008621"
   fx="31.112698"
   fy="19.008621"
   r="8.6620579" />
<radialGradient
   inkscape:collect="always"
   xlink:href="#linearGradient4344"
   id="radialGradient4350"
   cx="16.214741"
   cy="19.836468"
   fx="16.214741"
   fy="19.836468"
   r="13.565360"
   gradientTransform="matrix(1.000000,0.000000,0.000000,0.681917,0.000000,8.233773)"
   gradientUnits="userSpaceOnUse" />
<linearGradient
   inkscape:collect="always"
   xlink:href="#linearGradient4356"
   id="linearGradient4362"
   x1="20.661695"
   y1="35.817974"
   x2="22.626925"
   y2="36.217758"
   gradientUnits="userSpaceOnUse"
   gradientTransform="matrix(0.983375,0.181588,-0.181588,0.983375,6.231716,-2.651466)" />
<linearGradient
   inkscape:collect="always"
   xlink:href="#linearGradient4356"
   id="linearGradient4366"
   gradientUnits="userSpaceOnUse"
   x1="22.686766"
   y1="36.390400"
   x2="21.408455"
   y2="35.739632"
   gradientTransform="matrix(-0.977685,0.210075,0.210075,0.977685,55.1096,-3.945209)" />
<linearGradient
   inkscape:collect="always"
   xlink:href="#linearGradient4356"
   id="linearGradient4372"
   gradientUnits="userSpaceOnUse"
   gradientTransform="matrix(0.983375,0.181588,-0.181588,0.983375,-7.072120,-9.824920)"
   x1="20.661695"
   y1="35.817974"
   x2="22.626925"
   y2="36.217758" />
<linearGradient
   inkscape:collect="always"
   xlink:href="#linearGradient4356"
   id="linearGradient4374"
   gradientUnits="userSpaceOnUse"
   gradientTransform="matrix(-0.977685,0.210075,0.210075,0.977685,41.80576,-11.11866)"
   x1="22.686766"
   y1="36.390400"
   x2="21.408455"
   y2="35.739632" />
<linearGradient
   inkscape:collect="always"
   xlink:href="#linearGradient4356"
   id="linearGradient1366"
   gradientUnits="userSpaceOnUse"
   gradientTransform="matrix(-0.977685,0.210075,0.210075,0.977685,41.80576,-11.11866)"
   x1="22.686766"
   y1="36.390400"
   x2="21.408455"
   y2="35.739632" />
<linearGradient
   inkscape:collect="always"
   xlink:href="#linearGradient4356"
   id="linearGradient1369"
   gradientUnits="userSpaceOnUse"
   gradientTransform="matrix(0.983375,0.181588,-0.181588,0.983375,-7.07212,-9.82492)"
   x1="20.661695"
   y1="35.817974"
   x2="22.626925"
   y2="36.217758" />
<linearGradient
   inkscape:collect="always"
   xlink:href="#linearGradient3824"
   id="linearGradient1372"
   gradientUnits="userSpaceOnUse"
   gradientTransform="translate(-12.41789,-7)"
   x1="30.935921"
   y1="29.553486"
   x2="30.935921"
   y2="35.803486" />
<radialGradient
   inkscape:collect="always"
   xlink:href="#linearGradient4344"
   id="radialGradient1381"
   gradientUnits="userSpaceOnUse"
   gradientTransform="matrix(1,0,0,0.681917,0,8.233773)"
   cx="16.214741"
   cy="19.836468"
   fx="16.214741"
   fy="19.836468"
   r="13.565360" />

<linearGradient
   inkscape:collect="always"
   xlink:href="#linearGradient6684"
   id="linearGradient6690"
   gradientTransform="scale(0.843938,1.184922)"
   x1="37.502811"
   y1="35.458244"
   x2="36.499001"
   y2="27.403761"
   gradientUnits="userSpaceOnUse" />

<radialGradient
   inkscape:collect="always"
   xlink:href="#aigrd2"
   id="radialGradient6678"
   gradientUnits="userSpaceOnUse"
   gradientTransform="matrix(1.135551,0,0,1.135551,-4.540325,-2.077433)"
   cx="26.887432"
   cy="20.479359"
   fx="26.887432"
   fy="20.479359"
   r="14.6944" />

<radialGradient
   inkscape:collect="always"
   xlink:href="#linearGradient6665"
   id="radialGradient6675"
   gradientUnits="userSpaceOnUse"
   gradientTransform="matrix(1.024478,0,0,0.976107,1.646447,-0.353552)"
   cx="24.452202"
   cy="19.818913"
   fx="24.452202"
   fy="19.818913"
   r="33.156136" />

<radialGradient
   inkscape:collect="always"
   xlink:href="#linearGradient6665"
   id="radialGradient6663"
   gradientTransform="matrix(1.024478,0,0,0.976107,0.939339,-0.530329)"
   cx="24.452202"
   cy="19.818913"
   fx="24.452202"
   fy="19.818913"
   r="33.156136"
   gradientUnits="userSpaceOnUse" />

<linearGradient
   inkscape:collect="always"
   xlink:href="#linearGradient6625"
   id="linearGradient6631"
   gradientTransform="matrix(0.843938,0,0,1.184922,-1.28033,1.68934)"
   x1="38.506161"
   y1="22.886259"
   x2="38.250904"
   y2="35.017860"
   gradientUnits="userSpaceOnUse" />

<linearGradient
   inkscape:collect="always"
   xlink:href="#linearGradient6617"
   id="linearGradient6623"
   gradientTransform="matrix(1.02867,0,0,0.972129,-1.28033,1.18934)"
   x1="18.570419"
   y1="9.4436626"
   x2="29.957399"
   y2="22.783224"
   gradientUnits="userSpaceOnUse" />

<linearGradient
   inkscape:collect="always"
   xlink:href="#linearGradient6604"
   id="linearGradient6610"
   gradientTransform="matrix(0.975728,0,0,0.931033,-0.132002,1.978392)"
   x1="15.338736"
   y1="5.9244628"
   x2="43.140980"
   y2="49.895073"
   gradientUnits="userSpaceOnUse" />




				
			<radialGradient
   inkscape:collect="always"
   xlink:href="#aigrd1"
   id="radialGradient5284"
   gradientUnits="userSpaceOnUse"
   cx="28.7891"
   cy="20.9712"
   fx="28.7891"
   fy="20.9712"
   r="13.2807"
   gradientTransform="matrix(1.310386,0,0,1.310386,-8.642682,-4.375977)" />



<radialGradient
   inkscape:collect="always"
   xlink:href="#aigrd2"
   id="radialGradient5281"
   gradientUnits="userSpaceOnUse"
   cx="19.292"
   cy="13.5444"
   fx="19.292"
   fy="13.5444"
   r="14.6944"
   gradientTransform="matrix(1.135551,0.000000,0.000000,1.135551,-4.540325,-2.077433)" />



<linearGradient
   inkscape:collect="always"
   xlink:href="#aigrd3"
   id="linearGradient5274"
   gradientUnits="userSpaceOnUse"
   x1="18.229"
   y1="11.5991"
   x2="23.412"
   y2="16.7231"
   gradientTransform="matrix(1.135551,0.000000,0.000000,1.135551,-3.259995,-3.266773)" />




			
			
			
		<linearGradient
   id="aigrd3"
   gradientUnits="userSpaceOnUse"
   x1="18.229000"
   y1="11.599100"
   x2="23.412001"
   y2="16.723101">
				<stop
   offset="0"
   style="stop-color:#FFFFFF"
   id="stop5137" />




				<stop
   offset="1"
   style="stop-color:#901505"
   id="stop5139" />




			</linearGradient>




			
			
			
			
			
			<radialGradient
   id="aigrd2"
   cx="19.292000"
   cy="13.544400"
   r="14.694400"
   fx="19.292000"
   fy="13.544400"
   gradientUnits="userSpaceOnUse">
				<stop
   offset="0"
   style="stop-color:#E41E08"
   id="stop5122" />




				<stop
   offset="1"
   style="stop-color:#901505"
   id="stop5124" />




			</radialGradient>




			
			<radialGradient
   id="aigrd1"
   cx="28.789101"
   cy="20.971201"
   r="13.280700"
   fx="28.789101"
   fy="20.971201"
   gradientUnits="userSpaceOnUse">
				<stop
   offset="0"
   style="stop-color:#E41E08"
   id="stop5115" />




				<stop
   offset="1"
   style="stop-color:#901505"
   id="stop5117" />




			</radialGradient>




		
	
			
			
			<linearGradient
   inkscape:collect="always"
   xlink:href="#aigrd3"
   id="linearGradient5203"
   gradientUnits="userSpaceOnUse"
   x1="18.229"
   y1="11.5991"
   x2="23.412"
   y2="16.7231" />



<radialGradient
   inkscape:collect="always"
   xlink:href="#aigrd2"
   id="radialGradient5201"
   gradientUnits="userSpaceOnUse"
   cx="19.292"
   cy="13.5444"
   fx="19.292"
   fy="13.5444"
   r="14.6944" />



<radialGradient
   inkscape:collect="always"
   xlink:href="#aigrd1"
   id="radialGradient5199"
   gradientUnits="userSpaceOnUse"
   cx="28.7891"
   cy="20.9712"
   fx="28.7891"
   fy="20.9712"
   r="13.2807" />

<linearGradient
   id="linearGradient6604">
  <stop
   style="stop-color:#ffa196;stop-opacity:1.0000000;"
   offset="0.0000000"
   id="stop6606" />

  <stop
   style="stop-color:#ff1f06;stop-opacity:0;"
   offset="1"
   id="stop6608" />

</linearGradient>

<linearGradient
   id="linearGradient6617">
  <stop
   style="stop-color:#ffffff;stop-opacity:0.24742268;"
   offset="0.0000000"
   id="stop6619" />

  <stop
   style="stop-color:#ffffff;stop-opacity:0;"
   offset="1"
   id="stop6621" />

</linearGradient>

<linearGradient
   id="linearGradient6625">
  <stop
   style="stop-color:#1d2349;stop-opacity:1.0000000;"
   offset="0.0000000"
   id="stop6627" />

  <stop
   id="stop6637"
   offset="0.35315102"
   style="stop-color:#4c5279;stop-opacity:1.0000000;" />

  <stop
   id="stop6633"
   offset="0.46551725"
   style="stop-color:#b3bdff;stop-opacity:1.0000000;" />

  <stop
   style="stop-color:#727cbe;stop-opacity:1.0000000;"
   offset="0.64982164"
   id="stop6635" />

  <stop
   style="stop-color:#323c7e;stop-opacity:1.0000000;"
   offset="1.0000000"
   id="stop6629" />

</linearGradient>

<linearGradient
   id="linearGradient6665">
  <stop
   id="stop6667"
   offset="0.0000000"
   style="stop-color:#000000;stop-opacity:1.0000000;" />

  <stop
   id="stop6669"
   offset="1.0000000"
   style="stop-color:#000000;stop-opacity:0.0000000;" />

</linearGradient>

<linearGradient
   id="linearGradient6684">
  <stop
   style="stop-color:#d5dbff;stop-opacity:1.0000000;"
   offset="0.0000000"
   id="stop6686" />

  <stop
   style="stop-color:#6579ff;stop-opacity:0;"
   offset="1"
   id="stop6688" />

</linearGradient>
<inkscape:perspective
   id="perspective2497"
   inkscape:persp3d-origin="24 : 16 : 1"
   inkscape:vp_z="48 : 24 : 1"
   inkscape:vp_y="0 : 1000 : 0"
   inkscape:vp_x="0 : 24 : 1"
   sodipodi:type="inkscape:persp3d" />
</defs>
  <sodipodi:namedview
     inkscape:showpageshadow="false"
     id="base"
     pagecolor="#ffffff"
     bordercolor="#666666"
     borderopacity="1.0"
     inkscape:pageopacity="0.0"
     inkscape:pageshadow="2"
     inkscape:zoom="2"
     inkscape:cx="31.201438"
     inkscape:cy="22.542722"
     inkscape:current-layer="layer2"
     showgrid="false"
     inkscape:grid-bbox="true"
     inkscape:document-units="px"
     fill="#9db029"
     stroke="#727e0a"
     inkscape:window-width="872"
     inkscape:window-height="815"
     inkscape:window-x="861"
     inkscape:window-y="125" />
  <metadata
     id="metadata4">
    <rdf:RDF>
      <cc:Work
         rdf:about="">
        <dc:format>image/svg+xml</dc:format>
        <dc:type
           rdf:resource="http://purl.org/dc/dcmitype/StillImage" />
        <dc:title>People / Certificate</dc:title>
        <dc:creator>
          <cc:Agent>
            <dc:title>Jakub Steiner</dc:title>
          </cc:Agent>
        </dc:creator>
        <dc:source></dc:source>
        <dc:subject>
          <rdf:Bag>
            <rdf:li>users</rdf:li>
            <rdf:li>people</rdf:li>
            <rdf:li>certificate</rdf:li>
          </rdf:Bag>
        </dc:subject>
        <cc:license
           rdf:resource="http://creativecommons.org/licenses/by-sa/3.0/" />
      </cc:Work>
      <cc:License
         rdf:about="http://creativecommons.org/licenses/by-sa/3.0/">
        <cc:permits
           rdf:resource="http://creativecommons.org/ns#Reproduction" />
        <cc:permits
           rdf:resource="http://creativecommons.org/ns#Distribution" />
        <cc:requires
           rdf:resource="http://creativecommons.org/ns#Notice" />
        <cc:requires
           rdf:resource="http://creativecommons.org/ns#Attribution" />
        <cc:permits
           rdf:resource="http://creativecommons.org/ns#DerivativeWorks" />
        <cc:requires
           rdf:resource="http://creativecommons.org/ns#ShareAlike" />
      </cc:License>
    </rdf:RDF>
  </metadata>
  <g
     id="layer1"
     inkscape:label="cipek"
     inkscape:groupmode="layer"
     style="display:inline" />
  <g
     inkscape:groupmode="layer"
     id="layer2"
     inkscape:label="dalsi cipek"
     style="display:inline">
    <g
       id="g2561"
       transform="matrix(1.0360653,0,0,1.0360653,1.5331118,-2.4423277)">
      <path
         d="M 39.774755,19.008621 A 8.6620579,8.6620579 0 1 1 22.45064,19.008621 A 8.6620579,8.6620579 0 1 1 39.774755,19.008621 z"
         sodipodi:ry="8.6620579"
         sodipodi:rx="8.6620579"
         sodipodi:cy="19.008621"
         sodipodi:cx="31.112698"
         id="path4177"
         style="opacity:1;fill:url(#radialGradient4336);fill-opacity:1;fill-rule:evenodd;stroke:none;stroke-width:1px;stroke-linecap:round;stroke-linejoin:round;marker:none;marker-start:none;marker-mid:none;marker-end:none;stroke-miterlimit:4;stroke-dasharray:none;stroke-dashoffset:0;stroke-opacity:1;visibility:visible;display:inline;overflow:visible"
         sodipodi:type="arc"
         transform="matrix(1.77551,0,0,0.959183,-37.37822,11.77153)" />
      <path
         sodipodi:nodetypes="cczcczc"
         id="path2329"
         d="M 12.861174,34.636039 L 23.467776,34.636039 C 26.47298,34.636039 29.44826,33.534107 30.538843,30.393398 C 31.574482,27.410922 30.71562,21.73134 23.998106,17.135146 L 11.44696,17.135146 C 4.729446,21.377786 3.889969,27.179977 5.436553,30.570174 C 7.012148,34.023964 9.679193,34.636039 12.861174,34.636039 z"
         style="opacity:1;fill:url(#radialGradient1381);fill-opacity:1;fill-rule:evenodd;stroke:#404604;stroke-width:1px;stroke-linecap:round;stroke-linejoin:round;marker:none;marker-start:none;marker-mid:none;marker-end:none;stroke-miterlimit:4;stroke-dasharray:none;stroke-dashoffset:0;stroke-opacity:1;visibility:visible;display:inline;overflow:visible" />
      <path
         style="opacity:1;fill:#9db029;fill-opacity:1;fill-rule:evenodd;stroke:none;stroke-width:1px;stroke-linecap:round;stroke-linejoin:round;marker:none;marker-start:none;marker-mid:none;marker-end:none;stroke-miterlimit:4;stroke-dasharray:none;stroke-dashoffset:0;stroke-opacity:1;visibility:visible;display:inline;overflow:visible"
         d="M 17.932367,19.786797 C 17.932367,19.786797 15.781044,21.447132 15.966376,23.44733 C 13.92515,21.646536 13.866503,18.195806 13.866503,18.195806 L 17.932367,19.786797 z"
         id="path3812"
         sodipodi:nodetypes="cccc" />
      <path
         style="opacity:0.21518986;fill:none;fill-opacity:1;fill-rule:evenodd;stroke:#ffffff;stroke-width:0.99999976px;stroke-linecap:round;stroke-linejoin:round;marker:none;marker-start:none;marker-mid:none;marker-end:none;stroke-miterlimit:4;stroke-dasharray:none;stroke-dashoffset:0;stroke-opacity:1;visibility:visible;display:inline;overflow:visible"
         d="M 12.966639,33.571836 L 23.283309,33.571836 C 25.923032,33.571836 28.53647,32.603917 29.494421,29.845169 C 30.40411,27.225409 29.399699,22.236555 23.499142,18.199332 L 11.974417,18.199332 C 6.07386,21.925999 5.086477,27.022551 6.444971,30.000446 C 7.828949,33.0342 10.171638,33.571836 12.966639,33.571836 z"
         id="path3838"
         sodipodi:nodetypes="cczcczc" />
      <path
         sodipodi:nodetypes="cccc"
         id="path3810"
         d="M 18.910795,19.786797 C 18.910795,19.786797 21.062118,21.447132 20.876786,23.44733 C 22.918012,21.646536 22.976659,18.195806 22.976659,18.195806 L 18.910795,19.786797 z"
         style="opacity:1;fill:#9db029;fill-opacity:1;fill-rule:evenodd;stroke:none;stroke-width:1px;stroke-linecap:round;stroke-linejoin:round;marker:none;marker-start:none;marker-mid:none;marker-end:none;stroke-miterlimit:4;stroke-dasharray:none;stroke-dashoffset:0;stroke-opacity:1;visibility:visible;display:inline;overflow:visible" />
      <path
         transform="translate(-13.25,-3.5)"
         sodipodi:type="arc"
         style="opacity:1;fill:url(#radialGradient4330);fill-opacity:1;fill-rule:evenodd;stroke:none;stroke-width:1px;stroke-linecap:round;stroke-linejoin:round;marker:none;marker-start:none;marker-mid:none;marker-end:none;stroke-miterlimit:4;stroke-dasharray:none;stroke-dashoffset:0;stroke-opacity:1;visibility:visible;display:inline;overflow:visible"
         id="path3814"
         sodipodi:cx="31.112698"
         sodipodi:cy="19.008621"
         sodipodi:rx="8.6620579"
         sodipodi:ry="8.6620579"
         d="M 39.774755,19.008621 A 8.6620579,8.6620579 0 1 1 22.45064,19.008621 A 8.6620579,8.6620579 0 1 1 39.774755,19.008621 z" />
      <path
         transform="translate(-13.125,-7)"
         d="M 39.774755,19.008621 A 8.6620579,8.6620579 0 1 1 22.45064,19.008621 A 8.6620579,8.6620579 0 1 1 39.774755,19.008621 z"
         sodipodi:ry="8.6620579"
         sodipodi:rx="8.6620579"
         sodipodi:cy="19.008621"
         sodipodi:cx="31.112698"
         id="path2327"
         style="opacity:1;fill:url(#radialGradient4328);fill-opacity:1;fill-rule:evenodd;stroke:#6f4709;stroke-width:1px;stroke-linecap:round;stroke-linejoin:round;marker:none;marker-start:none;marker-mid:none;marker-end:none;stroke-miterlimit:4;stroke-dasharray:none;stroke-dashoffset:0;stroke-opacity:1;visibility:visible;display:inline;overflow:visible"
         sodipodi:type="arc" />
      <path
         transform="matrix(0.877095,0,0,0.877095,-9.301073,-4.663733)"
         sodipodi:type="arc"
         style="opacity:0.12658231;fill:none;fill-opacity:1;fill-rule:evenodd;stroke:#ffffff;stroke-width:1.14012825px;stroke-linecap:round;stroke-linejoin:round;marker:none;marker-start:none;marker-mid:none;marker-end:none;stroke-miterlimit:4;stroke-dasharray:none;stroke-dashoffset:0;stroke-opacity:1;visibility:visible;display:inline;overflow:visible"
         id="path3834"
         sodipodi:cx="31.112698"
         sodipodi:cy="19.008621"
         sodipodi:rx="8.6620579"
         sodipodi:ry="8.6620579"
         d="M 39.774755,19.008621 A 8.6620579,8.6620579 0 1 1 22.45064,19.008621 A 8.6620579,8.6620579 0 1 1 39.774755,19.008621 z" />
      <path
         id="path4173"
         d="M 22.583894,27.034641 L 26.826534,27.034641 L 24.351661,24.736544 L 23.821331,25.443651 L 23.291,24.913321 L 22.583894,27.034641 z"
         style="opacity:1;fill:url(#linearGradient1372);fill-opacity:1;fill-rule:evenodd;stroke:none;stroke-width:1px;stroke-linecap:round;stroke-linejoin:round;marker:none;marker-start:none;marker-mid:none;marker-end:none;stroke-miterlimit:4;stroke-dasharray:none;stroke-dashoffset:0;stroke-opacity:1;visibility:visible;display:inline;overflow:visible" />
      <path
         sodipodi:nodetypes="cccc"
         id="path4368"
         d="M 8.5479535,33.601747 C 7.3003465,33.056778 6.7419595,31.74347 6.7419595,31.74347 C 7.5832405,27.674334 10.461885,24.697254 10.461885,24.697254 C 10.461885,24.697254 8.1825635,31.108768 8.5479535,33.601747 z"
         style="opacity:0.22784807;fill:url(#linearGradient1369);fill-opacity:1;fill-rule:evenodd;stroke:none;stroke-width:1px;stroke-linecap:round;stroke-linejoin:round;marker:none;marker-start:none;marker-mid:none;marker-end:none;stroke-miterlimit:4;stroke-dasharray:none;stroke-dashoffset:0;stroke-opacity:1;visibility:visible;display:inline;overflow:visible" />
      <path
         style="opacity:0.22784807;fill:url(#linearGradient1366);fill-opacity:1;fill-rule:evenodd;stroke:none;stroke-width:1px;stroke-linecap:round;stroke-linejoin:round;marker:none;marker-start:none;marker-mid:none;marker-end:none;stroke-miterlimit:4;stroke-dasharray:none;stroke-dashoffset:0;stroke-opacity:1;visibility:visible;display:inline;overflow:visible"
         d="M 27.453661,32.743396 C 28.684912,32.162418 29.258041,30.741075 29.258041,30.741075 C 28.298921,26.698092 25.281892,23.898254 25.281892,23.898254 C 25.281892,23.898254 27.746485,30.240856 27.453661,32.743396 z"
         id="path4370"
         sodipodi:nodetypes="cccc" />
      <path
         d="M 39.774755,19.008621 A 8.6620579,8.6620579 0 1 1 22.45064,19.008621 A 8.6620579,8.6620579 0 1 1 39.774755,19.008621 z"
         sodipodi:ry="8.6620579"
         sodipodi:rx="8.6620579"
         sodipodi:cy="19.008621"
         sodipodi:cx="31.112698"
         id="path4306"
         style="opacity:1;fill:url(#radialGradient4179);fill-opacity:1;fill-rule:evenodd;stroke:none;stroke-width:1px;stroke-linecap:round;stroke-linejoin:round;marker:none;marker-start:none;marker-mid:none;marker-end:none;stroke-miterlimit:4;stroke-dasharray:none;stroke-dashoffset:0;stroke-opacity:1;visibility:visible;display:inline;overflow:visible"
         sodipodi:type="arc"
         transform="matrix(1.77551,0,0,0.583984,-24.25322,28.27856)" />
      <path
         sodipodi:nodetypes="cczcczc"
         id="path4308"
         d="M 25.986174,41.636039 L 36.592776,41.636039 C 39.59798,41.636039 42.57326,40.534107 43.663843,37.393398 C 44.699482,34.410922 43.84062,28.73134 37.123106,24.135146 L 24.57196,24.135146 C 17.854446,28.377786 17.014969,34.179977 18.561553,37.570174 C 20.137148,41.023964 22.804193,41.636039 25.986174,41.636039 z"
         style="opacity:1;fill:url(#radialGradient4169);fill-opacity:1;fill-rule:evenodd;stroke:#204a87;stroke-width:1px;stroke-linecap:round;stroke-linejoin:round;marker:none;marker-start:none;marker-mid:none;marker-end:none;stroke-miterlimit:4;stroke-dasharray:none;stroke-dashoffset:0;stroke-opacity:1;visibility:visible;display:inline;overflow:visible" />
      <path
         sodipodi:nodetypes="cccc"
         id="path4310"
         d="M 26.693281,25.726136 C 29.875261,28.554563 31.289475,38.807612 31.289475,38.807612 C 31.289475,38.807612 32.703688,28.554564 35.178562,25.54936 L 26.693281,25.726136 z"
         style="opacity:1;fill:url(#linearGradient3830);fill-opacity:1;fill-rule:evenodd;stroke:none;stroke-width:1px;stroke-linecap:round;stroke-linejoin:round;marker:none;marker-start:none;marker-mid:none;marker-end:none;stroke-miterlimit:4;stroke-dasharray:none;stroke-dashoffset:0;stroke-opacity:1;visibility:visible;display:inline;overflow:visible" />
      <path
         style="opacity:1;fill:#729fcf;fill-opacity:1;fill-rule:evenodd;stroke:none;stroke-width:1px;stroke-linecap:round;stroke-linejoin:round;marker:none;marker-start:none;marker-mid:none;marker-end:none;stroke-miterlimit:4;stroke-dasharray:none;stroke-dashoffset:0;stroke-opacity:1;visibility:visible;display:inline;overflow:visible"
         d="M 28.972721,26.786797 C 28.972721,26.786797 26.821398,28.447132 27.00673,30.44733 C 24.965504,28.646536 24.906857,25.195806 24.906857,25.195806 L 28.972721,26.786797 z"
         id="path4312"
         sodipodi:nodetypes="cccc" />
      <path
         style="opacity:0.21518986;fill:none;fill-opacity:1;fill-rule:evenodd;stroke:#ffffff;stroke-width:0.99999976px;stroke-linecap:round;stroke-linejoin:round;marker:none;marker-start:none;marker-mid:none;marker-end:none;stroke-miterlimit:4;stroke-dasharray:none;stroke-dashoffset:0;stroke-opacity:1;visibility:visible;display:inline;overflow:visible"
         d="M 25.914862,40.593933 L 36.408309,40.571836 C 39.048032,40.571836 41.66147,39.603917 42.619421,36.845169 C 43.52911,34.225409 42.524699,29.236555 36.624142,25.199332 L 25.099417,24.956264 C 19.19886,28.682931 18.056797,33.779483 19.437388,37.000446 C 20.81798,40.221409 22.832599,40.571836 25.914862,40.593933 z"
         id="path4314"
         sodipodi:nodetypes="cczcczc" />
      <path
         sodipodi:nodetypes="cccc"
         id="path4316"
         d="M 33.410795,26.786797 C 33.410795,26.786797 35.562118,28.447132 35.376786,30.44733 C 37.418012,28.646536 37.476659,25.195806 37.476659,25.195806 L 33.410795,26.786797 z"
         style="opacity:1;fill:#729fcf;fill-opacity:1;fill-rule:evenodd;stroke:none;stroke-width:1px;stroke-linecap:round;stroke-linejoin:round;marker:none;marker-start:none;marker-mid:none;marker-end:none;stroke-miterlimit:4;stroke-dasharray:none;stroke-dashoffset:0;stroke-opacity:1;visibility:visible;display:inline;overflow:visible" />
      <path
         transform="translate(-0.125,3.5)"
         sodipodi:type="arc"
         style="opacity:1;fill:url(#radialGradient3822);fill-opacity:1;fill-rule:evenodd;stroke:none;stroke-width:1px;stroke-linecap:round;stroke-linejoin:round;marker:none;marker-start:none;marker-mid:none;marker-end:none;stroke-miterlimit:4;stroke-dasharray:none;stroke-dashoffset:0;stroke-opacity:1;visibility:visible;display:inline;overflow:visible"
         id="path4318"
         sodipodi:cx="31.112698"
         sodipodi:cy="19.008621"
         sodipodi:rx="8.6620579"
         sodipodi:ry="8.6620579"
         d="M 39.774755,19.008621 A 8.6620579,8.6620579 0 1 1 22.45064,19.008621 A 8.6620579,8.6620579 0 1 1 39.774755,19.008621 z" />
      <path
         d="M 39.774755,19.008621 A 8.6620579,8.6620579 0 1 1 22.45064,19.008621 A 8.6620579,8.6620579 0 1 1 39.774755,19.008621 z"
         sodipodi:ry="8.6620579"
         sodipodi:rx="8.6620579"
         sodipodi:cy="19.008621"
         sodipodi:cx="31.112698"
         id="path4320"
         style="opacity:1;fill:url(#radialGradient4171);fill-opacity:1;fill-rule:evenodd;stroke:#c17d11;stroke-width:1px;stroke-linecap:round;stroke-linejoin:round;marker:none;marker-start:none;marker-mid:none;marker-end:none;stroke-miterlimit:4;stroke-dasharray:none;stroke-dashoffset:0;stroke-opacity:1;visibility:visible;display:inline;overflow:visible"
         sodipodi:type="arc" />
      <path
         transform="matrix(0.877095,0,0,0.877095,3.823927,2.336267)"
         sodipodi:type="arc"
         style="opacity:0.19620254;fill:none;fill-opacity:1;fill-rule:evenodd;stroke:#ffffff;stroke-width:1.14012825px;stroke-linecap:round;stroke-linejoin:round;marker:none;marker-start:none;marker-mid:none;marker-end:none;stroke-miterlimit:4;stroke-dasharray:none;stroke-dashoffset:0;stroke-opacity:1;visibility:visible;display:inline;overflow:visible"
         id="path4322"
         sodipodi:cx="31.112698"
         sodipodi:cy="19.008621"
         sodipodi:rx="8.6620579"
         sodipodi:ry="8.6620579"
         d="M 39.774755,19.008621 A 8.6620579,8.6620579 0 1 1 22.45064,19.008621 A 8.6620579,8.6620579 0 1 1 39.774755,19.008621 z" />
      <path
         sodipodi:nodetypes="cccc"
         id="path4354"
         d="M 21.85179,40.775197 C 20.604183,40.230228 20.045796,38.91692 20.045796,38.91692 C 20.887077,34.847784 23.765721,31.870704 23.765721,31.870704 C 23.765721,31.870704 21.4864,38.282218 21.85179,40.775197 z"
         style="opacity:0.22784807;fill:url(#linearGradient4362);fill-opacity:1;fill-rule:evenodd;stroke:none;stroke-width:1px;stroke-linecap:round;stroke-linejoin:round;marker:none;marker-start:none;marker-mid:none;marker-end:none;stroke-miterlimit:4;stroke-dasharray:none;stroke-dashoffset:0;stroke-opacity:1;visibility:visible;display:inline;overflow:visible" />
      <path
         style="opacity:0.22784807;fill:url(#linearGradient4366);fill-opacity:1;fill-rule:evenodd;stroke:none;stroke-width:1px;stroke-linecap:round;stroke-linejoin:round;marker:none;marker-start:none;marker-mid:none;marker-end:none;stroke-miterlimit:4;stroke-dasharray:none;stroke-dashoffset:0;stroke-opacity:1;visibility:visible;display:inline;overflow:visible"
         d="M 40.757497,39.916846 C 41.988748,39.335868 42.561877,37.914525 42.561877,37.914525 C 41.602757,33.871542 38.585728,31.071704 38.585728,31.071704 C 38.585728,31.071704 41.050321,37.414306 40.757497,39.916846 z"
         id="path4364"
         sodipodi:nodetypes="cccc" />
    </g>
    <g
       id="g2540"
       transform="matrix(0.6860972,0,0,0.6860972,-3.9272359,16.381663)">
      <path
         id="path6671"
         d="M 25.38911,19.305038 C 25.38911,19.305038 19.484245,27.481005 19.484245,31.228324 C 19.484245,34.975642 26.297551,32.93165 29.022873,35.656973 C 31.748195,38.382295 22.663787,45.422711 22.663787,45.422711 L 31.748195,42.924499 L 35.381959,46.785372 C 35.381959,42.129613 40.719048,38.382295 37.993726,35.543418 C 35.154848,32.70454 27.092436,33.045205 26.638216,29.297887 C 26.183995,25.550569 25.502665,19.418593 25.502665,19.418593 L 25.38911,19.305038 z"
         style="opacity:0.48044691;fill:url(#radialGradient6675);fill-opacity:1;fill-rule:nonzero;stroke:none;stroke-width:1;stroke-linecap:round;stroke-linejoin:round;marker:none;marker-start:none;marker-mid:none;marker-end:none;stroke-miterlimit:4;stroke-dashoffset:0;stroke-opacity:1;visibility:visible;display:inline;overflow:visible" />
      <path
         sodipodi:nodetypes="csssssssssssss"
         id="path6639"
         d="M 36.91616,9.3946518 C 38.237688,12.452028 40.559293,12.29647 40.616709,16.377167 C 40.649454,18.652929 42.449165,19.84791 42.449165,22.172684 C 42.449165,24.497457 38.43415,25.646156 37.066636,27.013668 C 35.699121,28.381184 37.174521,31.888095 33.464606,32.918627 C 29.789944,33.939367 27.994548,32.508375 25.669774,32.508375 C 23.344998,32.508375 17.781956,36.991063 15.730683,34.93979 C 13.679411,32.888519 13.635647,28.405831 11.857879,26.628063 C 9.9433579,24.713542 6.9184435,22.038663 6.9184435,18.619877 C 6.9184435,15.201092 8.8926489,13.396291 11.721128,10.217892 C 14.639403,6.9385873 14.729659,2.0128046 18.148445,2.0128046 C 21.56723,2.0128046 22.877627,2.9506145 25.787409,2.8770766 C 30.425746,2.7598534 30.994149,0.55375463 34.405481,2.2835766 C 37.413183,3.808726 35.881638,7.0012699 36.91616,9.3946518 z"
         style="opacity:0.48044691;fill:url(#radialGradient6663);fill-opacity:1;fill-rule:nonzero;stroke:none;stroke-linecap:round;stroke-linejoin:round;stroke-miterlimit:4;stroke-opacity:1" />
      <path
         style="fill:url(#linearGradient6631);fill-opacity:1;fill-rule:nonzero;stroke:#1f254f;stroke-width:1;stroke-miterlimit:6.5999999;stroke-opacity:1"
         d="M 23.62134,18.067599 C 23.62134,18.067599 17.716475,26.243566 17.716475,29.990885 C 17.716475,33.738203 24.529781,31.694211 27.255103,34.419534 C 29.980425,37.144856 20.896017,44.185272 20.896017,44.185272 L 29.980425,41.68706 L 33.614189,45.547933 C 33.614189,40.892174 38.951278,37.144856 36.225956,34.305979 C 33.387078,31.467101 25.324666,31.807766 24.870446,28.060448 C 24.416225,24.31313 23.734895,18.181154 23.734895,18.181154 L 23.62134,18.067599 z"
         id="path5112" />
      <path
         id="path6680"
         d="M 20.803213,31.602421 C 25.355213,32.050805 28.232227,32.837946 28.609835,35.591528 C 28.939949,37.998767 24.377692,42.324487 24.377692,42.324487 L 30.22158,40.699741 L 33.06295,43.660691 C 33.725862,39.949751 37.427758,37.438687 35.741856,35.156087 C 33.627168,32.292939 26.775807,32.91262 26.448257,30.210335 C 26.120707,27.508049 18.114196,31.33495 20.803213,31.602421 z"
         style="fill:none;fill-opacity:1;fill-rule:nonzero;stroke:url(#linearGradient6690);stroke-width:0.72112519;stroke-miterlimit:6.5999999;stroke-opacity:1"
         sodipodi:nodetypes="cscccsss" />
      <path
         style="fill:url(#radialGradient5284);fill-rule:nonzero;stroke:#4c0901;stroke-linecap:round;stroke-linejoin:round;stroke-miterlimit:4;stroke-opacity:1"
         d="M 34.935485,9.2468088 C 36.201806,12.176463 38.426426,12.027404 38.481444,15.93763 C 38.512821,18.118322 40.237349,19.263383 40.237349,21.491039 C 40.237349,23.718695 36.390061,24.819407 35.079675,26.129792 C 33.769288,27.44018 35.183053,30.80059 31.628119,31.788071 C 28.106966,32.76617 26.386573,31.394957 24.158916,31.394957 C 21.931258,31.394957 16.600611,35.690381 14.63503,33.7248 C 12.66945,31.759221 12.627514,27.463797 10.924012,25.760295 C 9.0894699,23.925753 6.1909207,21.362617 6.1909207,18.086651 C 6.1909207,14.810685 8.0826538,13.08128 10.792974,10.035658 C 13.589338,6.8933472 13.675824,2.1733389 16.95179,2.1733389 C 20.227756,2.1733389 21.483411,3.0719718 24.271637,3.0015059 C 28.716208,2.8891797 29.260866,0.77524063 32.529689,2.4327994 C 35.411745,3.8942357 33.94418,6.9534113 34.935485,9.2468088 z"
         id="path5119"
         sodipodi:nodetypes="csssssssssssss" />
      <path
         style="fill:url(#radialGradient6678);fill-rule:nonzero;stroke:none;stroke-miterlimit:4"
         d="M 34.97685,17.567599 C 34.97685,23.81313 29.86687,28.923109 23.62134,28.923109 C 17.375809,28.923109 12.26583,23.81313 12.26583,17.567599 C 12.26583,11.322069 17.375809,6.2120891 23.62134,6.2120891 C 29.86687,6.2120891 34.97685,11.322069 34.97685,17.567599 z"
         id="path5126" />
      <path
         sodipodi:nodetypes="csssssssssssss"
         id="path6600"
         d="M 33.888971,10.030124 C 35.042232,12.698211 37.068232,12.56246 37.118338,16.123571 C 37.146913,18.109565 38.71747,19.152392 38.71747,21.181157 C 38.71747,23.209922 35.213679,24.212359 34.020288,25.405749 C 32.826895,26.599143 34.114436,29.659526 30.876896,30.558842 C 27.670121,31.449613 26.103329,30.200827 24.074563,30.200827 C 22.045797,30.200827 17.191084,34.112744 15.400995,32.322655 C 13.610908,30.532568 13.572716,26.620651 12.021307,25.069242 C 10.350558,23.398493 7.7107989,21.064201 7.7107989,18.080722 C 7.7107989,15.097243 9.4336334,13.522243 11.901968,10.748543 C 14.448666,7.8867861 14.52743,3.5881928 17.510909,3.5881928 C 20.494388,3.5881928 21.637935,4.4065934 24.177221,4.3424188 C 28.224968,4.2401214 28.720998,2.3149204 31.697971,3.8244879 C 34.32271,5.1554433 32.986173,7.9414875 33.888971,10.030124 z"
         style="fill:none;fill-rule:nonzero;stroke:url(#linearGradient6610);stroke-linecap:round;stroke-linejoin:round;stroke-miterlimit:4;stroke-opacity:1" />
      <path
         style="opacity:1;fill:url(#linearGradient6623);fill-opacity:1;fill-rule:nonzero;stroke:none;stroke-width:1;stroke-linecap:round;stroke-linejoin:round;marker:none;marker-start:none;marker-mid:none;marker-end:none;stroke-miterlimit:4;stroke-dashoffset:0;stroke-opacity:1;visibility:visible;display:inline;overflow:visible"
         d="M 23.66325,7.0524597 C 17.795434,7.0524597 13.016988,11.794692 13.016988,17.66251 C 13.016988,21.333503 15.000693,24.443138 17.833154,26.353336 C 25.073625,22.456374 23.786958,15.548148 33.44043,13.606789 C 31.841424,9.7576868 28.088842,7.0524597 23.66325,7.0524597 z"
         id="path6612" />
    </g>
  </g>
</svg>
