<?xml version="1.0" encoding="UTF-8" standalone="no"?>
<!-- Created with Inkscape (http://www.inkscape.org/) -->

<svg
   xmlns:dc="http://purl.org/dc/elements/1.1/"
   xmlns:cc="http://creativecommons.org/ns#"
   xmlns:rdf="http://www.w3.org/1999/02/22-rdf-syntax-ns#"
   xmlns:svg="http://www.w3.org/2000/svg"
   xmlns="http://www.w3.org/2000/svg"
   xmlns:sodipodi="http://sodipodi.sourceforge.net/DTD/sodipodi-0.dtd"
   xmlns:inkscape="http://www.inkscape.org/namespaces/inkscape"
   id="svg3039"
   version="1.1"
   inkscape:version="0.48.4 r9939"
   width="128"
   height="128"
   sodipodi:docname="portadmin.svg">
  <title
     id="title3108">Ethernet off</title>
  <metadata
     id="metadata3045">
    <rdf:RDF>
      <cc:Work
         rdf:about="">
        <dc:format>image/svg+xml</dc:format>
        <dc:type
           rdf:resource="http://purl.org/dc/dcmitype/StillImage" />
        <dc:title>Ethernet off</dc:title>
        <dc:description></dc:description>
        <dc:source>http://icons8.com/web-app/789/Ethernet-Off</dc:source>
      </cc:Work>
    </rdf:RDF>
  </metadata>
  <defs
     id="defs3043" />
  <sodipodi:namedview
     pagecolor="#ffffff"
     bordercolor="#666666"
     borderopacity="1"
     objecttolerance="10"
     gridtolerance="10"
     guidetolerance="10"
     inkscape:pageopacity="0"
     inkscape:pageshadow="2"
     inkscape:window-width="1013"
     inkscape:window-height="975"
     id="namedview3041"
     showgrid="false"
     inkscape:snap-global="true"
     inkscape:snap-bbox="false"
     inkscape:bbox-nodes="false"
     inkscape:bbox-paths="false"
     inkscape:zoom="1.84375"
     inkscape:cx="76.796879"
     inkscape:cy="59.922385"
     inkscape:window-x="2604"
     inkscape:window-y="63"
     inkscape:window-maximized="0"
     inkscape:current-layer="svg3039" />
  <path
     style="fill:#4d4d4d"
     d="M 18.5,126.99354 C 11.56112,125.24874 6.00637,120.74294 2.36416,113.90464 0.62219,110.63404 0.5,107.35684 0.5,63.904641 0.5,18.169141 0.5355,17.338841 2.65842,13.40464 5.18402,8.7241401 9.10133,4.8779407 14,2.2687404 17.2706,0.52684045 20.54781,0.40464045 64,0.40464045 c 45.73548,0 46.56576,0.035 50.5,2.15839995 4.68047,2.5256003 8.52672,6.4428997 11.13584,11.3415996 1.74197,3.270601 1.86416,6.547801 1.86416,50.000001 0,43.452199 -0.12219,46.729399 -1.86416,49.999999 -2.60912,4.8986 -6.45537,8.816 -11.13584,11.3416 -3.91196,2.1109 -4.97948,2.1622 -48.5,2.33 -24.475,0.094 -45.85,-0.1678 -47.5,-0.5827 z m 92.8587,-10.9868 c 1.57229,-1.0366 3.70682,-3.1711 4.74341,-4.7434 1.77522,-2.6926 1.88471,-5.44399 1.88471,-47.358699 0,-41.9148 -0.10949,-44.6661 -1.88471,-47.3587 C 115.06552,14.97364 112.93099,12.83914 111.3587,11.80254 108.66608,10.02734 105.91475,9.9178401 64,9.9178401 c -41.91475,0 -44.66608,0.1094999 -47.3587,1.8846999 -1.57229,1.0366 -3.70682,3.1711 -4.74341,4.743401 -1.77522,2.6926 -1.88471,5.4439 -1.88471,47.3587 0,41.914709 0.10949,44.666099 1.88471,47.358699 1.03659,1.5723 3.17112,3.7068 4.74341,4.7434 2.69262,1.7752 5.44395,1.8847 47.3587,1.8847 41.91475,0 44.66608,-0.1095 47.3587,-1.8847 z M 26.2,96.704644 C 25.33285,95.837444 25,88.798541 25,71.327041 c 0,-21.2508 0.19981,-24.3437 1.65063,-25.55 1.091763,-0.9077 5.116177,-1.4868 11.88616,-1.7102 l 10.23552,-0.3377 0.43341,-5.9917 c 0.26836,-3.7101 0.97811,-6.3365 1.86384,-6.897 1.86261,-1.1787 23.99827,-1.1787 25.86088,0 0.88573,0.5605 1.59549,3.1869 1.86385,6.897 l 0.4334,5.9917 10.23552,0.3377 c 6.76999,0.2234 10.7944,0.8025 11.88616,1.7102 1.45082,1.2063 1.65063,4.2992 1.65063,25.55 0,17.4715 -0.33284,24.510403 -1.2,25.377603 -0.66,0.660004 -3.79311,1.200004 -6.96247,1.200004 l -5.76248,0 -0.28752,-9.250007 c -0.27137,-8.7302 -0.41398,-9.268 -2.53753,-9.5696 -2.19885,-0.3123 -2.25,-0.102 -2.25,9.25 l 0,9.569607 -4.96247,0 -4.96248,0 -0.28752,-9.250007 c -0.26383,-8.4875 -0.4524,-9.25 -2.28753,-9.25 -1.83513,0 -2.0237,0.7625 -2.28752,9.25 l -0.28753,9.250007 -4.92495,0 -4.92495,0 -0.28752,-9.250007 c -0.26383,-8.4875 -0.4524,-9.25 -2.28753,-9.25 -1.83513,0 -2.0237,0.7625 -2.28752,9.25 l -0.28753,9.250007 -4.96247,0 -4.96248,0 0,-9.569607 c 0,-9.352 -0.0511,-9.5623 -2.25,-9.25 -2.12355,0.3016 -2.26616,0.8394 -2.53752,9.5696 l -0.28753,9.250007 -5.762475,0 c -3.169361,0 -6.302475,-0.54 -6.962475,-1.200004 z"
     id="path3068"
     inkscape:connector-curvature="0" />
</svg>
