<?xml version="1.0" encoding="UTF-8" standalone="no"?>
<!-- Created with Inkscape (http://www.inkscape.org/) -->
<svg
   xmlns:dc="http://purl.org/dc/elements/1.1/"
   xmlns:cc="http://web.resource.org/cc/"
   xmlns:rdf="http://www.w3.org/1999/02/22-rdf-syntax-ns#"
   xmlns:svg="http://www.w3.org/2000/svg"
   xmlns="http://www.w3.org/2000/svg"
   xmlns:xlink="http://www.w3.org/1999/xlink"
   xmlns:sodipodi="http://sodipodi.sourceforge.net/DTD/sodipodi-0.dtd"
   xmlns:inkscape="http://www.inkscape.org/namespaces/inkscape"
   width="45"
   height="45"
   id="svg16927"
   sodipodi:version="0.32"
   inkscape:version="0.44"
   version="1.0"
   sodipodi:docbase="/home/jodal/Desktop/nav"
   sodipodi:docname="alertprofiles.svg"
   inkscape:export-filename="/home/jodal/Desktop/nav/alertprofiles.png"
   inkscape:export-xdpi="90"
   inkscape:export-ydpi="90">
  <defs
     id="defs16929">
    <linearGradient
       y2="475.48"
       y1="475.48"
       x2="-238.9916"
       x1="-240.5767"
       id="XMLID_33_"
       gradientUnits="userSpaceOnUse"
       gradientTransform="matrix(0,-90.9165,-90.9165,0,43263.48,-21753.14)">
      <stop
         style="stop-color:#76AA04"
         offset="0"
         id="stop162" />
      <stop
         style="stop-color:#063903"
         offset="1"
         id="stop164" />
    </linearGradient>
    <linearGradient
       y2="475.48"
       y1="475.48"
       x2="-239.0026"
       x1="-240.5723"
       id="XMLID_32_"
       gradientUnits="userSpaceOnUse"
       gradientTransform="matrix(0,-90.9165,-90.9165,0,43263.48,-21753.14)">
      <stop
         style="stop-color:#C2EF20"
         offset="0"
         id="stop153" />
      <stop
         style="stop-color:#0A5116"
         offset="1"
         id="stop155" />
    </linearGradient>
    <linearGradient
       y2="475.48"
       y1="475.48"
       x2="-239.0008"
       x1="-240.5728"
       id="XMLID_31_"
       gradientUnits="userSpaceOnUse"
       gradientTransform="matrix(0,-90.9165,-90.9165,0,43263.48,-21753.14)">
      <stop
         style="stop-color:#9CD305"
         offset="0"
         id="stop146" />
      <stop
         style="stop-color:#084703"
         offset="1"
         id="stop148" />
    </linearGradient>
    <linearGradient
       y2="475.48"
       y1="475.48"
       x2="-238.7222"
       x1="-240.7222"
       id="XMLID_30_"
       gradientUnits="userSpaceOnUse"
       gradientTransform="matrix(0,-90.9165,-90.9165,0,43263.48,-21753.14)">
      <stop
         style="stop-color:#FFFFFF"
         offset="0"
         id="stop139" />
      <stop
         style="stop-color:#0D56AC"
         offset="1"
         id="stop141" />
    </linearGradient>
    <linearGradient
       y2="454.8315"
       y1="454.8315"
       x2="-242.537"
       x1="-244.0659"
       id="XMLID_29_"
       gradientUnits="userSpaceOnUse"
       gradientTransform="matrix(0.334,106.6735,106.6735,-0.334,-48373.35,26129.27)">
      <stop
         style="stop-color:#FFFA5F"
         offset="0"
         id="stop122" />
      <stop
         style="stop-color:#9F3300"
         offset="1"
         id="stop124" />
    </linearGradient>
    <linearGradient
       y2="475.3706"
       y1="475.3706"
       x2="-238.9228"
       x1="-240.5078"
       id="XMLID_28_"
       gradientUnits="userSpaceOnUse"
       gradientTransform="matrix(0,-90.91,-90.91,0,43279.27,-21761.25)">
      <stop
         style="stop-color:#C68526"
         offset="0"
         id="stop109" />
      <stop
         style="stop-color:#633400"
         offset="1"
         id="stop111" />
    </linearGradient>
    <linearGradient
       y2="475.3706"
       y1="475.3706"
       x2="-238.9337"
       x1="-240.5034"
       id="XMLID_26_"
       gradientUnits="userSpaceOnUse"
       gradientTransform="matrix(0,-90.91,-90.91,0,43279.27,-21761.25)">
      <stop
         style="stop-color:#FFE600"
         offset="0"
         id="stop90" />
      <stop
         style="stop-color:#7F5A00"
         offset="1"
         id="stop92" />
    </linearGradient>
    <linearGradient
       y2="475.3706"
       y1="475.3706"
       x2="-238.932"
       x1="-240.5039"
       id="XMLID_25_"
       gradientUnits="userSpaceOnUse"
       gradientTransform="matrix(0,-90.91,-90.91,0,43279.27,-21761.25)">
      <stop
         style="stop-color:#FFCE00"
         offset="0"
         id="stop83" />
      <stop
         style="stop-color:#7F5100"
         offset="1"
         id="stop85" />
    </linearGradient>
    <linearGradient
       y2="475.3794"
       y1="475.3794"
       x2="-238.9785"
       x1="-240.4785"
       id="XMLID_24_"
       gradientUnits="userSpaceOnUse"
       gradientTransform="matrix(0,-90.91,-90.91,0,43279.27,-21761.25)">
      <stop
         style="stop-color:#FFFFFF"
         offset="0"
         id="stop76" />
      <stop
         style="stop-color:#7F6400"
         offset="1"
         id="stop78" />
    </linearGradient>
    <linearGradient
       y2="450.48"
       y1="450.48"
       x2="-236.6528"
       x1="-238.2271"
       id="XMLID_23_"
       gradientUnits="userSpaceOnUse"
       gradientTransform="matrix(-31.0003,63.2508,63.2508,31.0003,-35773.19,1111.06)">
      <stop
         style="stop-color:#FFFA5F"
         offset="0"
         id="stop65" />
      <stop
         style="stop-color:#9F3300"
         offset="1"
         id="stop67" />
    </linearGradient>
    <linearGradient
       y2="475.2456"
       y1="475.2456"
       x2="-238.8777"
       x1="-240.4453"
       id="XMLID_22_"
       gradientUnits="userSpaceOnUse"
       gradientTransform="matrix(0,-90.9165,-90.9165,0,43300.41,-21773.08)">
      <stop
         style="stop-color:#B20D0D"
         offset="0"
         id="stop44" />
      <stop
         style="stop-color:#110409"
         offset="0.9562"
         id="stop46" />
      <stop
         style="stop-color:#090409"
         offset="1"
         id="stop48" />
    </linearGradient>
    <linearGradient
       y2="475.2466"
       y1="475.2466"
       x2="-238.8754"
       x1="-240.4468"
       id="XMLID_21_"
       gradientUnits="userSpaceOnUse"
       gradientTransform="matrix(0,-90.9165,-90.9165,0,43300.41,-21773.08)">
      <stop
         style="stop-color:#970F00"
         offset="0"
         id="stop37" />
      <stop
         style="stop-color:#080500"
         offset="1"
         id="stop39" />
    </linearGradient>
    <linearGradient
       y2="475.2456"
       y1="475.2456"
       x2="-238.8766"
       x1="-240.4463"
       id="XMLID_20_"
       gradientUnits="userSpaceOnUse"
       gradientTransform="matrix(0,-90.9165,-90.9165,0,43300.41,-21773.08)">
      <stop
         style="stop-color:#FF0000"
         offset="0"
         id="stop30" />
      <stop
         style="stop-color:#0D0000"
         offset="1"
         id="stop32" />
    </linearGradient>
    <linearGradient
       y2="475.2456"
       y1="475.2456"
       x2="-238.8709"
       x1="-240.4482"
       id="XMLID_19_"
       gradientUnits="userSpaceOnUse"
       gradientTransform="matrix(0,-90.9165,-90.9165,0,43300.41,-21773.08)">
      <stop
         style="stop-color:#D82A2A"
         offset="0"
         id="stop23" />
      <stop
         style="stop-color:#0B0E1C"
         offset="1"
         id="stop25" />
    </linearGradient>
    <linearGradient
       y2="475.2437"
       y1="475.2437"
       x2="-239.2471"
       x1="-240.2471"
       id="XMLID_18_"
       gradientUnits="userSpaceOnUse"
       gradientTransform="matrix(0,-90.9165,-90.9165,0,43300.41,-21773.08)">
      <stop
         style="stop-color:#FFFFFF"
         offset="0"
         id="stop16" />
      <stop
         style="stop-color:#0D56AC"
         offset="1"
         id="stop18" />
    </linearGradient>
    <radialGradient
       xlink:href="#linearGradient13041"
       r="17.515248"
       inkscape:collect="always"
       id="radialGradient24798"
       gradientUnits="userSpaceOnUse"
       gradientTransform="scale(1.640825,0.609449)"
       fy="659.05209"
       fx="197.93359"
       cy="659.05209"
       cx="197.93359" />
    <radialGradient
       xlink:href="#linearGradient13041"
       r="9.6400386"
       inkscape:collect="always"
       id="radialGradient24796"
       gradientUnits="userSpaceOnUse"
       gradientTransform="matrix(0.291098,0,0,3.435266,1.234771,3.79707)"
       fy="128.20529"
       fx="1109.5795"
       cy="128.20529"
       cx="1109.5795" />
    <radialGradient
       xlink:href="#linearGradient9181"
       r="60.762626"
       inkscape:collect="always"
       id="radialGradient24792"
       gradientUnits="userSpaceOnUse"
       gradientTransform="matrix(0.175682,0,0,5.692098,-475.0716,-508.7722)"
       fy="130.41276"
       fx="-171.40828"
       cy="130.41276"
       cx="-171.40828" />
    <radialGradient
       xlink:href="#linearGradient9181"
       r="60.762626"
       inkscape:collect="always"
       id="radialGradient24790"
       gradientUnits="userSpaceOnUse"
       gradientTransform="matrix(0.175682,0,0,5.692096,37.77071,-199.8852)"
       fy="130.41276"
       fx="-171.40828"
       cy="130.41276"
       cx="-171.40828" />
    <radialGradient
       xlink:href="#linearGradient19980"
       r="934.07904"
       inkscape:collect="always"
       id="radialGradient24788"
       gradientUnits="userSpaceOnUse"
       fy="580.54504"
       fx="467.44138"
       cy="580.54504"
       cx="467.44138" />
    <radialGradient
       xlink:href="#linearGradient21667"
       r="160.24002"
       inkscape:collect="always"
       id="radialGradient24782"
       gradientUnits="userSpaceOnUse"
       fy="668.91895"
       fx="380.06348"
       cy="668.91895"
       cx="380.06348" />
    <radialGradient
       xlink:href="#linearGradient21667"
       r="160.24002"
       inkscape:collect="always"
       id="radialGradient21673"
       gradientUnits="userSpaceOnUse"
       fy="668.91895"
       fx="380.06348"
       cy="668.91895"
       cx="380.06348" />
    <radialGradient
       xlink:href="#linearGradient19980"
       r="934.07904"
       inkscape:collect="always"
       id="radialGradient19988"
       gradientUnits="userSpaceOnUse"
       fy="580.54504"
       fx="467.44138"
       cy="580.54504"
       cx="467.44138" />
    <radialGradient
       xlink:href="#linearGradient15396"
       r="68.532875"
       inkscape:collect="always"
       id="radialGradient19218"
       gradientUnits="userSpaceOnUse"
       gradientTransform="matrix(-1.139696,0.000000,0.000000,0.877427,1480.809,-282.6464)"
       fy="419.09613"
       fx="476.17783"
       cy="419.09613"
       cx="476.17783" />
    <radialGradient
       xlink:href="#linearGradient9181"
       r="60.762626"
       inkscape:collect="always"
       id="radialGradient18456"
       gradientUnits="userSpaceOnUse"
       gradientTransform="matrix(0.175682,-2.237461e-16,-1.358581e-14,5.692098,-475.0716,-508.7722)"
       fy="130.41276"
       fx="-171.40828"
       cy="130.41276"
       cx="-171.40828" />
    <radialGradient
       xlink:href="#linearGradient9181"
       r="60.762626"
       inkscape:collect="always"
       id="radialGradient18454"
       gradientUnits="userSpaceOnUse"
       gradientTransform="matrix(0.175682,-2.224413e-16,-1.216455e-14,5.692096,37.77071,-199.8852)"
       fy="130.41276"
       fx="-171.40828"
       cy="130.41276"
       cx="-171.40828" />
    <radialGradient
       xlink:href="#linearGradient15396"
       r="68.532875"
       inkscape:collect="always"
       id="radialGradient14636"
       gradientUnits="userSpaceOnUse"
       gradientTransform="matrix(1.139696,0.000000,0.000000,0.877427,690.7210,-281.6453)"
       fy="419.09613"
       fx="476.17783"
       cy="419.09613"
       cx="476.17783" />
    <radialGradient
       xlink:href="#linearGradient11503"
       r="313.22534"
       inkscape:collect="always"
       id="radialGradient13869"
       gradientUnits="userSpaceOnUse"
       gradientTransform="matrix(1.139696,0.000000,0.000000,0.877427,691.8028,-281.6453)"
       fy="449.75824"
       fx="482.51828"
       cy="448.45276"
       cx="484.51950" />
    <radialGradient
       xlink:href="#linearGradient11503"
       r="313.22534"
       inkscape:collect="always"
       id="radialGradient13866"
       gradientUnits="userSpaceOnUse"
       gradientTransform="matrix(-1.139696,0.000000,0.000000,0.877427,1478.455,-281.6213)"
       fy="449.75824"
       fx="482.51828"
       cy="448.45276"
       cx="484.51950" />
    <radialGradient
       xlink:href="#linearGradient13041"
       r="9.6400386"
       inkscape:collect="always"
       id="radialGradient13049"
       gradientUnits="userSpaceOnUse"
       gradientTransform="matrix(0.291098,-6.024185e-17,7.109189e-16,3.435266,1.234771,3.797070)"
       fy="128.20529"
       fx="1109.5795"
       cy="128.20529"
       cx="1109.5795" />
    <radialGradient
       xlink:href="#linearGradient13041"
       r="17.515248"
       inkscape:collect="always"
       id="radialGradient13047"
       gradientUnits="userSpaceOnUse"
       gradientTransform="scale(1.640825,0.609449)"
       fy="659.05209"
       fx="197.93359"
       cy="659.05209"
       cx="197.93359" />
    <radialGradient
       xlink:href="#linearGradient2052"
       r="740.16803"
       inkscape:collect="always"
       id="radialGradient2914"
       gradientUnits="userSpaceOnUse"
       gradientTransform="matrix(-0.472317,0.000000,0.000000,0.472317,645.1615,337.3062)"
       fy="291.11523"
       fx="262.00516"
       cy="299.96341"
       cx="259.07861" />
    <radialGradient
       xlink:href="#linearGradient2052"
       r="740.16803"
       inkscape:collect="always"
       id="radialGradient2912"
       gradientUnits="userSpaceOnUse"
       gradientTransform="matrix(0.472317,0.000000,0.000000,0.472317,129.0825,337.3064)"
       fy="291.11523"
       fx="262.00516"
       cy="299.96341"
       cx="259.07861" />
    <radialGradient
       xlink:href="#linearGradient2052"
       r="740.16803"
       inkscape:collect="always"
       id="radialGradient2910"
       gradientUnits="userSpaceOnUse"
       fy="291.11523"
       fx="262.00516"
       cy="299.96341"
       cx="259.07861" />
    <radialGradient
       xlink:href="#linearGradient2052"
       r="740.16803"
       inkscape:collect="always"
       id="radialGradient2908"
       gradientUnits="userSpaceOnUse"
       gradientTransform="matrix(-0.255095,0.000000,0.000000,0.255095,552.1070,741.2186)"
       fy="291.11523"
       fx="262.00516"
       cy="299.96341"
       cx="259.07861" />
    <radialGradient
       xlink:href="#linearGradient2052"
       r="740.16803"
       inkscape:collect="always"
       id="radialGradient2906"
       gradientUnits="userSpaceOnUse"
       gradientTransform="matrix(0.255095,0.000000,0.000000,0.255095,186.3442,741.2187)"
       fy="291.11523"
       fx="262.00516"
       cy="299.96341"
       cx="259.07861" />
    <radialGradient
       xlink:href="#linearGradient2052"
       r="740.16803"
       inkscape:collect="always"
       id="radialGradient2058"
       gradientUnits="userSpaceOnUse"
       fy="291.11523"
       fx="262.00516"
       cy="299.96341"
       cx="259.07861" />
    <linearGradient
       id="linearGradient2052">
      <stop
         style="stop-color:#000000;stop-opacity:1.0000000;"
         offset="0.0000000"
         id="stop2054" />
      <stop
         style="stop-color:#000000;stop-opacity:0.0000000;"
         offset="1.0000000"
         id="stop2056" />
    </linearGradient>
    <linearGradient
       id="linearGradient9181">
      <stop
         style="stop-color:#868686;stop-opacity:1;"
         offset="0"
         id="stop9183" />
      <stop
         style="stop-color:#a3a3a3;stop-opacity:1.0000000;"
         offset="1.0000000"
         id="stop9185" />
    </linearGradient>
    <linearGradient
       id="linearGradient11503">
      <stop
         style="stop-color:#000000;stop-opacity:1.0000000;"
         offset="0.0000000"
         id="stop11505" />
      <stop
         style="stop-color:#dbdbdb;stop-opacity:1.0000000;"
         offset="1.0000000"
         id="stop11507" />
    </linearGradient>
    <linearGradient
       id="linearGradient13041">
      <stop
         style="stop-color:#525252;stop-opacity:1;"
         offset="0"
         id="stop13043" />
      <stop
         style="stop-color:#747474;stop-opacity:1.0000000;"
         offset="1.0000000"
         id="stop13045" />
    </linearGradient>
    <linearGradient
       id="linearGradient15396">
      <stop
         style="stop-color:#000000;stop-opacity:1.0000000;"
         offset="0.0000000"
         id="stop15398" />
      <stop
         style="stop-color:#000000;stop-opacity:0.0000000;"
         offset="1.0000000"
         id="stop15400" />
    </linearGradient>
    <linearGradient
       id="linearGradient19980">
      <stop
         style="stop-color:#383838;stop-opacity:1.0000000;"
         offset="0.0000000"
         id="stop19982" />
      <stop
         style="stop-color:#575757;stop-opacity:1.0000000;"
         offset="1.0000000"
         id="stop19984" />
    </linearGradient>
    <linearGradient
       id="linearGradient21667">
      <stop
         style="stop-color:#f0f0f0;stop-opacity:1.0000000;"
         offset="0.0000000"
         id="stop21669" />
      <stop
         style="stop-color:#c0c0c0;stop-opacity:1.0000000;"
         offset="1.0000000"
         id="stop21671" />
    </linearGradient>
    <radialGradient
       inkscape:collect="always"
       xlink:href="#linearGradient15396"
       id="radialGradient17290"
       gradientUnits="userSpaceOnUse"
       gradientTransform="matrix(-7.884351e-2,0,0,6.069989e-2,45.19573,-17.88867)"
       cx="476.17783"
       cy="419.09613"
       fx="476.17783"
       fy="419.09613"
       r="68.532875" />
    <radialGradient
       inkscape:collect="always"
       xlink:href="#linearGradient15396"
       id="radialGradient17293"
       gradientUnits="userSpaceOnUse"
       gradientTransform="matrix(7.884351e-2,0,0,6.069989e-2,-9.462075,-17.81942)"
       cx="476.17783"
       cy="419.09613"
       fx="476.17783"
       fy="419.09613"
       r="68.532875" />
    <radialGradient
       inkscape:collect="always"
       xlink:href="#linearGradient11503"
       id="radialGradient17306"
       gradientUnits="userSpaceOnUse"
       gradientTransform="matrix(-7.884351e-2,0,0,6.069989e-2,45.03289,-17.81776)"
       cx="484.51950"
       cy="448.45276"
       fx="482.51828"
       fy="449.75824"
       r="313.22534" />
    <radialGradient
       inkscape:collect="always"
       xlink:href="#linearGradient11503"
       id="radialGradient17312"
       gradientUnits="userSpaceOnUse"
       gradientTransform="matrix(7.884351e-2,0,0,6.069989e-2,-9.387237,-17.81942)"
       cx="484.51950"
       cy="448.45276"
       fx="482.51828"
       fy="449.75824"
       r="313.22534" />
  </defs>
  <sodipodi:namedview
     id="base"
     pagecolor="#ffffff"
     bordercolor="#666666"
     borderopacity="1.0"
     gridtolerance="10000"
     guidetolerance="10"
     objecttolerance="10"
     inkscape:pageopacity="0.0"
     inkscape:pageshadow="2"
     inkscape:zoom="7.660845"
     inkscape:cx="22.5"
     inkscape:cy="21.103835"
     inkscape:document-units="px"
     inkscape:current-layer="layer1"
     width="45px"
     height="45px"
     inkscape:window-width="906"
     inkscape:window-height="588"
     inkscape:window-x="646"
     inkscape:window-y="544" />
  <metadata
     id="metadata16932">
    <rdf:RDF>
      <cc:Work
         rdf:about="">
        <dc:format>image/svg+xml</dc:format>
        <dc:type
           rdf:resource="http://purl.org/dc/dcmitype/StillImage" />
        <cc:license
           rdf:resource="http://web.resource.org/cc/PublicDomain" />
        <dc:source>openclipart.org</dc:source>
      </cc:Work>
      <cc:License
         rdf:about="http://web.resource.org/cc/PublicDomain">
        <cc:permits
           rdf:resource="http://web.resource.org/cc/Reproduction" />
        <cc:permits
           rdf:resource="http://web.resource.org/cc/Distribution" />
        <cc:permits
           rdf:resource="http://web.resource.org/cc/DerivativeWorks" />
      </cc:License>
    </rdf:RDF>
  </metadata>
  <g
     inkscape:label="Layer 1"
     inkscape:groupmode="layer"
     id="layer1">
    <g
       id="g2033">
      <path
         style="fill:url(#radialGradient17312);fill-opacity:1;stroke-width:0;stroke-miterlimit:4"
         sodipodi:nodetypes="ccccc"
         id="path24722"
         d="M 33.081327,14.27847 C 32.457232,15.60133 29.46947,14.172079 25.947691,12.127911 C 22.825035,9.9958738 20.255228,8.5569861 20.749182,6.9206667 C 21.474937,4.5493123 24.666011,3.8815718 28.228432,5.641634 C 32.595819,7.5168377 35.275145,11.102389 33.081327,14.27847 z " />
      <g
         transform="matrix(6.917942e-2,0,0,6.917942e-2,-9.462075,-17.81942)"
         id="g24724">
        <rect
           y="411.10028"
           x="321.42529"
           width="5.6123981"
           transform="matrix(0.988884,-0.14869,0.14869,0.988884,0,0)"
           style="fill:url(#radialGradient24796);fill-opacity:1;stroke-width:0;stroke-miterlimit:4"
           id="rect24726"
           height="66.232201" />
        <rect
           y="390.98425"
           x="296.03497"
           width="57.478924"
           transform="matrix(0.988884,-0.14869,0.14869,0.988884,0,0)"
           style="fill:url(#radialGradient24798);fill-opacity:1;stroke-width:0;stroke-miterlimit:4"
           ry="6.5000076"
           rx="6.5000076"
           id="rect24728"
           height="21.349316" />
      </g>
      <path
         style="fill:url(#radialGradient17306);fill-opacity:1;stroke-width:0;stroke-miterlimit:4"
         sodipodi:nodetypes="ccccc"
         id="path24730"
         d="M 2.5643168,14.28013 C 3.1884155,15.60299 6.1761778,14.173739 9.6979576,12.12957 C 12.820607,9.9975334 15.390413,8.5586457 14.89646,6.9223264 C 14.170706,4.5509719 10.979634,3.8832314 7.4172151,5.6432937 C 3.0498297,7.5184973 0.37050042,11.104049 2.5643168,14.28013 z " />
      <g
         transform="matrix(6.917942e-2,0,0,6.544622e-2,-3.50897,-5.836397)"
         id="g24732">
        <rect
           y="196.57016"
           x="-3.0175171"
           width="21.349823"
           transform="matrix(0.865398,-0.501085,0.554854,0.831948,0,0)"
           style="fill:url(#radialGradient24790);fill-opacity:1;stroke-width:0;stroke-miterlimit:4"
           ry="9.034544"
           rx="8.8170166"
           id="rect24734"
           height="691.7334" />
        <rect
           y="-112.31664"
           x="-515.8598"
           width="21.349819"
           transform="matrix(-0.865398,-0.501085,-0.554854,0.831948,0,0)"
           style="fill:url(#radialGradient24792);fill-opacity:1;stroke-width:0;stroke-miterlimit:4"
           ry="9.0345478"
           rx="8.8170147"
           id="rect24736"
           height="691.73364" />
      </g>
      <path
         transform="matrix(6.917942e-2,0,0,6.917942e-2,-8.250543,-18.67998)"
         style="fill:url(#radialGradient24788);fill-opacity:1;stroke-width:0;stroke-miterlimit:4"
         sodipodi:type="arc"
         sodipodi:ry="230.93887"
         sodipodi:rx="230.93887"
         sodipodi:cy="652.71344"
         sodipodi:cx="376.13995"
         id="path24738"
         d="M 607.07883 652.71344 A 230.93887 230.93887 0 1 1  145.20108,652.71344 A 230.93887 230.93887 0 1 1  607.07883 652.71344 z" />
      <path
         transform="matrix(6.917942e-2,0,0,6.917942e-2,-8.633209,-18.67998)"
         style="fill:#c1c1c1;fill-opacity:1;stroke-width:0;stroke-miterlimit:4"
         sodipodi:type="arc"
         sodipodi:ry="207.43013"
         sodipodi:rx="207.43013"
         sodipodi:cy="652.71344"
         sodipodi:cx="381.67145"
         id="path24740"
         d="M 589.10158 652.71344 A 207.43013 207.43013 0 1 1  174.24132,652.71344 A 207.43013 207.43013 0 1 1  589.10158 652.71344 z" />
      <g
         transform="matrix(6.917942e-2,0,0,6.917942e-2,-9.886774,-16.92548)"
         id="g24742">
        <path
           style="fill:#6f6f6f;fill-opacity:1;stroke-width:0;stroke-miterlimit:4"
           sodipodi:nodetypes="ccccccccc"
           id="path24744"
           d="M 334.68295,263.73782 L 412.97578,263.73782 C 419.83915,264.5261 419.36131,281.1424 413.05503,281.12964 L 335.40888,282.49149 C 316.09588,283.66116 291.66648,297.40757 291.89769,319.08542 L 292.26797,355.7407 C 292.10504,359.68214 270.75256,362.09558 270.35842,355.01376 L 270.35842,317.78492 C 270.35842,287.84283 299.04716,263.73782 334.68295,263.73782 z " />
        <path
           style="fill:#6f6f6f;fill-opacity:1;stroke-width:0;stroke-miterlimit:4"
           sodipodi:nodetypes="ccccccccc"
           id="path24746"
           d="M 464.90095,263.57226 L 386.60812,263.57226 C 379.74475,264.36054 380.22259,280.97684 386.52887,280.96408 L 464.17502,282.32593 C 483.48802,283.4956 507.91741,297.24201 507.68619,318.91987 L 507.31592,355.57514 C 507.47886,359.51658 528.83133,361.93002 529.22548,354.8482 L 529.22548,317.61937 C 529.22548,287.67727 500.53674,263.57226 464.90095,263.57226 z " />
      </g>
      <path
         style="fill:#383838;fill-opacity:1;stroke-width:0;stroke-miterlimit:4"
         id="path24748"
         d="M 25.073885,4.5940984 C 22.924868,4.3786308 21.260391,5.2034348 20.761434,6.8337421 C 20.901979,6.8476022 23.274031,7.5590669 26.829175,9.315535 C 30.505653,11.298812 33.169386,13.66014 33.136809,14.120329 C 35.241088,10.962236 32.574858,7.4169101 28.24049,5.5558848 C 27.127234,5.0058653 26.050706,4.6920377 25.073885,4.5940984 z M 20.917448,8.0178716 C 21.461634,9.0255895 23.022591,10.069896 24.889253,11.320186 C 23.03128,10.070451 21.470565,9.0143728 20.917448,8.0178716 z M 33.110507,14.166795 C 33.102863,14.174792 33.101389,14.187327 33.089407,14.192167 C 32.97239,14.440204 32.771943,14.589689 32.500787,14.658305 C 32.773866,14.590141 32.976126,14.441969 33.09369,14.19278 C 33.09977,14.183971 33.104495,14.175611 33.110507,14.166795 z " />
      <path
         style="fill:#383838;fill-opacity:1;stroke-width:0;stroke-miterlimit:4"
         id="path24750"
         d="M 10.571763,4.595758 C 12.720775,4.3802904 14.385259,5.2050945 14.884216,6.8354017 C 14.743671,6.8492618 12.371612,7.5607265 8.8164727,9.3171946 C 5.139996,11.300472 2.4762597,13.661799 2.508837,14.121988 C 0.40455953,10.963896 3.0707904,7.4185697 7.4051536,5.5575444 C 8.5184098,5.007525 9.5949384,4.6936974 10.571763,4.595758 z M 14.728195,8.0195312 C 14.184009,9.0272491 12.623059,10.071555 10.756397,11.321845 C 12.614363,10.072111 14.175078,9.0160324 14.728195,8.0195312 z M 2.5351383,14.168455 C 2.5427868,14.176451 2.5442548,14.188986 2.556238,14.193827 C 2.6732564,14.441864 2.8737038,14.591348 3.1448567,14.659965 C 2.8717813,14.591801 2.66952,14.443628 2.5519579,14.194439 C 2.5458743,14.185631 2.5411479,14.17727 2.5351383,14.168455 z " />
      <path
         style="fill:url(#radialGradient17293);fill-opacity:1;stroke-width:0;stroke-miterlimit:4"
         sodipodi:nodetypes="cccccccccc"
         id="path24752"
         d="M 20.742846,6.8121637 C 20.733306,6.8404622 20.719228,6.8655121 20.710414,6.8943142 C 20.216459,8.5306336 22.787028,9.9701909 25.909684,12.102228 C 29.431463,14.146396 32.417551,15.573974 33.041646,14.251114 C 33.07012,14.201699 33.074541,14.174839 33.097854,14.093298 C 33.130431,13.633109 30.466034,11.272929 26.789556,9.2896522 C 23.267971,7.5497636 20.923701,6.8389693 20.742846,6.8121637 z M 20.879039,7.9903757 C 21.432156,8.9868767 22.992401,10.043958 24.850374,11.293694 C 22.983712,10.043403 21.423225,8.9980935 20.879039,7.9903757 z " />
      <path
         style="fill:url(#radialGradient17290);fill-opacity:1;stroke-width:0;stroke-miterlimit:4"
         sodipodi:nodetypes="cccccccccc"
         id="path24754"
         d="M 14.990828,6.7429019 C 15.000368,6.7712004 15.014439,6.7962503 15.023252,6.8250525 C 15.517205,8.4613718 12.946638,9.9009292 9.8239894,12.032966 C 6.3022095,14.077134 3.3161221,15.504712 2.6920234,14.181852 C 2.6635471,14.132437 2.6591293,14.105578 2.6358151,14.024036 C 2.6032378,13.563847 5.2676355,11.203668 8.9441136,9.2203904 C 12.465696,7.4805019 14.809972,6.7697076 14.990828,6.7429019 z M 14.854628,7.9211139 C 14.30151,8.917615 12.741265,9.9746966 10.883299,11.224432 C 12.749961,9.9741417 14.310441,8.9288317 14.854628,7.9211139 z " />
      <g
         transform="matrix(6.917942e-2,0,0,6.917942e-2,-18.14891,-89.04026)"
         style="fill:black;fill-opacity:1"
         id="g24756">
        <path
           style="fill-rule:evenodd;stroke:black;stroke-width:2.85748062pt;stroke-linecap:butt;stroke-linejoin:miter;stroke-opacity:1"
           id="path24758"
           d="M 326.47714,1669.784 L 711.96802,1669.7841" />
        <path
           style="fill-rule:evenodd;stroke:black;stroke-width:2.85748062pt;stroke-linecap:butt;stroke-linejoin:miter;stroke-opacity:1"
           id="path24760"
           d="M 382.93095,1806.0757 L 655.51421,1533.4924" />
        <path
           style="fill-rule:evenodd;stroke:black;stroke-width:2.85748062pt;stroke-linecap:butt;stroke-linejoin:miter;stroke-opacity:1"
           id="path24762"
           d="M 519.22257,1862.5295 L 519.22259,1477.0386" />
        <path
           style="fill-rule:evenodd;stroke:black;stroke-width:2.85748062pt;stroke-linecap:butt;stroke-linejoin:miter;stroke-opacity:1"
           id="path24764"
           d="M 655.51418,1806.0757 L 382.93098,1533.4924" />
      </g>
      <path
         transform="matrix(6.012107e-2,0,0,6.012107e-2,-5.175896,-12.76745)"
         style="fill:url(#radialGradient24782);fill-opacity:1;stroke-width:0;stroke-miterlimit:4"
         sodipodi:type="arc"
         sodipodi:ry="207.43013"
         sodipodi:rx="207.43013"
         sodipodi:cy="652.71344"
         sodipodi:cx="381.67145"
         id="path24766"
         d="M 589.10158 652.71344 A 207.43013 207.43013 0 1 1  174.24132,652.71344 A 207.43013 207.43013 0 1 1  589.10158 652.71344 z" />
      <g
         transform="matrix(6.256435e-2,-2.952114e-2,2.952114e-2,6.256435e-2,-34.53904,-3.925945)"
         id="g24768">
        <path
           transform="matrix(0.902587,0.430508,-0.430508,0.902587,456.4712,-22.86778)"
           style="fill:#525252;fill-opacity:1;stroke-width:0;stroke-miterlimit:4"
           sodipodi:type="star"
           sodipodi:sides="3"
           sodipodi:r2="7.4859052"
           sodipodi:r1="14.97181"
           sodipodi:cy="557.97095"
           sodipodi:cx="309.76895"
           sodipodi:arg2="2.1913664"
           sodipodi:arg1="1.1441688"
           inkscape:rounded="1.13"
           inkscape:randomized="0"
           inkscape:flatsided="true"
           id="path24770"
           d="M 315.96433,571.60078 C 289.28778,583.72649 292.03037,585.68681 294.86748,556.52139 C 297.70458,527.35597 294.6356,528.75096 318.47504,545.79067 C 342.31449,562.83039 342.64088,559.47508 315.96433,571.60078 z " />
        <rect
           y="617.56238"
           x="489.435"
           width="12.390759"
           style="fill:#525252;fill-opacity:1;stroke-width:0;stroke-miterlimit:4"
           ry="8.7000122"
           rx="8.699995"
           id="rect24772"
           height="96.647911" />
      </g>
      <path
         transform="matrix(6.917942e-2,0,0,6.917942e-2,-9.4879,-18.98321)"
         style="fill:#525252;fill-opacity:1;stroke-width:0;stroke-miterlimit:4"
         sodipodi:type="arc"
         sodipodi:ry="14.86891"
         sodipodi:rx="14.86891"
         sodipodi:cy="657.09698"
         sodipodi:cx="394.02612"
         id="path24774"
         d="M 408.89503 657.09698 A 14.86891 14.86891 0 1 1  379.15721,657.09698 A 14.86891 14.86891 0 1 1  408.89503 657.09698 z" />
      <g
         transform="matrix(1.759413e-2,6.690466e-2,-6.690466e-2,1.759413e-2,57.24291,-12.04444)"
         id="g24776">
        <path
           transform="matrix(0.902587,0.430508,-0.430508,0.902587,354.6148,-91.13281)"
           style="fill:#525252;fill-opacity:1;stroke-width:0;stroke-miterlimit:4"
           sodipodi:type="star"
           sodipodi:sides="3"
           sodipodi:r2="7.4859052"
           sodipodi:r1="14.97181"
           sodipodi:cy="557.97095"
           sodipodi:cx="309.76895"
           sodipodi:arg2="2.1913664"
           sodipodi:arg1="1.1441688"
           inkscape:rounded="1.13"
           inkscape:randomized="0"
           inkscape:flatsided="true"
           id="path24778"
           d="M 315.96433,571.60078 C 289.28778,583.72649 292.03037,585.68681 294.86748,556.52139 C 297.70458,527.35597 294.6356,528.75096 318.47504,545.79067 C 342.31449,562.83039 342.64088,559.47508 315.96433,571.60078 z " />
        <rect
           y="549.29736"
           x="387.57858"
           width="12.390759"
           style="fill:#525252;fill-opacity:1;stroke-width:0;stroke-miterlimit:4"
           ry="8.7000122"
           rx="8.699995"
           id="rect24780"
           height="136.29834" />
      </g>
    </g>
    <g
       style="overflow:visible"
       id="g17072"
       transform="matrix(0.199464,0,0,0.199464,18.74356,16.83182)">
      <path
         style="fill:#d82a2a"
         id="path5"
         d="M 126.326,79.321 C 126.326,98.718 107.648,105.468 91.014,104.983 C 72.399,104.438 56.56,94.579 59.218,74.172 C 61.482,56.797 75.272,37.003 94.727,38.259 C 114.604,39.546 126.326,61.336 126.326,79.321" />
      <path
         style="fill:red"
         id="path7"
         d="M 93.029,38.957 C 74.114,38.957 61.32,58.799 59.783,75.854 C 57.981,95.875 75.222,104.26 92.903,104.26 C 76.923,104.26 59.937,97.075 60.8,78.659 C 61.598,61.634 74.096,41.221 93.016,41.221 C 111.124,41.221 122.825,59.887 124.257,76.17 C 125.966,95.574 110.458,104.259 92.916,104.259 C 109.89,104.259 126.353,96.337 125.534,77.208 C 124.785,59.703 112.566,38.957 93.029,38.957" />
      <path
         style="fill:#970f00"
         id="path9"
         d="M 68.46,50.711 C 57.981,63.84 52.014,87.883 68.134,99.161 C 81.685,108.64 107.065,108.829 119.557,97.296 C 132.679,85.183 126.823,62.175 116.899,49.958 C 103.56,33.541 81.551,34.366 68.46,50.711 M 59.48,79.929 C 59.48,60.652 74.381,36.194 96.329,39.057 C 115.116,41.508 125.69,62.033 125.69,79.321 C 125.69,113.521 59.48,113.548 59.48,79.929" />
      <path
         style="fill:#b20d0d"
         id="path11"
         d="M 92.981,95.18 C 81.742,95.18 68.166,93.497 59.969,84.895 C 65.383,111.833 119.424,111.882 125.108,85.086 C 117.152,93.548 103.962,95.18 92.981,95.18" />
      <path
         style="fill:#b20d0d"
         id="path13"
         d="M 93.045,38.588 C 110.621,38.577 122.394,56.194 124.483,72.076 C 126.944,90.787 114.339,101.329 96.55,102.395 C 80.744,103.344 60.314,97.643 60.314,78.498 C 60.314,61.095 72.29,39.957 91.36,38.644 C 72.339,39.925 60.061,60.457 59.27,77.863 C 58.357,97.944 77.623,105.102 94.76,104.615 C 111.433,104.142 126.692,95.751 125.903,77.27 C 125.144,59.572 112.802,38.588 93.045,38.588" />
      <path
         style="fill:url(#XMLID_18_)"
         id="path20"
         d="M 90.831,37.664 C 90.725,37.671 90.725,37.671 90.831,37.664 M 94.875,37.632 C 94.987,37.64 94.987,37.64 94.875,37.632 M 91.237,37.631 C 91.051,37.645 91.051,37.645 91.237,37.631 M 94.451,37.608 C 94.668,37.621 94.668,37.621 94.451,37.608 M 91.654,37.606 C 91.404,37.621 91.404,37.621 91.654,37.606 M 94.033,37.588 C 94.305,37.6 94.305,37.6 94.033,37.588 M 92.071,37.588 C 91.777,37.6 91.777,37.6 92.071,37.588 M 93.587,37.576 C 93.931,37.583 93.931,37.583 93.587,37.576 M 92.52,37.576 C 92.152,37.583 92.152,37.583 92.52,37.576 M 93.045,37.57 C 91.604,37.57 94.482,37.57 93.045,37.57" />
      <path
         style="fill:url(#XMLID_19_)"
         id="path27"
         d="M 93.017,41.222 C 85.312,41.222 78.204,45.044 72.902,50.452 C 77.688,56.16 85.082,59.223 92.465,59.223 C 99.488,59.223 106.498,56.45 111.296,51.253 C 115.443,46.757 96.594,41.222 93.017,41.222 M 93.045,38.844 C 88.504,38.844 84.047,40.116 80.087,42.312 C 79.17,42.82 71.16,48.101 71.757,48.963 C 83.572,36.523 101.52,35.847 113.576,48.331 C 114.192,47.407 106.348,42.475 105.556,42.052 C 101.711,40.007 97.411,38.844 93.045,38.844" />
      <path
         style="fill:url(#XMLID_20_)"
         id="path34"
         d="M 93.029,38.957 C 89.025,38.957 68.574,45.301 72.901,50.452 C 84.171,38.959 100.98,38.356 112.462,49.883 C 116.59,44.631 96.966,38.957 93.029,38.957" />
      <path
         style="fill:url(#XMLID_21_)"
         id="path41"
         d="M 93.045,37.57 C 88.781,37.57 68.456,44.11 71.556,48.671 C 76.77,43.199 83.706,39.162 91.361,38.645 C 83.759,39.169 76.908,43.28 71.822,48.791 C 82.579,37.512 98.843,35.513 111.077,45.802 C 106.084,41.409 99.744,38.589 93.03,38.589 C 100.979,38.584 108.321,42.397 113.775,48.025 C 116.703,43.368 96.938,37.57 93.045,37.57" />
      <path
         style="fill:url(#XMLID_22_)"
         id="path50"
         d="M 91.36,38.645 C 88.971,38.807 69.351,45.553 71.717,48.906 C 76.834,43.345 83.689,39.174 91.36,38.645 M 93.045,38.588 C 100.948,38.583 108.282,42.539 113.613,48.274 C 114.334,47.161 107.062,42.597 105.989,42.005 C 102.03,39.822 97.575,38.588 93.045,38.588" />
      <path
         style="fill:#d82a2a"
         id="path52"
         d="M 115.882,22.022 C 115.882,50.522 70.138,50.522 70.138,22.022 C 70.138,-6.478 115.882,-6.478 115.882,22.022" />
      <path
         style="fill:red"
         id="path54"
         d="M 77.672,13.775 C 82.771,7.794 91.575,6.241 98.941,8.085 C 107.397,10.204 111.781,16.884 113.061,25.175 C 114.923,13.187 104.838,2.782 93.011,2.782 C 81.163,2.782 71.115,13.193 72.959,25.185 C 73.577,21.164 74.995,16.912 77.672,13.775" />
      <path
         style="fill:#b20d0d"
         id="path56"
         d="M 107.497,32.939 C 105.457,34.631 103.74,33.982 101.507,33.117 C 97.113,31.413 92.434,31.319 87.862,32.344 C 84.886,33.011 81.309,34.555 78.434,32.761 C 74.161,30.095 71.57,24.18 70.959,19.381 C 69.166,33.1 81.443,44.383 94.83,43.335 C 106.908,42.39 116.62,31.624 115.062,19.377 C 114.378,24.674 111.594,29.539 107.497,32.939" />
      <path
         style="fill:#970f00"
         id="path58"
         d="M 69.503,22.022 C 69.503,52.53 118.884,50.487 116.446,20.258 C 114.183,-7.811 69.503,-6.233 69.503,22.022 M 77.286,37.143 C 56.566,17.225 88.858,-12.2 108.729,6.907 C 129.325,26.714 97.276,56.364 77.286,37.143" />
      <path
         style="fill:#ffce00"
         id="path60"
         d="M 97.251,95.012 C 97.251,114.401 78.56,121.146 61.94,120.659 C 43.322,120.115 27.486,110.256 30.145,89.85 C 32.409,72.473 46.197,52.681 65.652,53.937 C 85.533,55.225 97.251,77.025 97.251,95.012" />
      <path
         style="fill:#ffe600"
         id="path62"
         d="M 63.956,54.635 C 45.04,54.635 32.242,74.477 30.707,91.531 C 28.905,111.547 46.137,119.938 63.813,119.938 C 47.832,119.938 30.861,112.75 31.726,94.336 C 32.523,77.312 45.021,56.901 63.941,56.901 C 82.049,56.901 93.738,75.568 95.17,91.85 C 96.875,111.25 81.384,119.938 63.841,119.938 C 80.812,119.938 97.263,112.008 96.444,92.887 C 95.694,75.39 83.486,54.635 63.956,54.635" />
      <path
         style="fill:url(#XMLID_23_)"
         id="path69"
         d="M 42.632,64.585 C 42.598,64.626 42.62,64.599 42.632,64.585 M 59.497,53.628 C 50.28,55.202 42.592,61.49 37.418,69.045 C 39.374,69.23 39.884,67.282 41.091,65.881 C 42.836,63.851 42.532,62.665 45.119,60.511 C 49.249,57.072 54.171,54.54 59.497,53.628 M 59.869,53.567 C 59.425,53.64 59.425,53.64 59.869,53.567 M 60.244,53.511 C 59.806,53.578 59.806,53.578 60.244,53.511 M 61.214,53.392 C 60.901,53.431 60.589,53.469 60.278,53.507 C 60.59,53.468 60.901,53.43 61.214,53.392 M 61.59,53.354 C 61.31,53.381 61.31,53.381 61.59,53.354 M 61.979,53.322 C 61.715,53.342 61.715,53.342 61.979,53.322 M 65.88,53.316 C 85.441,54.743 96.869,76.763 96.869,94.911 C 96.869,102.432 93.876,109.459 87.715,113.943 C 84.71,116.132 81.243,117.621 77.673,118.606 C 75.203,119.288 67.584,119.253 66.697,121.264 C 85.993,120.431 100.066,109.208 97.502,88.855 C 95.429,72.402 83.773,54.652 65.88,53.316 M 62.373,53.296 C 62.119,53.313 62.119,53.313 62.373,53.296 M 65.537,53.295 C 65.889,53.318 65.889,53.318 65.537,53.295 M 62.768,53.275 C 62.539,53.287 62.539,53.287 62.768,53.275 M 65.162,53.275 C 65.448,53.289 65.448,53.289 65.162,53.275 M 63.166,53.26 C 62.955,53.267 62.955,53.267 63.166,53.26 M 64.77,53.26 C 65.021,53.267 65.021,53.267 64.77,53.26 M 64.375,53.25 C 64.559,53.255 64.559,53.255 64.375,53.25 M 63.564,53.25 C 63.415,53.255 63.415,53.255 63.564,53.25" />
      <path
         style="fill:#ffb600"
         id="path71"
         d="M 63.904,110.859 C 52.663,110.859 39.087,109.177 30.89,100.574 C 36.304,127.512 90.347,127.559 96.03,100.762 C 88.074,109.225 74.884,110.859 63.904,110.859" />
      <path
         style="fill:#c68526"
         id="path73"
         d="M 63.956,54.266 C 82.31,54.266 94.167,73.183 95.619,89.687 C 97.273,108.477 82.947,117.648 65.672,118.155 C 50.246,118.607 31.227,112.581 31.227,94.176 C 31.227,76.78 43.206,55.637 62.269,54.323 C 43.254,55.603 30.985,76.144 30.194,93.542 C 29.281,113.622 48.545,120.782 65.684,120.295 C 82.355,119.821 97.619,111.432 96.828,92.95 C 96.068,75.251 83.706,54.266 63.956,54.266" />
      <path
         style="fill:url(#XMLID_24_)"
         id="path80"
         d="M 59.536,53.623 C 59.485,53.629 59.485,53.629 59.536,53.623 M 59.916,53.561 C 59.854,53.568 59.854,53.568 59.916,53.561 M 60.278,53.507 C 60.233,53.513 60.233,53.513 60.278,53.507 M 61.38,53.375 C 61.158,53.398 61.158,53.398 61.38,53.375 M 61.781,53.338 C 61.527,53.361 61.527,53.361 61.781,53.338 M 65.801,53.312 C 65.905,53.318 65.905,53.318 65.801,53.312 M 62.182,53.309 C 61.911,53.327 61.911,53.327 62.182,53.309 M 65.377,53.286 C 65.591,53.298 65.591,53.298 65.377,53.286 M 62.595,53.284 C 62.299,53.301 62.299,53.301 62.595,53.284 M 64.959,53.266 C 65.229,53.278 65.229,53.278 64.959,53.266 M 63.007,53.266 C 62.688,53.278 62.688,53.278 63.007,53.266 M 64.512,53.253 C 64.855,53.261 64.855,53.261 64.512,53.253 M 63.452,53.253 C 63.07,53.261 63.07,53.261 63.452,53.253 M 63.969,53.247 C 62.526,53.247 65.413,53.247 63.969,53.247" />
      <path
         style="fill:url(#XMLID_25_)"
         id="path87"
         d="M 63.941,56.901 C 56.234,56.901 49.124,60.724 43.821,66.135 C 48.616,71.837 56.005,74.886 63.388,74.886 C 70.409,74.886 77.418,72.121 82.217,66.931 C 86.369,62.439 67.519,56.901 63.941,56.901 M 63.969,54.521 C 60.077,54.521 56.229,55.453 52.715,57.112 C 51.625,57.627 41.895,63.633 42.675,64.647 C 54.494,52.201 72.442,51.522 84.496,64.017 C 85.06,63.14 77.852,58.492 77.072,58.054 C 73.076,55.811 68.563,54.521 63.969,54.521" />
      <path
         style="fill:url(#XMLID_26_)"
         id="path94"
         d="M 63.956,54.635 C 59.948,54.635 39.491,60.983 43.821,66.135 C 55.087,54.637 71.905,54.031 83.384,65.563 C 87.508,60.315 67.891,54.635 63.956,54.635" />
      <path
         style="fill:url(#XMLID_28_)"
         id="path113"
         d="M 62.269,54.323 C 59.877,54.484 40.276,61.219 42.632,64.585 C 47.729,59.018 54.617,54.85 62.269,54.323 M 64.375,54.271 C 72.184,54.401 79.3,58.325 84.538,63.952 C 85.309,62.774 77.422,57.947 76.295,57.36 C 72.615,55.442 68.53,54.338 64.375,54.271 M 63.956,54.266 C 64.516,54.272 64.516,54.272 63.956,54.266" />
      <path
         style="fill:#ffce00"
         id="path115"
         d="M 86.805,37.7 C 86.805,66.199 41.059,66.199 41.059,37.7 C 41.059,9.2 86.805,9.2 86.805,37.7" />
      <path
         style="fill:#ffe600"
         id="path117"
         d="M 48.595,29.453 C 53.693,23.472 62.497,21.918 69.863,23.763 C 78.323,25.88 82.696,32.563 83.984,40.853 C 85.842,28.866 75.759,18.461 63.933,18.461 C 52.073,18.461 42.059,28.869 43.88,40.862 C 44.498,36.841 45.917,32.589 48.595,29.453" />
      <path
         style="fill:#ffb600"
         id="path119"
         d="M 78.419,48.617 C 76.38,50.308 74.662,49.66 72.43,48.795 C 68.035,47.092 63.357,46.998 58.784,48.024 C 55.807,48.691 52.232,50.235 49.353,48.441 C 45.079,45.776 42.492,39.858 41.88,35.061 C 40.083,48.78 52.37,60.06 65.752,59.012 C 77.841,58.066 87.523,47.305 85.983,35.057 C 85.299,40.351 82.514,45.216 78.419,48.617" />
      <path
         style="fill:url(#XMLID_29_)"
         id="path126"
         d="M 40.425,37.7 C 40.425,68.21 89.805,66.165 87.369,35.936 C 85.105,7.866 40.425,9.444 40.425,37.7 M 48.206,52.822 C 27.497,32.893 59.78,3.474 79.649,22.583 C 100.246,42.393 68.208,72.026 48.206,52.822" />
      <path
         style="fill:#9cd305"
         id="path128"
         d="M 68.176,110.675 C 68.176,130.069 49.495,136.823 32.865,136.338 C 14.247,135.795 -1.59,125.934 1.069,105.527 C 3.333,88.153 17.122,68.357 36.576,69.615 C 56.448,70.903 68.176,92.695 68.176,110.675" />
      <path
         style="fill:#c2ef20"
         id="path130"
         d="M 34.879,70.312 C 15.963,70.312 3.156,90.153 1.618,107.209 C -0.186,127.227 17.062,135.614 34.737,135.614 C 18.757,135.614 1.771,128.429 2.635,110.014 C 3.432,92.98 15.94,72.577 34.864,72.577 C 52.968,72.577 64.659,91.25 66.091,107.526 C 67.8,126.934 52.295,135.613 34.752,135.613 C 51.726,135.626 68.187,127.683 67.369,108.562 C 66.621,91.067 54.412,70.312 34.879,70.312" />
      <path
         style="fill:#76aa04"
         id="path132"
         d="M 13.553,80.259 C 12.989,80.885 13.551,80.258 13.553,80.259 M 32.522,69.032 C 32.227,69.059 32.227,69.059 32.522,69.032 M 32.908,69 C 32.636,69.02 32.636,69.02 32.908,69 M 36.805,68.994 C 56.342,70.42 67.793,92.448 67.793,110.59 C 67.793,128.095 52.1,135.532 36.597,135.973 C 21.425,136.403 2.261,130.875 1.128,112.925 C -0.041,94.366 12.669,71.095 32.164,69.067 C 11.853,71.173 -1.922,95.228 0.219,114.279 C 2.226,132.128 21.69,137.468 36.963,136.967 C 56.467,136.327 71.021,125.227 68.413,104.523 C 66.342,88.069 54.692,70.338 36.805,68.994 M 33.298,68.974 C 33.042,68.991 33.042,68.991 33.298,68.974 M 36.462,68.972 C 36.813,68.996 36.813,68.996 36.462,68.972 M 33.691,68.953 C 33.462,68.965 33.462,68.965 33.691,68.953 M 36.086,68.953 C 36.373,68.966 36.373,68.966 36.086,68.953 M 34.091,68.937 C 33.877,68.945 33.877,68.945 34.091,68.937 M 35.694,68.937 C 35.947,68.948 35.947,68.948 35.694,68.937 M 35.299,68.928 C 35.481,68.932 35.481,68.932 35.299,68.928 M 34.489,68.928 C 34.337,68.932 34.337,68.932 34.489,68.928" />
      <path
         style="fill:#7ec405"
         id="path134"
         d="M 34.826,126.537 C 23.585,126.537 10.01,124.854 1.812,116.252 C 7.226,143.189 61.268,143.238 66.952,116.441 C 58.993,124.902 45.807,126.537 34.826,126.537" />
      <path
         style="fill:#76aa04"
         id="path136"
         d="M 34.879,69.944 C 53.227,69.944 65.09,88.865 66.544,105.365 C 68.198,124.15 53.867,133.325 36.597,133.833 C 21.172,134.286 2.15,128.257 2.15,109.854 C 2.15,92.45 14.125,71.312 33.195,70 C 14.178,71.284 1.91,91.822 1.119,109.22 C 0.208,129.298 19.456,136.458 36.597,135.972 C 53.265,135.498 68.542,127.111 67.751,108.626 C 66.992,90.924 54.635,69.944 34.879,69.944" />
      <path
         style="fill:url(#XMLID_30_)"
         id="path143"
         d="M 32.301,69.052 C 32.118,69.071 32.118,69.071 32.301,69.052 M 32.703,69.016 C 32.462,69.039 32.462,69.039 32.703,69.016 M 36.725,68.989 C 36.831,68.996 36.831,68.996 36.725,68.989 M 33.106,68.986 C 32.841,69.005 32.841,69.005 33.106,68.986 M 36.301,68.963 C 36.516,68.976 36.516,68.976 36.301,68.963 M 33.52,68.961 C 33.224,68.979 33.224,68.979 33.52,68.961 M 35.884,68.945 C 36.153,68.956 36.153,68.956 35.884,68.945 M 33.931,68.943 C 33.611,68.956 33.611,68.956 33.931,68.943 M 35.436,68.931 C 35.78,68.938 35.78,68.938 35.436,68.931 M 34.375,68.931 C 33.996,68.938 33.996,68.938 34.375,68.931 M 34.895,68.925 C 33.453,68.925 36.332,68.925 34.895,68.925" />
      <path
         style="fill:url(#XMLID_31_)"
         id="path150"
         d="M 34.866,72.579 C 27.159,72.579 20.047,76.398 14.741,81.808 C 19.529,87.513 26.915,90.579 34.3,90.579 C 41.326,90.579 48.341,87.811 53.136,82.608 C 57.282,78.111 38.441,72.579 34.866,72.579 M 34.895,70.199 C 31.003,70.199 27.153,71.131 23.64,72.79 C 22.546,73.308 12.821,79.286 13.598,80.321 C 25.417,67.883 43.357,67.199 55.415,79.686 C 56.025,78.695 48.22,73.845 47.401,73.409 C 43.557,71.363 39.259,70.199 34.895,70.199" />
      <path
         style="fill:url(#XMLID_32_)"
         id="path157"
         d="M 34.879,70.312 C 30.869,70.312 10.425,76.652 14.74,81.807 C 26.009,70.32 42.824,69.707 54.3,81.24 C 58.428,75.987 38.814,70.312 34.879,70.312" />
      <path
         style="fill:url(#XMLID_33_)"
         id="path166"
         d="M 33.195,70 C 30.8,70.161 11.207,76.878 13.552,80.259 C 18.65,74.692 25.541,70.528 33.195,70 M 35.301,69.949 C 43.099,70.079 50.224,74.001 55.452,79.627 C 56.229,78.43 48.353,73.628 47.216,73.034 C 43.537,71.118 39.454,70.016 35.301,69.949 M 34.879,69.944 C 35.44,69.95 35.44,69.95 34.879,69.944" />
      <path
         style="fill:#9cd305"
         id="path168"
         d="M 57.726,53.378 C 57.726,81.878 11.981,81.878 11.981,53.378 C 11.981,24.876 57.726,24.878 57.726,53.378" />
      <path
         style="fill:#c2ef20"
         id="path170"
         d="M 19.515,45.13 C 24.614,39.149 33.418,37.595 40.783,39.44 C 49.241,41.559 53.619,48.239 54.904,56.53 C 56.765,44.542 46.679,34.137 34.853,34.137 C 23.007,34.137 12.957,44.548 14.802,56.539 C 15.42,52.519 16.838,48.267 19.515,45.13" />
      <path
         style="fill:#7ec405"
         id="path172"
         d="M 49.339,64.294 C 47.3,65.986 45.582,65.337 43.35,64.472 C 38.956,62.768 34.276,62.674 29.704,63.7 C 26.729,64.367 23.153,65.911 20.276,64.117 C 16.003,61.452 13.413,55.536 12.803,50.736 C 11.01,64.454 23.287,75.739 36.675,74.691 C 48.749,73.746 58.464,62.979 56.905,50.733 C 56.221,56.028 53.437,60.894 49.339,64.294" />
      <path
         style="fill:#76aa04"
         id="path174"
         d="M 11.346,53.378 C 11.346,83.886 60.728,81.842 58.289,51.614 C 56.026,23.544 11.346,25.123 11.346,53.378 M 19.128,68.498 C -1.589,48.578 30.701,19.156 50.571,38.263 C 71.168,58.069 39.124,87.71 19.128,68.498" />
    </g>
  </g>
</svg>
