<?xml version="1.0" encoding="UTF-8" standalone="no"?>
<!-- Created with Inkscape (http://www.inkscape.org/) -->
<svg
   xmlns:dc="http://purl.org/dc/elements/1.1/"
   xmlns:cc="http://web.resource.org/cc/"
   xmlns:rdf="http://www.w3.org/1999/02/22-rdf-syntax-ns#"
   xmlns:svg="http://www.w3.org/2000/svg"
   xmlns="http://www.w3.org/2000/svg"
   xmlns:sodipodi="http://inkscape.sourceforge.net/DTD/sodipodi-0.dtd"
   xmlns:inkscape="http://www.inkscape.org/namespaces/inkscape"
   width="48"
   height="48"
   id="svg1423"
   sodipodi:version="0.32"
   inkscape:version="0.43"
   version="1.0"
   sodipodi:docbase="/home/ica/mvold/src/navtrunk/subsystem/webFront/graphics/source"
   sodipodi:docname="l2trace.svg">
  <defs
     id="defs1425" />
  <sodipodi:namedview
     id="base"
     pagecolor="#ffffff"
     bordercolor="#666666"
     borderopacity="1.0"
     inkscape:pageopacity="0"
     inkscape:pageshadow="2"
     inkscape:zoom="1"
     inkscape:cx="24.153844"
     inkscape:cy="24.041742"
     inkscape:document-units="px"
     inkscape:current-layer="g43795"
     inkscape:window-width="1293"
     inkscape:window-height="1025"
     inkscape:window-x="299"
     inkscape:window-y="121" />
  <metadata
     id="metadata1428">
    <rdf:RDF>
      <cc:Work
         rdf:about="">
        <dc:format>image/svg+xml</dc:format>
        <dc:type
           rdf:resource="http://purl.org/dc/dcmitype/StillImage" />
      </cc:Work>
    </rdf:RDF>
  </metadata>
  <g
     inkscape:label="Layer 1"
     inkscape:groupmode="layer"
     id="layer1">
    <path
       d="M 1.108461,2.28754 L 1.108461,14.367256 L 13.334295,14.367256 L 13.334295,2.28754 L 1.108461,2.28754 z "
       style="fill:#0096d4;fill-rule:evenodd;stroke:none;stroke-width:0.02"
       id="path43755" />
    <path
       d="M 1.108461,14.367256 L 13.334295,14.367256 L 13.334295,2.28754 L 1.108461,2.28754"
       style="fill:none;stroke:#aae6ff;stroke-width:0.00200161"
       id="path43757" />
    <path
       d="M 1.108461,2.28754 L 2.663712,0.850384 L 14.891547,0.850384 L 13.334295,2.28754 L 1.108461,2.28754 z "
       style="fill:#00b4ff;fill-rule:evenodd;stroke:none;stroke-width:0.01"
       id="path43759" />
    <path
       d="M 1.108461,2.28754 L 2.663712,0.850384 L 14.891547,0.850384 L 13.334295,2.28754 L 1.108461,2.28754"
       style="fill:none;stroke:#aae6ff;stroke-width:0.00200161"
       id="path43761" />
    <path
       d="M 13.334295,2.28754 L 14.891547,0.850384 L 14.891547,12.814007 L 13.334295,14.253165 L 13.334295,2.28754 z "
       style="fill:#005a80;fill-rule:evenodd;stroke:none;stroke-width:0.01"
       id="path43763" />
    <path
       d="M 13.334295,2.28754 L 14.891547,0.850384 L 14.891547,12.814007 L 13.334295,14.253165 L 13.334295,2.28754 z "
       style="fill:none;stroke:#aae6ff;stroke-width:0.00200161"
       id="path43765" />
    <path
       d="M 3.664517,3.5085221 L 3.664517,4.7275026 L 6.112486,4.7275026 L 7.4475599,7.4957292 L 8.7786305,4.7275026 L 11.220595,4.7275026 L 11.220595,3.5085221 L 12.781851,5.0597698 L 11.220595,6.6130192 L 11.220595,5.5041272 L 9.4451666,5.5041272 L 8.0020058,8.6066227 L 9.4451666,11.709118 L 11.220595,11.709118 L 11.220595,10.600226 L 12.781851,12.147471 L 11.220595,13.702722 L 11.220595,12.59383 L 8.7786305,12.59383 L 7.4475599,9.7095099 L 6.112486,12.59383 L 3.664517,12.59383 L 3.664517,13.702722 L 2.109266,12.147471 L 3.664517,10.600226 L 3.664517,11.709118 L 5.3338597,11.709118 L 6.8891107,8.6066227 L 5.3338597,5.5041272 L 3.664517,5.5041272 L 3.664517,6.6130192 L 2.109266,5.0597698 L 3.664517,3.5085221 z "
       style="fill:#ffffff;fill-rule:evenodd;stroke:none;stroke-width:0.01"
       id="path43769" />
    <g
       id="g43795"
       transform="matrix(0.200161,0,0,0.200161,33.41614,33.54926)">
      <path
         id="path43797"
         style="fill:#0096d4;fill-rule:evenodd;stroke:none;stroke-width:0.02"
         d="M 0,7.18 L 0,67.53 L 61.08,67.53 L 61.08,7.18 L 0,7.18 z " />
      <path
         id="path43799"
         style="fill:none;stroke:#aae6ff;stroke-width:0.01"
         d="M 0,67.53 L 61.08,67.53 L 61.08,7.18 L 0,7.18" />
      <path
         id="path43801"
         style="fill:#00b4ff;fill-rule:evenodd;stroke:none;stroke-width:0.01"
         d="M 0,7.18 L 7.77,0 L 68.86,0 L 61.08,7.18 L 0,7.18 z " />
      <path
         id="path43803"
         style="fill:none;stroke:#aae6ff;stroke-width:0.01"
         d="M 0,7.18 L 7.77,0 L 68.86,0 L 61.08,7.18 L 0,7.18" />
      <path
         id="path43805"
         style="fill:#005a80;fill-rule:evenodd;stroke:none;stroke-width:0.01"
         d="M 61.08,7.18 L 68.86,0 L 68.86,59.77 L 61.08,66.96 L 61.08,7.18 z " />
      <path
         id="path43807"
         style="fill:none;stroke:#aae6ff;stroke-width:0.01"
         d="M 61.08,7.18 L 68.86,0 L 68.86,59.77 L 61.08,66.96 L 61.08,7.18 z " />
      <path
         id="path43811"
         style="fill:#ffffff;fill-rule:evenodd;stroke:none;stroke-width:0.01"
         d="M 12.77,13.28 L 12.77,19.37 L 25,19.37 L 31.67,33.2 L 38.32,19.37 L 50.52,19.37 L 50.52,13.28 L 58.32,21.03 L 50.52,28.79 L 50.52,23.25 L 41.65,23.25 L 34.44,38.75 L 41.65,54.25 L 50.52,54.25 L 50.52,48.71 L 58.32,56.44 L 50.52,64.21 L 50.52,58.67 L 38.32,58.67 L 31.67,44.26 L 25,58.67 L 12.77,58.67 L 12.77,64.21 L 5,56.44 L 12.77,48.71 L 12.77,54.25 L 21.11,54.25 L 28.88,38.75 L 21.11,23.25 L 12.77,23.25 L 12.77,28.79 L 5,21.03 L 12.77,13.28 z " />
    </g>
    <g
       id="g1431"
       transform="matrix(1.186287e-2,-1.076061e-2,1.076061e-2,1.186287e-2,26.12193,37.10102)">
      <path
         id="path1348"
         d="M 257.874,274.394 C 337.04,266.061 323.743,143.262 259.957,109.811 C 217.698,87.649 160.646,88.617 122.457,103.561 C 50.02,131.906 30.791,168.144 20.374,238.978 C 9.957,309.812 44.86,497.182 128.707,518.144 C 203.707,536.894 232.651,500.537 224.54,466.061 C 216.207,430.644 175.132,384.766 172.457,353.561 C 166.207,280.644 257.874,274.394 257.874,274.394 z " />
      <path
         id="path1350"
         d="M 398.935,101.504 C 377.728,132.304 337.489,141.403 309.059,121.828 C 280.628,102.253 274.772,61.416 295.979,30.616 C 317.186,-0.184 357.424,-9.282 385.855,10.293 C 414.284,29.868 420.141,70.705 398.935,101.504 z " />
      <path
         id="path1352"
         d="M 235.454,82.105 C 217.305,85.195 200.166,73.45 197.172,55.869 C 194.177,38.288 205.763,11.863 223.911,8.773 C 242.059,5.681 259.199,17.428 262.193,35.009 C 265.187,52.59 253.601,79.014 235.454,82.105 z " />
      <path
         id="path1354"
         d="M 176.599,69.41 C 166.323,83.986 151.265,86.791 136.219,76.184 C 121.173,65.577 117.634,35.326 127.91,20.749 C 138.186,6.174 153.243,3.369 168.29,13.976 C 183.336,24.583 186.875,54.834 176.599,69.41 z " />
      <path
         id="path1356"
         d="M 113.751,80.36 C 110.594,95.569 94.793,105.15 78.457,101.759 C 62.121,98.368 48.841,75.304 51.998,60.095 C 55.155,44.886 70.956,35.305 87.291,38.696 C 103.626,42.087 116.908,65.151 113.751,80.36 z " />
      <path
         id="path1358"
         d="M 47.389,102.138 C 56.68,115.995 54.914,133.462 43.446,141.151 C 31.978,148.839 15.15,143.839 5.859,129.981 C -3.431,116.124 -1.665,98.657 9.803,90.969 C 21.271,83.281 38.099,88.281 47.389,102.138 z " />
    </g>
    <g
       id="g1467"
       transform="matrix(-1.186287e-2,1.076061e-2,1.076061e-2,1.186287e-2,33.4066,23.12142)">
      <path
         id="path1469"
         d="M 257.874,274.394 C 337.04,266.061 323.743,143.262 259.957,109.811 C 217.698,87.649 160.646,88.617 122.457,103.561 C 50.02,131.906 30.791,168.144 20.374,238.978 C 9.957,309.812 44.86,497.182 128.707,518.144 C 203.707,536.894 232.651,500.537 224.54,466.061 C 216.207,430.644 175.132,384.766 172.457,353.561 C 166.207,280.644 257.874,274.394 257.874,274.394 z " />
      <path
         id="path1471"
         d="M 398.935,101.504 C 377.728,132.304 337.489,141.403 309.059,121.828 C 280.628,102.253 274.772,61.416 295.979,30.616 C 317.186,-0.184 357.424,-9.282 385.855,10.293 C 414.284,29.868 420.141,70.705 398.935,101.504 z " />
      <path
         id="path1473"
         d="M 235.454,82.105 C 217.305,85.195 200.166,73.45 197.172,55.869 C 194.177,38.288 205.763,11.863 223.911,8.773 C 242.059,5.681 259.199,17.428 262.193,35.009 C 265.187,52.59 253.601,79.014 235.454,82.105 z " />
      <path
         id="path1475"
         d="M 176.599,69.41 C 166.323,83.986 151.265,86.791 136.219,76.184 C 121.173,65.577 117.634,35.326 127.91,20.749 C 138.186,6.174 153.243,3.369 168.29,13.976 C 183.336,24.583 186.875,54.834 176.599,69.41 z " />
      <path
         id="path1477"
         d="M 113.751,80.36 C 110.594,95.569 94.793,105.15 78.457,101.759 C 62.121,98.368 48.841,75.304 51.998,60.095 C 55.155,44.886 70.956,35.305 87.291,38.696 C 103.626,42.087 116.908,65.151 113.751,80.36 z " />
      <path
         id="path1479"
         d="M 47.389,102.138 C 56.68,115.995 54.914,133.462 43.446,141.151 C 31.978,148.839 15.15,143.839 5.859,129.981 C -3.431,116.124 -1.665,98.657 9.803,90.969 C 21.271,83.281 38.099,88.281 47.389,102.138 z " />
    </g>
    <g
       transform="matrix(1.186287e-2,-1.076061e-2,1.076061e-2,1.186287e-2,18.23503,28.40622)"
       id="g1565">
      <path
         d="M 257.874,274.394 C 337.04,266.061 323.743,143.262 259.957,109.811 C 217.698,87.649 160.646,88.617 122.457,103.561 C 50.02,131.906 30.791,168.144 20.374,238.978 C 9.957,309.812 44.86,497.182 128.707,518.144 C 203.707,536.894 232.651,500.537 224.54,466.061 C 216.207,430.644 175.132,384.766 172.457,353.561 C 166.207,280.644 257.874,274.394 257.874,274.394 z "
         id="path1567" />
      <path
         d="M 398.935,101.504 C 377.728,132.304 337.489,141.403 309.059,121.828 C 280.628,102.253 274.772,61.416 295.979,30.616 C 317.186,-0.184 357.424,-9.282 385.855,10.293 C 414.284,29.868 420.141,70.705 398.935,101.504 z "
         id="path1569" />
      <path
         d="M 235.454,82.105 C 217.305,85.195 200.166,73.45 197.172,55.869 C 194.177,38.288 205.763,11.863 223.911,8.773 C 242.059,5.681 259.199,17.428 262.193,35.009 C 265.187,52.59 253.601,79.014 235.454,82.105 z "
         id="path1571" />
      <path
         d="M 176.599,69.41 C 166.323,83.986 151.265,86.791 136.219,76.184 C 121.173,65.577 117.634,35.326 127.91,20.749 C 138.186,6.174 153.243,3.369 168.29,13.976 C 183.336,24.583 186.875,54.834 176.599,69.41 z "
         id="path1573" />
      <path
         d="M 113.751,80.36 C 110.594,95.569 94.793,105.15 78.457,101.759 C 62.121,98.368 48.841,75.304 51.998,60.095 C 55.155,44.886 70.956,35.305 87.291,38.696 C 103.626,42.087 116.908,65.151 113.751,80.36 z "
         id="path1575" />
      <path
         d="M 47.389,102.138 C 56.68,115.995 54.914,133.462 43.446,141.151 C 31.978,148.839 15.15,143.839 5.859,129.981 C -3.431,116.124 -1.665,98.657 9.803,90.969 C 21.271,83.281 38.099,88.281 47.389,102.138 z "
         id="path1577" />
    </g>
    <g
       transform="matrix(-1.186287e-2,1.076061e-2,1.076061e-2,1.186287e-2,25.51971,14.42665)"
       id="g1579">
      <path
         d="M 257.874,274.394 C 337.04,266.061 323.743,143.262 259.957,109.811 C 217.698,87.649 160.646,88.617 122.457,103.561 C 50.02,131.906 30.791,168.144 20.374,238.978 C 9.957,309.812 44.86,497.182 128.707,518.144 C 203.707,536.894 232.651,500.537 224.54,466.061 C 216.207,430.644 175.132,384.766 172.457,353.561 C 166.207,280.644 257.874,274.394 257.874,274.394 z "
         id="path1581" />
      <path
         d="M 398.935,101.504 C 377.728,132.304 337.489,141.403 309.059,121.828 C 280.628,102.253 274.772,61.416 295.979,30.616 C 317.186,-0.184 357.424,-9.282 385.855,10.293 C 414.284,29.868 420.141,70.705 398.935,101.504 z "
         id="path1583" />
      <path
         d="M 235.454,82.105 C 217.305,85.195 200.166,73.45 197.172,55.869 C 194.177,38.288 205.763,11.863 223.911,8.773 C 242.059,5.681 259.199,17.428 262.193,35.009 C 265.187,52.59 253.601,79.014 235.454,82.105 z "
         id="path1585" />
      <path
         d="M 176.599,69.41 C 166.323,83.986 151.265,86.791 136.219,76.184 C 121.173,65.577 117.634,35.326 127.91,20.749 C 138.186,6.174 153.243,3.369 168.29,13.976 C 183.336,24.583 186.875,54.834 176.599,69.41 z "
         id="path1587" />
      <path
         d="M 113.751,80.36 C 110.594,95.569 94.793,105.15 78.457,101.759 C 62.121,98.368 48.841,75.304 51.998,60.095 C 55.155,44.886 70.956,35.305 87.291,38.696 C 103.626,42.087 116.908,65.151 113.751,80.36 z "
         id="path1589" />
      <path
         d="M 47.389,102.138 C 56.68,115.995 54.914,133.462 43.446,141.151 C 31.978,148.839 15.15,143.839 5.859,129.981 C -3.431,116.124 -1.665,98.657 9.803,90.969 C 21.271,83.281 38.099,88.281 47.389,102.138 z "
         id="path1591" />
    </g>
    <g
       transform="matrix(1.186287e-2,-1.076061e-2,1.076061e-2,1.186287e-2,10.34812,19.71142)"
       id="g1637">
      <path
         d="M 257.874,274.394 C 337.04,266.061 323.743,143.262 259.957,109.811 C 217.698,87.649 160.646,88.617 122.457,103.561 C 50.02,131.906 30.791,168.144 20.374,238.978 C 9.957,309.812 44.86,497.182 128.707,518.144 C 203.707,536.894 232.651,500.537 224.54,466.061 C 216.207,430.644 175.132,384.766 172.457,353.561 C 166.207,280.644 257.874,274.394 257.874,274.394 z "
         id="path1639" />
      <path
         d="M 398.935,101.504 C 377.728,132.304 337.489,141.403 309.059,121.828 C 280.628,102.253 274.772,61.416 295.979,30.616 C 317.186,-0.184 357.424,-9.282 385.855,10.293 C 414.284,29.868 420.141,70.705 398.935,101.504 z "
         id="path1641" />
      <path
         d="M 235.454,82.105 C 217.305,85.195 200.166,73.45 197.172,55.869 C 194.177,38.288 205.763,11.863 223.911,8.773 C 242.059,5.681 259.199,17.428 262.193,35.009 C 265.187,52.59 253.601,79.014 235.454,82.105 z "
         id="path1643" />
      <path
         d="M 176.599,69.41 C 166.323,83.986 151.265,86.791 136.219,76.184 C 121.173,65.577 117.634,35.326 127.91,20.749 C 138.186,6.174 153.243,3.369 168.29,13.976 C 183.336,24.583 186.875,54.834 176.599,69.41 z "
         id="path1645" />
      <path
         d="M 113.751,80.36 C 110.594,95.569 94.793,105.15 78.457,101.759 C 62.121,98.368 48.841,75.304 51.998,60.095 C 55.155,44.886 70.956,35.305 87.291,38.696 C 103.626,42.087 116.908,65.151 113.751,80.36 z "
         id="path1647" />
      <path
         d="M 47.389,102.138 C 56.68,115.995 54.914,133.462 43.446,141.151 C 31.978,148.839 15.15,143.839 5.859,129.981 C -3.431,116.124 -1.665,98.657 9.803,90.969 C 21.271,83.281 38.099,88.281 47.389,102.138 z "
         id="path1649" />
    </g>
    <g
       transform="matrix(-1.186287e-2,1.076061e-2,1.076061e-2,1.186287e-2,17.63282,5.731834)"
       id="g1651">
      <path
         d="M 257.874,274.394 C 337.04,266.061 323.743,143.262 259.957,109.811 C 217.698,87.649 160.646,88.617 122.457,103.561 C 50.02,131.906 30.791,168.144 20.374,238.978 C 9.957,309.812 44.86,497.182 128.707,518.144 C 203.707,536.894 232.651,500.537 224.54,466.061 C 216.207,430.644 175.132,384.766 172.457,353.561 C 166.207,280.644 257.874,274.394 257.874,274.394 z "
         id="path1653" />
      <path
         d="M 398.935,101.504 C 377.728,132.304 337.489,141.403 309.059,121.828 C 280.628,102.253 274.772,61.416 295.979,30.616 C 317.186,-0.184 357.424,-9.282 385.855,10.293 C 414.284,29.868 420.141,70.705 398.935,101.504 z "
         id="path1655" />
      <path
         d="M 235.454,82.105 C 217.305,85.195 200.166,73.45 197.172,55.869 C 194.177,38.288 205.763,11.863 223.911,8.773 C 242.059,5.681 259.199,17.428 262.193,35.009 C 265.187,52.59 253.601,79.014 235.454,82.105 z "
         id="path1657" />
      <path
         d="M 176.599,69.41 C 166.323,83.986 151.265,86.791 136.219,76.184 C 121.173,65.577 117.634,35.326 127.91,20.749 C 138.186,6.174 153.243,3.369 168.29,13.976 C 183.336,24.583 186.875,54.834 176.599,69.41 z "
         id="path1659" />
      <path
         d="M 113.751,80.36 C 110.594,95.569 94.793,105.15 78.457,101.759 C 62.121,98.368 48.841,75.304 51.998,60.095 C 55.155,44.886 70.956,35.305 87.291,38.696 C 103.626,42.087 116.908,65.151 113.751,80.36 z "
         id="path1661" />
      <path
         d="M 47.389,102.138 C 56.68,115.995 54.914,133.462 43.446,141.151 C 31.978,148.839 15.15,143.839 5.859,129.981 C -3.431,116.124 -1.665,98.657 9.803,90.969 C 21.271,83.281 38.099,88.281 47.389,102.138 z "
         id="path1663" />
    </g>
  </g>
</svg>
