<?xml version="1.0" encoding="UTF-8" standalone="no"?>
<!-- Created with Inkscape (http://www.inkscape.org/) -->
<svg
   xmlns:dc="http://purl.org/dc/elements/1.1/"
   xmlns:cc="http://web.resource.org/cc/"
   xmlns:rdf="http://www.w3.org/1999/02/22-rdf-syntax-ns#"
   xmlns:svg="http://www.w3.org/2000/svg"
   xmlns="http://www.w3.org/2000/svg"
   xmlns:xlink="http://www.w3.org/1999/xlink"
   xmlns:sodipodi="http://sodipodi.sourceforge.net/DTD/sodipodi-0.dtd"
   xmlns:inkscape="http://www.inkscape.org/namespaces/inkscape"
   width="38.400002"
   height="38.400002"
   id="svg2"
   sodipodi:version="0.32"
   inkscape:version="0.44"
   version="1.0"
   sodipodi:docbase="/home/jodal/Desktop/nav"
   sodipodi:docname="messages.svg">
  <defs
     id="defs4">
    <linearGradient
       id="linearGradient6659">
      <stop
         id="stop6661"
         offset="0"
         style="stop-color:#fefeb3;stop-opacity:1;" />
      <stop
         style="stop-color:#dbdb9b;stop-opacity:1;"
         offset="1"
         id="stop6669" />
    </linearGradient>
    <linearGradient
       id="linearGradient3021">
      <stop
         style="stop-color:#fefeb3;stop-opacity:1;"
         offset="0"
         id="stop3023" />
      <stop
         id="stop6649"
         offset="0"
         style="stop-color:#7ffe59;stop-opacity:0.49803922;" />
      <stop
         style="stop-color:lime;stop-opacity:0"
         offset="1"
         id="stop3025" />
    </linearGradient>
    <linearGradient
       inkscape:collect="always"
       xlink:href="#linearGradient6659"
       id="linearGradient6679"
       x1="40.749187"
       y1="37.817589"
       x2="40.51466"
       y2="22.866449"
       gradientUnits="userSpaceOnUse"
       gradientTransform="matrix(1.099273,0,0,1.099273,-25.69504,-15.91976)" />
  </defs>
  <sodipodi:namedview
     id="base"
     pagecolor="#ffffff"
     bordercolor="#666666"
     borderopacity="1.0"
     gridtolerance="10000"
     guidetolerance="10"
     objecttolerance="10"
     inkscape:pageopacity="0.0"
     inkscape:pageshadow="2"
     inkscape:zoom="17.055556"
     inkscape:cx="27.063519"
     inkscape:cy="17.483453"
     inkscape:document-units="px"
     inkscape:current-layer="layer3"
     showgrid="false"
     showguides="true"
     inkscape:window-width="1600"
     inkscape:window-height="1129"
     inkscape:window-x="0"
     inkscape:window-y="25"
     height="38.400002px"
     width="38.400002px" />
  <metadata
     id="metadata7">
    <rdf:RDF>
      <cc:Work
         rdf:about="">
        <dc:format>image/svg+xml</dc:format>
        <dc:type
           rdf:resource="http://purl.org/dc/dcmitype/StillImage" />
      </cc:Work>
    </rdf:RDF>
  </metadata>
  <g
     inkscape:groupmode="layer"
     id="layer3"
     style="display:inline">
    <path
       style="opacity:1;fill:url(#linearGradient6679);fill-opacity:1;fill-rule:evenodd;stroke:black;stroke-width:0;stroke-linecap:butt;stroke-linejoin:miter;stroke-miterlimit:4;stroke-dasharray:none;stroke-opacity:1"
       d="M 5.1776952,6.7675311 L 36.759425,7.9276744 L 36.759425,36.028972 L 5.113242,36.995759 L 5.1776952,6.7675311 z "
       id="path5729" />
    <path
       style="fill:#ffffb4;fill-opacity:1;fill-rule:evenodd;stroke:black;stroke-width:0;stroke-linecap:butt;stroke-linejoin:miter;stroke-miterlimit:4;stroke-dasharray:none;stroke-opacity:1"
       d="M 5.177694,1.0957085 L 36.694973,3.5524877 L 36.694973,8.0565796 L 5.177694,6.9646798 L 5.177694,1.0957085 z "
       id="path4842" />
    <path
       style="fill:#dbdb9b;fill-opacity:1;fill-rule:evenodd;stroke:black;stroke-width:0;stroke-linecap:butt;stroke-linejoin:miter;stroke-miterlimit:4;stroke-dasharray:none;stroke-opacity:1"
       d="M 1.3749961,4.3183348 L 4.7265264,1.2246148 L 5.0487888,37.060212 L 1.4394481,33.64423 L 1.3749961,4.3183348 z "
       id="path6682" />
    <path
       id="path6718"
       style="fill:none;fill-opacity:1;fill-rule:evenodd;stroke:black;stroke-width:0.64123958;stroke-linecap:butt;stroke-linejoin:miter;stroke-miterlimit:4;stroke-dasharray:none;stroke-opacity:1"
       d="M 4.8834799,0.90638593 L 36.819748,3.2949705 L 36.908215,36.381301 L 4.7950131,37.354428 L 1.6986992,34.081181 L 1.6102336,4.1796322 L 4.8834799,0.90638593 z M 5.0604122,37.265961 L 4.9719466,0.90638593 L 4.8834799,0.90638593" />
    <path
       id="path6708"
       style="fill:black;fill-opacity:1"
       d="M 7.4366334,32.536705 C 7.3138575,31.79148 7.3778406,31.021696 7.4382893,30.272594 C 7.7184422,28.205195 8.401469,26.221796 9.1114094,24.269351 C 9.7184493,22.710363 10.390183,21.178491 11.150174,19.688216 C 12.352222,17.774708 12.701836,17.637109 13.401652,19.417091 C 14.10924,21.250372 15.030799,22.986543 15.936123,24.726807 C 16.676226,26.171936 17.351919,27.660841 17.709052,29.249843 C 17.82821,29.915983 17.842519,30.591578 17.776824,31.262645 C 17.770488,31.318455 17.750627,31.370916 17.737528,31.425052 L 16.334531,32.426005 C 16.351408,32.40623 16.478599,32.359703 16.436936,32.306012 C 16.588213,31.636166 16.606772,30.947293 16.510977,30.26444 C 16.211695,28.658473 15.602417,27.140214 14.86384,25.686564 C 13.972647,23.949149 13.04143,22.231827 12.224538,20.457266 C 12.050581,20.099937 11.414412,19.718453 11.66085,19.406663 C 13.55782,17.006658 12.857026,18.243328 12.436278,18.74423 C 11.592727,20.247367 10.872442,21.812004 10.240231,23.415825 C 9.5406535,25.326287 8.8746567,27.271666 8.6459186,29.304152 C 8.6125626,29.995858 8.595251,30.689447 8.7242388,31.373298 L 7.4366334,32.536705 z M 9.2518052,25.732984 C 9.9844267,25.715353 10.716902,25.699571 11.449739,25.689148 C 12.828061,25.689866 14.206399,25.691078 15.584882,25.686154 C 16.167857,25.68055 15.89559,25.684354 16.401676,25.675624 L 15.043662,26.923486 C 14.567,26.902771 14.825003,26.912701 14.269542,26.895076 C 12.898213,26.858948 11.525849,26.858287 10.152375,26.892075 C 9.382733,26.920821 8.6125707,26.953765 7.8476162,27.045577 L 9.2518052,25.732984 z M 19.262093,18.261362 C 19.262959,19.416378 19.451126,20.565767 19.594588,21.70991 C 19.838565,23.856141 20.080366,26.002334 20.356291,28.14475 C 20.483456,29.06191 20.600471,29.980741 20.753821,30.894013 L 19.476169,31.955528 C 19.423264,30.994438 19.334252,30.035867 19.234704,29.078576 C 18.997752,26.93526 18.768219,24.790229 18.464098,22.65522 C 18.290832,21.554522 18.084534,20.459071 17.931641,19.355871 L 19.262093,18.261362 z M 19.544699,18.720668 C 19.839685,18.747097 20.137861,18.769459 20.434298,18.795319 C 21.455813,18.884094 22.463343,19.054664 23.458037,19.30076 C 24.192421,19.503158 25.059714,19.624185 25.486609,20.32155 C 25.65897,21.222127 24.96438,21.940498 24.403264,22.555681 C 23.60703,23.371416 22.867513,24.177795 21.822721,24.614872 C 21.619716,24.681272 21.408036,24.687025 21.197288,24.697765 C 21.065842,24.702909 20.937298,24.748829 20.811403,24.780572 C 20.108431,25.245191 21.797098,23.717256 21.869225,23.642479 C 22.422497,23.740426 22.973324,23.840345 23.517838,23.985187 C 24.447496,24.267617 25.297475,24.725831 26.007792,25.388019 C 26.448795,25.883211 26.837332,26.452271 26.920498,27.121835 C 26.742141,28.413523 25.475348,29.279149 24.486015,29.989021 C 23.37727,30.677793 22.116484,31.018526 20.850263,31.276928 C 20.010735,31.411321 19.158517,31.390046 18.315598,31.307196 L 19.427441,30.097167 C 20.235554,30.21068 21.053839,30.242319 21.862123,30.101633 C 23.129798,29.832867 24.389812,29.473405 25.473666,28.734913 C 25.927277,28.381659 26.580393,27.849358 25.051602,29.222698 C 24.689653,29.547843 25.924152,28.295122 25.630153,28.185551 C 25.623253,27.5431 25.243848,26.981268 24.838134,26.50838 C 24.151383,25.853078 23.331377,25.400987 22.409104,25.162009 C 21.832688,25.029566 21.250048,24.967887 20.667755,24.880163 C 20.069773,24.320593 21.258528,23.64744 21.92476,23.468262 C 22.06239,23.441504 22.199319,23.408931 22.340645,23.413796 C 22.533023,23.398707 22.72556,23.388325 22.906941,23.312946 C 23.476829,23.051119 24.941616,21.855331 23.082389,23.473366 C 23.61864,22.914048 24.291008,22.273821 24.248604,21.438211 C 23.90811,20.772034 23.027115,20.653106 22.380792,20.445265 C 21.375146,20.205883 20.355493,20.054893 19.32066,20.022105 C 19.012139,20.013078 18.700835,19.990829 18.393179,20.019601 L 19.544699,18.720668 z M 32.190449,20.684072 C 32.233322,20.63467 32.007078,20.552479 31.934068,20.509807 C 31.692561,20.427314 31.425726,20.39672 31.164421,20.358032 C 30.79993,20.331212 30.596771,20.449569 30.325887,20.604252 C 28.654996,22.137445 32.032786,18.613959 30.493981,20.418892 C 29.858397,21.239024 29.521154,22.135807 29.280253,23.038147 C 29.003823,24.232159 28.873223,25.43923 28.876694,26.640688 C 28.922062,27.580036 29.046892,28.513685 29.618919,29.357006 C 29.924876,29.837077 30.356331,30.063682 31.031512,30.228128 C 31.708869,30.298762 32.329664,30.104544 32.940411,29.898825 C 33.415437,29.679554 33.842718,29.417969 34.241383,29.13431 C 34.382015,29.003963 34.53072,28.879265 34.675339,28.752828 C 34.678418,28.736945 34.822746,28.686193 34.833942,28.681129 L 33.522238,30.411178 C 33.520258,30.412919 33.41299,30.496046 33.419722,30.501303 C 33.274614,30.622193 33.136916,30.749443 32.968773,30.856197 C 32.545522,31.119944 32.109043,31.377804 31.605514,31.561993 C 30.938591,31.759771 30.250087,31.948409 29.533073,31.832297 C 28.768601,31.670655 28.308063,31.351689 27.977691,30.839934 C 27.393637,29.956589 27.26012,29.002686 27.215288,28.021256 C 27.197647,26.820812 27.323832,25.614495 27.560722,24.418507 C 27.762163,23.515791 28.083148,22.622222 28.663648,21.78899 C 29.480574,20.756767 30.3997,19.724038 31.613947,18.898232 C 31.962347,18.763111 32.260724,18.654899 32.665203,18.716256 C 32.954039,18.765718 33.250724,18.804419 33.516222,18.900083 C 33.675041,18.974024 33.839805,19.035487 33.960415,19.141719 L 32.190449,20.684072 z " />
  </g>
</svg>
