<?xml version="1.0" encoding="UTF-8" standalone="no"?>
<!-- Created with Inkscape (http://www.inkscape.org/) -->
<svg
   xmlns:dc="http://purl.org/dc/elements/1.1/"
   xmlns:cc="http://web.resource.org/cc/"
   xmlns:rdf="http://www.w3.org/1999/02/22-rdf-syntax-ns#"
   xmlns:svg="http://www.w3.org/2000/svg"
   xmlns="http://www.w3.org/2000/svg"
   xmlns:sodipodi="http://sodipodi.sourceforge.net/DTD/sodipodi-0.dtd"
   xmlns:inkscape="http://www.inkscape.org/namespaces/inkscape"
   width="48"
   height="48"
   id="svg8792"
   sodipodi:version="0.32"
   inkscape:version="0.45"
   version="1.0"
   sodipodi:docbase="/home/jodal/fuse/gruff/jodal/uninett/nav"
   sodipodi:docname="network-explorer.svg"
   inkscape:export-filename="/home/jodal/fuse/gruff/jodal/uninett/nav/network-explorer.png"
   inkscape:export-xdpi="90"
   inkscape:export-ydpi="90"
   inkscape:output_extension="org.inkscape.output.svg.inkscape"
   sodipodi:modified="true">
  <defs
     id="defs8794" />
  <sodipodi:namedview
     id="base"
     pagecolor="#ffffff"
     bordercolor="#666666"
     borderopacity="1.0"
     gridtolerance="10000"
     guidetolerance="10"
     objecttolerance="10"
     inkscape:pageopacity="0.0"
     inkscape:pageshadow="2"
     inkscape:zoom="10.020833"
     inkscape:cx="24"
     inkscape:cy="23.207066"
     inkscape:document-units="px"
     inkscape:current-layer="layer1"
     width="48px"
     height="48px"
     inkscape:window-width="1260"
     inkscape:window-height="675"
     inkscape:window-x="300"
     inkscape:window-y="448" />
  <metadata
     id="metadata8797">
    <rdf:RDF>
      <cc:Work
         rdf:about="">
        <dc:format>image/svg+xml</dc:format>
        <dc:type
           rdf:resource="http://purl.org/dc/dcmitype/StillImage" />
      </cc:Work>
    </rdf:RDF>
  </metadata>
  <g
     inkscape:label="Layer 1"
     inkscape:groupmode="layer"
     id="layer1">
    <path
       style="opacity:1;fill:#878741;fill-opacity:1;fill-rule:evenodd;stroke:#000000;stroke-width:0.70745391;stroke-linecap:butt;stroke-linejoin:miter;stroke-miterlimit:4;stroke-dasharray:none;stroke-opacity:1"
       d="M 16.166662,46.339716 L 29.966382,46.339716 L 27.683722,33.785083 L 29.343837,31.709938 L 32.871587,31.502422 L 30.173897,30.361093 L 33.182859,26.210801 L 26.646149,30.87988 L 26.23112,25.692015 L 30.07014,21.541724 L 33.494131,21.645481 L 35.776791,23.20184 L 34.427944,20.91918 L 41.794712,18.844036 L 30.796439,19.570335 L 32.975343,16.042588 L 36.918118,16.146345 L 33.909159,14.7975 L 37.33315,10.128423 L 34.531702,11.892296 L 33.079101,11.062238 L 33.182859,13.137385 L 31.003956,15.316287 L 29.551354,6.2894031 L 29.136325,12.203569 L 28.098752,11.788539 L 29.136325,17.910219 L 25.089789,20.607908 L 24.052216,15.523802 L 27.476209,7.8457625 L 23.014644,12.618598 L 22.910887,8.9870925 L 24.67476,7.1194615 L 22.392099,7.8457625 L 22.080828,5.4593449 L 20.42071,14.382469 L 18.760596,11.684782 L 18.96811,7.9495196 L 17.307992,10.647209 L 12.84643,6.3931604 L 15.232848,10.647209 L 12.950189,10.854723 L 15.959148,11.892296 L 19.694411,16.146345 L 19.590653,21.022937 L 14.506547,16.146345 L 18.656839,22.371781 L 18.656839,25.484501 L 9.6299542,14.693745 L 12.638916,21.852995 L 10.356254,21.541724 L 8.5923808,19.674094 L 9.0074108,21.645481 L 6.6209933,21.645481 L 13.676487,23.824383 L 17.82678,31.398666 L 17.82678,35.548957 L 13.572731,31.29491 L 14.402789,35.030172 L 12.535159,35.86023 L 16.374177,36.482773 L 16.99672,38.039132 L 16.166662,46.339716 z "
       id="path8810" />
    <flowRoot
       xml:space="preserve"
       id="flowRoot10648"
       transform="matrix(1.0306215,0,0,1.0306215,0.6109413,0.415488)"><flowRegion
         id="flowRegion10650"><rect
           id="rect10652"
           width="19.594936"
           height="47.848103"
           x="11.392406"
           y="-0.34177214" /></flowRegion><flowPara
         id="flowPara10654">0022010010101</flowPara></flowRoot>    <flowRoot
       xml:space="preserve"
       id="flowRoot12426"
       transform="matrix(1.0306215,0,0,1.0306215,0.6109413,0.415488)"><flowRegion
         id="flowRegion12428"><rect
           id="rect12430"
           width="27.56962"
           height="41.924049"
           x="8.0886078"
           y="2.9620254" /></flowRegion><flowPara
         id="flowPara12432">010101010101010101</flowPara></flowRoot>    <g
       id="g13349"
       transform="matrix(1.0306215,0,0,1.0306215,1.080581,-5.4163161e-2)">
      <path
         transform="matrix(0.955595,0,0,0.955595,0.968758,2.013782)"
         d="M 9.5696202,21.987341 L 6.1794306,24.897297 L 1.9642406,23.416284 L 1.1392402,19.025316 L 4.5294298,16.115361 L 8.7446198,17.596373 L 9.5696202,21.987341 z "
         inkscape:randomized="0"
         inkscape:rounded="0"
         inkscape:flatsided="true"
         sodipodi:arg2="0.86147696"
         sodipodi:arg1="0.33787819"
         sodipodi:r2="3.8692272"
         sodipodi:r1="4.4677987"
         sodipodi:cy="20.506329"
         sodipodi:cx="5.3544302"
         sodipodi:sides="6"
         id="path10600"
         style="opacity:1;fill:#008000;fill-opacity:1;fill-rule:nonzero;stroke:#969696;stroke-width:0;stroke-miterlimit:4;stroke-dasharray:none;stroke-opacity:1"
         sodipodi:type="star" />
      <path
         transform="matrix(0.955595,0,0,0.955595,0.968758,2.013782)"
         d="M 12.987342,30.759493 L 10.394621,32.288193 L 7.7743681,30.80718 L 7.7468361,27.797468 L 10.339557,26.268768 L 12.95981,27.749781 L 12.987342,30.759493 z "
         inkscape:randomized="0"
         inkscape:rounded="0"
         inkscape:flatsided="true"
         sodipodi:arg2="1.0380501"
         sodipodi:arg1="0.51445131"
         sodipodi:r2="2.6065962"
         sodipodi:r1="3.0098381"
         sodipodi:cy="29.278481"
         sodipodi:cx="10.367089"
         sodipodi:sides="6"
         id="path10602"
         style="opacity:1;fill:#008000;fill-opacity:1;fill-rule:nonzero;stroke:#969696;stroke-width:0;stroke-miterlimit:4;stroke-dasharray:none;stroke-opacity:1"
         sodipodi:type="star" />
      <path
         transform="matrix(0.955595,0,0,0.955595,0.968758,2.013782)"
         d="M 10.708861,14.582279 L 7.7326682,16.547322 L 4.5427947,14.952385 L 4.3291137,11.392405 L 7.3053062,9.4273621 L 10.49518,11.022299 L 10.708861,14.582279 z "
         inkscape:randomized="0"
         inkscape:rounded="0"
         inkscape:flatsided="true"
         sodipodi:arg2="0.98724638"
         sodipodi:arg1="0.46364761"
         sodipodi:r2="3.0885818"
         sodipodi:r1="3.5663869"
         sodipodi:cy="12.987342"
         sodipodi:cx="7.5189872"
         sodipodi:sides="6"
         id="path10604"
         style="opacity:1;fill:#008000;fill-opacity:1;fill-rule:nonzero;stroke:#969696;stroke-width:0;stroke-miterlimit:4;stroke-dasharray:none;stroke-opacity:1"
         sodipodi:type="star" />
      <path
         transform="matrix(0.955595,0,0,0.955595,0.968758,2.013782)"
         d="M 13.101266,9.455696 L 10.170863,10.657886 L 7.6645338,8.7211774 L 8.0886083,5.5822784 L 11.019012,4.3800882 L 13.525341,6.316797 L 13.101266,9.455696 z "
         inkscape:randomized="0"
         inkscape:rounded="0"
         inkscape:flatsided="true"
         sodipodi:arg2="1.1814874"
         sodipodi:arg1="0.65788861"
         sodipodi:r2="2.7430632"
         sodipodi:r1="3.1674163"
         sodipodi:cy="7.5189872"
         sodipodi:cx="10.594937"
         sodipodi:sides="6"
         id="path10606"
         style="opacity:1;fill:#008000;fill-opacity:1;fill-rule:nonzero;stroke:#969696;stroke-width:0;stroke-miterlimit:4;stroke-dasharray:none;stroke-opacity:1"
         sodipodi:type="star" />
      <path
         transform="matrix(0.955595,0,0,0.955595,0.968758,2.013782)"
         d="M 19.139241,6.0379747 L 15.445984,7.1943763 L 12.597883,4.574123 L 13.443038,0.79746827 L 17.136295,-0.35893325 L 19.984396,2.26132 L 19.139241,6.0379747 z "
         inkscape:randomized="0"
         inkscape:rounded="0"
         inkscape:flatsided="true"
         sodipodi:arg2="1.2673544"
         sodipodi:arg1="0.74375558"
         sodipodi:r2="3.3515751"
         sodipodi:r1="3.8700657"
         sodipodi:cy="3.4177215"
         sodipodi:cx="16.29114"
         sodipodi:sides="6"
         id="path10612"
         style="opacity:1;fill:#008000;fill-opacity:1;fill-rule:nonzero;stroke:#969696;stroke-width:0;stroke-miterlimit:4;stroke-dasharray:none;stroke-opacity:1"
         sodipodi:type="star" />
      <path
         transform="matrix(0.955595,0,0,0.955595,1.295353,2.449242)"
         d="M 22.329114,4.3291139 L 19.087464,5.6147023 L 16.353287,3.4501454 L 16.860759,6.2845164e-08 L 20.102409,-1.2855883 L 22.836586,0.87896858 L 22.329114,4.3291139 z "
         inkscape:randomized="0"
         inkscape:rounded="0"
         inkscape:flatsided="true"
         sodipodi:arg2="1.1932377"
         sodipodi:arg1="0.66963895"
         sodipodi:r2="3.020062"
         sodipodi:r1="3.487267"
         sodipodi:cy="2.164557"
         sodipodi:cx="19.594936"
         sodipodi:sides="6"
         id="path10614"
         style="opacity:1;fill:#008000;fill-opacity:1;fill-rule:nonzero;stroke:#969696;stroke-width:0;stroke-miterlimit:4;stroke-dasharray:none;stroke-opacity:1"
         sodipodi:type="star" />
      <path
         transform="matrix(0.955595,0,0,0.955595,0.968758,2.013782)"
         d="M 27.113924,2.3924053 L 30.122541,5.8395567 L 28.641528,10.16867 L 24.151899,11.050633 L 21.143283,7.6034813 L 22.624296,3.2743675 L 27.113924,2.3924053 z "
         inkscape:randomized="0"
         inkscape:rounded="0"
         inkscape:flatsided="true"
         sodipodi:arg2="-0.71757314"
         sodipodi:arg1="-1.2411719"
         sodipodi:r2="3.9624448"
         sodipodi:r1="4.5754371"
         sodipodi:cy="6.721519"
         sodipodi:cx="25.632912"
         sodipodi:sides="6"
         id="path10618"
         style="opacity:1;fill:#008000;fill-opacity:1;fill-rule:nonzero;stroke:#969696;stroke-width:0;stroke-miterlimit:4;stroke-dasharray:none;stroke-opacity:1"
         sodipodi:type="star" />
      <path
         transform="matrix(0.955595,0,0,0.955595,0.968758,2.013782)"
         d="M 36.797471,5.1265821 L 39.339218,8.6988311 L 37.516433,12.686173 L 33.151901,13.101266 L 30.610154,9.529017 L 32.432939,5.541675 L 36.797471,5.1265821 z "
         inkscape:randomized="0"
         inkscape:rounded="0"
         inkscape:flatsided="true"
         sodipodi:arg2="-0.61841952"
         sodipodi:arg1="-1.1420183"
         sodipodi:r2="3.7968512"
         sodipodi:r1="4.3842263"
         sodipodi:cy="9.113924"
         sodipodi:cx="34.974686"
         sodipodi:sides="6"
         id="path10620"
         style="opacity:1;fill:#008000;fill-opacity:1;fill-rule:nonzero;stroke:#969696;stroke-width:0;stroke-miterlimit:4;stroke-dasharray:none;stroke-opacity:1"
         sodipodi:type="star" />
      <path
         transform="matrix(0.955595,0,0,0.955595,0.968758,2.013782)"
         d="M 39.189874,14.012658 L 37.108715,18.073027 L 32.551753,18.300875 L 30.07595,14.468354 L 32.157109,10.407985 L 36.71407,10.180137 L 39.189874,14.012658 z "
         inkscape:randomized="0"
         inkscape:rounded="0"
         inkscape:flatsided="true"
         sodipodi:arg2="0.47364038"
         sodipodi:arg1="-0.049958396"
         sodipodi:r2="3.951375"
         sodipodi:r1="4.5626545"
         sodipodi:cy="14.240506"
         sodipodi:cx="34.632912"
         sodipodi:sides="6"
         id="path10622"
         style="opacity:1;fill:#008000;fill-opacity:1;fill-rule:nonzero;stroke:#969696;stroke-width:0;stroke-miterlimit:4;stroke-dasharray:none;stroke-opacity:1"
         sodipodi:type="star" />
      <path
         transform="matrix(0.955595,0,0,0.955595,0.968758,2.013782)"
         d="M 32.240507,23.582279 L 33.712245,26.273661 L 32.117308,28.893914 L 29.050634,28.822785 L 27.578897,26.131403 L 29.173833,23.51115 L 32.240507,23.582279 z "
         inkscape:randomized="0"
         inkscape:rounded="0"
         inkscape:flatsided="true"
         sodipodi:arg2="-0.50040871"
         sodipodi:arg1="-1.0240075"
         sodipodi:r2="2.656532"
         sodipodi:r1="3.0674989"
         sodipodi:cy="26.202532"
         sodipodi:cx="30.645571"
         sodipodi:sides="6"
         id="path10624"
         style="opacity:1;fill:#008000;fill-opacity:1;fill-rule:nonzero;stroke:#969696;stroke-width:0;stroke-miterlimit:4;stroke-dasharray:none;stroke-opacity:1"
         sodipodi:type="star" />
      <path
         transform="matrix(0.955595,0,0,0.955595,0.968758,2.013782)"
         d="M 33.949368,30.759493 L 31.383083,32.6981 L 28.421058,31.444935 L 28.025318,28.253164 L 30.591603,26.314557 L 33.553628,27.567722 L 33.949368,30.759493 z "
         inkscape:randomized="0"
         inkscape:rounded="0"
         inkscape:flatsided="true"
         sodipodi:arg2="0.92383943"
         sodipodi:arg1="0.40024066"
         sodipodi:r2="2.7853208"
         sodipodi:r1="3.2162113"
         sodipodi:cy="29.506329"
         sodipodi:cx="30.987343"
         sodipodi:sides="6"
         id="path10626"
         style="opacity:1;fill:#008000;fill-opacity:1;fill-rule:nonzero;stroke:#969696;stroke-width:0;stroke-miterlimit:4;stroke-dasharray:none;stroke-opacity:1"
         sodipodi:type="star" />
      <path
         transform="matrix(0.955595,0,0,0.955595,0.968758,2.013782)"
         d="M 30.189873,4.8987343 L 32.705184,8.0610757 L 31.224171,11.820569 L 27.227848,12.417722 L 24.712537,9.2553801 L 26.19355,5.4958865 L 30.189873,4.8987343 z "
         inkscape:randomized="0"
         inkscape:rounded="0"
         inkscape:flatsided="true"
         sodipodi:arg2="-0.67192673"
         sodipodi:arg1="-1.1955255"
         sodipodi:r2="3.4993417"
         sodipodi:r1="4.0406919"
         sodipodi:cy="8.6582279"
         sodipodi:cx="28.70886"
         sodipodi:sides="6"
         id="path10628"
         style="opacity:1;fill:#008000;fill-opacity:1;fill-rule:nonzero;stroke:#969696;stroke-width:0;stroke-miterlimit:4;stroke-dasharray:none;stroke-opacity:1"
         sodipodi:type="star" />
      <path
         transform="matrix(0.955595,0,0,0.955595,0.968758,2.013782)"
         d="M 42.493672,17.544304 L 40.747202,19.430038 L 38.240873,18.860418 L 37.481014,16.405064 L 39.227484,14.519329 L 41.733813,15.088949 L 42.493672,17.544304 z "
         inkscape:randomized="0"
         inkscape:rounded="0"
         inkscape:flatsided="true"
         sodipodi:arg2="0.74707538"
         sodipodi:arg1="0.2234766"
         sodipodi:r2="2.2258964"
         sodipodi:r1="2.5702436"
         sodipodi:cy="16.974684"
         sodipodi:cx="39.987343"
         sodipodi:sides="6"
         id="path10630"
         style="opacity:1;fill:#008000;fill-opacity:1;fill-rule:nonzero;stroke:#969696;stroke-width:0;stroke-miterlimit:4;stroke-dasharray:none;stroke-opacity:1"
         sodipodi:type="star" />
      <path
         transform="matrix(0.955595,0,0,0.955595,0.968758,2.013782)"
         d="M 35.658228,22.101265 L 33.961636,22.305671 L 32.93632,20.938582 L 33.607595,19.367088 L 35.304187,19.162682 L 36.329503,20.529771 L 35.658228,22.101265 z "
         inkscape:randomized="0"
         inkscape:rounded="0"
         inkscape:flatsided="true"
         sodipodi:arg2="1.450894"
         sodipodi:arg1="0.92729522"
         sodipodi:r2="1.4799168"
         sodipodi:r1="1.7088608"
         sodipodi:cy="20.734177"
         sodipodi:cx="34.632912"
         sodipodi:sides="6"
         id="path10632"
         style="opacity:1;fill:#008000;fill-opacity:1;fill-rule:nonzero;stroke:#969696;stroke-width:0;stroke-miterlimit:4;stroke-dasharray:none;stroke-opacity:1"
         sodipodi:type="star" />
      <path
         transform="matrix(0.955595,0,0,0.955595,0.968758,2.013782)"
         d="M 14.240506,11.620253 L 16.251338,13.833593 L 15.339946,16.681694 L 12.417722,17.316456 L 10.40689,15.103116 L 11.318282,12.255015 L 14.240506,11.620253 z "
         inkscape:randomized="0"
         inkscape:rounded="0"
         inkscape:flatsided="true"
         sodipodi:arg2="-0.73749461"
         sodipodi:arg1="-1.2610934"
         sodipodi:r2="2.5897369"
         sodipodi:r1="2.9903708"
         sodipodi:cy="14.468354"
         sodipodi:cx="13.329114"
         sodipodi:sides="6"
         id="path10634"
         style="opacity:1;fill:#008000;fill-opacity:1;fill-rule:nonzero;stroke:#969696;stroke-width:0;stroke-miterlimit:4;stroke-dasharray:none;stroke-opacity:1"
         sodipodi:type="star" />
      <path
         transform="matrix(0.955595,0,0,0.955595,0.968758,2.013782)"
         d="M 9.4556958,34.63291 L 10.185029,32.686124 L 12.235662,32.344352 L 13.556961,33.949366 L 12.827628,35.896152 L 10.776995,36.237924 L 9.4556958,34.63291 z "
         inkscape:randomized="0"
         inkscape:rounded="0"
         inkscape:flatsided="true"
         sodipodi:arg2="3.5000428"
         sodipodi:arg1="2.976444"
         sodipodi:r2="1.8003964"
         sodipodi:r1="2.0789187"
         sodipodi:cy="34.291138"
         sodipodi:cx="11.506329"
         sodipodi:sides="6"
         id="path10636"
         style="opacity:1;fill:#008000;fill-opacity:1;fill-rule:nonzero;stroke:#969696;stroke-width:0;stroke-miterlimit:4;stroke-dasharray:none;stroke-opacity:1"
         sodipodi:type="star" />
      <path
         transform="matrix(0.955595,0,0,0.955595,0.968758,2.013782)"
         d="M 11.164556,1.8227846 L 14.580086,2.7423565 L 15.491479,6.160078 L 12.987341,8.6582277 L 9.5718112,7.7386559 L 8.6604189,4.3209343 L 11.164556,1.8227846 z "
         inkscape:randomized="0"
         inkscape:rounded="0"
         inkscape:flatsided="true"
         sodipodi:arg2="-1.3077999"
         sodipodi:arg1="-1.8313987"
         sodipodi:r2="3.0632651"
         sodipodi:r1="3.5371537"
         sodipodi:cy="5.2405062"
         sodipodi:cx="12.075949"
         sodipodi:sides="6"
         id="path10638"
         style="opacity:1;fill:#008000;fill-opacity:1;fill-rule:nonzero;stroke:#969696;stroke-width:0;stroke-miterlimit:4;stroke-dasharray:none;stroke-opacity:1"
         sodipodi:type="star" />
    </g>
  </g>
</svg>
