<?xml version="1.0" encoding="UTF-8" standalone="no"?>
<!-- Created with Inkscape (http://www.inkscape.org/) -->
<svg
   xmlns:dc="http://purl.org/dc/elements/1.1/"
   xmlns:cc="http://web.resource.org/cc/"
   xmlns:rdf="http://www.w3.org/1999/02/22-rdf-syntax-ns#"
   xmlns:svg="http://www.w3.org/2000/svg"
   xmlns="http://www.w3.org/2000/svg"
   xmlns:xlink="http://www.w3.org/1999/xlink"
   xmlns:sodipodi="http://sodipodi.sourceforge.net/DTD/sodipodi-0.dtd"
   xmlns:inkscape="http://www.inkscape.org/namespaces/inkscape"
   width="45"
   height="45"
   id="svg2"
   sodipodi:version="0.32"
   inkscape:version="0.44"
   sodipodi:docbase="/home/jodal/Desktop/nav"
   sodipodi:docname="status.svg"
   version="1.0"
   inkscape:export-filename="/home/jodal/Desktop/nav/status.png"
   inkscape:export-xdpi="91.31884"
   inkscape:export-ydpi="91.31884">
  <defs
     id="defs4">
    <linearGradient
       id="linearGradient2817">
      <stop
         style="stop-color:#c1c13d;stop-opacity:1;"
         offset="0"
         id="stop2819" />
      <stop
         id="stop2825"
         offset="1.0000000"
         style="stop-color:#ffffff;stop-opacity:1.0000000;" />
    </linearGradient>
    <linearGradient
       inkscape:collect="always"
       xlink:href="#linearGradient2817"
       id="linearGradient2823"
       x1="330.1936"
       y1="502.96545"
       x2="331.05054"
       y2="472.78717"
       gradientUnits="userSpaceOnUse"
       gradientTransform="matrix(1.057244,0,0,1.057244,-329.4398,-492.8213)" />
  </defs>
  <sodipodi:namedview
     id="base"
     pagecolor="#ffffff"
     bordercolor="#666666"
     borderopacity="1.0"
     inkscape:pageopacity="0.0"
     inkscape:pageshadow="2"
     inkscape:zoom="14.088889"
     inkscape:cx="22.5"
     inkscape:cy="22.5"
     inkscape:document-units="px"
     inkscape:current-layer="layer1"
     inkscape:window-width="1104"
     inkscape:window-height="826"
     inkscape:window-x="44"
     inkscape:window-y="58"
     width="45px"
     height="45px" />
  <metadata
     id="metadata7">
    <rdf:RDF>
      <cc:Work
         rdf:about="">
        <dc:format>image/svg+xml</dc:format>
        <dc:type
           rdf:resource="http://purl.org/dc/dcmitype/StillImage" />
      </cc:Work>
    </rdf:RDF>
  </metadata>
  <g
     inkscape:label="Layer 1"
     inkscape:groupmode="layer"
     id="layer1">
    <path
       style="font-size:12px;font-style:normal;font-weight:normal;line-height:125%;fill:url(#linearGradient2823);fill-opacity:1;stroke:black;stroke-width:1.05724406px;stroke-linecap:butt;stroke-linejoin:miter;stroke-opacity:1;font-family:Bitstream Vera Sans"
       d="M 19.558424,31.294453 L 9.3717442,27.829505 L 9.7182452,26.81085 C 10.307861,25.077298 10.98164,23.741258 11.739569,22.802743 C 12.503555,21.84634 13.421708,21.052012 14.494163,20.419799 C 15.584405,19.793794 17.870779,18.816828 21.353172,17.48896 C 23.201921,16.80189 24.293505,15.966865 24.627848,14.983915 C 24.962201,14.000997 24.92563,13.141182 24.518274,12.404389 C 24.134844,11.655923 23.353371,11.081026 22.173869,10.679779 C 20.904966,10.248202 19.707709,10.309576 18.582082,10.863751 C 17.474281,11.424112 16.448577,12.710261 15.505037,14.722131 L 5.5415605,9.8974933 C 7.1998891,6.1946225 9.6304638,3.5918897 12.833382,2.0892403 C 16.060209,0.57484216 20.175613,0.66867351 25.179623,2.3707199 C 29.075548,3.6959321 31.944347,5.5789687 33.785938,8.0197862 C 36.290805,11.324372 36.920159,14.808423 35.673999,18.47206 C 35.1573,19.991108 34.23882,21.313753 32.91867,22.439834 C 31.59847,23.565957 29.296194,24.706956 26.011874,25.862882 C 23.720552,26.678674 22.184705,27.442311 21.404311,28.153856 C 20.647862,28.853678 20.03257,29.900499 19.558424,31.294453 M 8.1023323,30.418507 L 19.012782,34.129633 L 15.739302,43.753376 L 4.8288289,40.042249 L 8.1023323,30.418507"
       id="text1357" />
  </g>
</svg>
