<?xml version="1.0" encoding="UTF-8" standalone="no"?>
<!-- Created with Inkscape (http://www.inkscape.org/) -->
<svg
   xmlns:dc="http://purl.org/dc/elements/1.1/"
   xmlns:cc="http://web.resource.org/cc/"
   xmlns:rdf="http://www.w3.org/1999/02/22-rdf-syntax-ns#"
   xmlns:svg="http://www.w3.org/2000/svg"
   xmlns="http://www.w3.org/2000/svg"
   xmlns:xlink="http://www.w3.org/1999/xlink"
   xmlns:sodipodi="http://inkscape.sourceforge.net/DTD/sodipodi-0.dtd"
   xmlns:inkscape="http://www.inkscape.org/namespaces/inkscape"
   width="25.600000pt"
   height="25.600000pt"
   id="svg2"
   sodipodi:version="0.32"
   inkscape:version="0.42.2"
   sodipodi:docbase="C:\Documents and Settings\mortevo\My Documents\Prosjekter\NAV 2005"
   sodipodi:docname="status.svg">
  <defs
     id="defs4">
    <linearGradient
       id="linearGradient2817">
      <stop
         style="stop-color:#c1c13d;stop-opacity:1;"
         offset="0"
         id="stop2819" />
      <stop
         id="stop2825"
         offset="1.0000000"
         style="stop-color:#ffffff;stop-opacity:1.0000000;" />
    </linearGradient>
    <linearGradient
       inkscape:collect="always"
       xlink:href="#linearGradient2817"
       id="linearGradient2823"
       x1="330.19360"
       y1="502.96545"
       x2="331.05054"
       y2="472.78717"
       gradientUnits="userSpaceOnUse"
       gradientTransform="matrix(0.747079,0.000000,0.000000,0.747079,-231.5301,-348.0976)" />
  </defs>
  <sodipodi:namedview
     id="base"
     pagecolor="#ffffff"
     bordercolor="#666666"
     borderopacity="1.0"
     inkscape:pageopacity="0.0"
     inkscape:pageshadow="2"
     inkscape:zoom="20.593750"
     inkscape:cx="16.000000"
     inkscape:cy="16.000000"
     inkscape:document-units="px"
     inkscape:current-layer="layer1"
     inkscape:window-width="1104"
     inkscape:window-height="826"
     inkscape:window-x="44"
     inkscape:window-y="58" />
  <metadata
     id="metadata7">
    <rdf:RDF>
      <cc:Work
         rdf:about="">
        <dc:format>image/svg+xml</dc:format>
        <dc:type
           rdf:resource="http://purl.org/dc/dcmitype/StillImage" />
      </cc:Work>
    </rdf:RDF>
  </metadata>
  <g
     inkscape:label="Layer 1"
     inkscape:groupmode="layer"
     id="layer1">
    <path
       style="font-size:12.000000px;font-style:normal;font-weight:normal;line-height:125.00000%;fill:url(#linearGradient2823);fill-opacity:1.0000000;stroke:#000000;stroke-width:0.74707884px;stroke-linecap:butt;stroke-linejoin:miter;stroke-opacity:1.0000000;font-family:Bitstream Vera Sans"
       d="M 15.082099,22.257625 L 7.8839000,19.809194 L 8.1287475,19.089383 C 8.5453867,17.864406 9.0214985,16.920322 9.5570723,16.257140 C 10.096927,15.581318 10.745720,15.020023 11.503548,14.573284 C 12.273943,14.130931 13.889561,13.440579 16.350319,12.502269 C 17.656698,12.016766 18.428042,11.426714 18.664298,10.732133 C 18.900562,10.037575 18.874720,9.4300055 18.586871,8.9093664 C 18.315928,8.3804784 17.763717,7.9742398 16.930247,7.6907078 C 16.033604,7.3857430 15.187588,7.4291119 14.392188,7.8207072 C 13.609384,8.2166744 12.884592,9.1255036 12.217860,10.547149 L 5.1773828,7.1379220 C 6.3492052,4.5213677 8.0667186,2.6822024 10.329992,1.6203874 C 12.610160,0.55027043 15.518222,0.61657434 19.054199,1.8192889 C 21.807170,2.7557217 23.834346,4.0863291 25.135667,5.8110805 C 26.905677,8.1461951 27.350397,10.608125 26.469824,13.196956 C 26.104710,14.270358 25.455686,15.204977 24.522830,16.000698 C 23.589939,16.796449 21.963085,17.602711 19.642291,18.419522 C 18.023178,18.995983 16.937904,19.535591 16.386455,20.038389 C 15.851927,20.532904 15.417144,21.272617 15.082099,22.257625 M 6.9868973,21.638656 L 14.696533,24.261044 L 12.383398,31.061456 L 4.6737463,28.439067 L 6.9868973,21.638656"
       id="text1357" />
  </g>
</svg>
