<svg width="104" height="28" viewBox="0 0 104 28" fill="none" xmlns="http://www.w3.org/2000/svg">
<path d="M30.2318 0.951108C28.4482 0.9474 26.6833 1.31351 25.0484 2.02631C23.4134 2.73911 21.944 3.78313 20.7329 5.09246L26.5168 10.8764C27.3143 11.674 27.7624 12.7557 27.7624 13.8837C27.7624 15.0116 27.3143 16.0933 26.5168 16.8909L20.7329 22.6783C21.9423 23.9887 23.4101 25.0342 25.0439 25.7488C26.6776 26.4634 28.4417 26.8316 30.2248 26.8302C33.6543 26.8302 36.9433 25.4678 39.3683 23.0428C41.7933 20.6178 43.1556 17.3288 43.1556 13.8994C43.1579 12.2004 42.8254 10.5176 42.177 8.94723C41.5286 7.37683 40.5771 5.94959 39.3769 4.7471C38.1767 3.5446 36.7513 2.59043 35.1821 1.93909C33.6129 1.28775 31.9308 0.952025 30.2318 0.951108Z" fill="#1A0D3B"/>
<path d="M17.2937 13.8889C17.2861 10.6273 18.5149 7.48404 20.7326 5.09245L16.8883 1.24816C16.4942 0.852542 16.0258 0.538639 15.51 0.32445C14.9942 0.11026 14.4413 0 13.8828 0C13.3243 0 12.7714 0.11026 12.2556 0.32445C11.7398 0.538639 11.2714 0.852542 10.8773 1.24816L1.24556 10.8764C0.448037 11.674 0 12.7557 0 13.8836C0 15.0116 0.448037 16.0933 1.24556 16.8909L10.8773 26.5191C11.2719 26.9139 11.7405 27.2271 12.2562 27.4408C12.7719 27.6544 13.3246 27.7644 13.8828 27.7644C14.441 27.7644 14.9937 27.6544 15.5094 27.4408C16.0251 27.2271 16.4937 26.9139 16.8883 26.5191L20.7326 22.6748C18.5128 20.2868 17.2814 17.1458 17.2867 13.8854L17.2937 13.8889Z" fill="#1A0D3B"/>
<path d="M51.8086 17.887H54.7198C55.0483 21.4237 57.4702 23.1572 60.612 23.1572C63.5232 23.1572 65.5851 21.6509 65.5851 19.3932C65.5851 13.2389 52.4936 16.5135 52.4936 8.36361C52.4936 4.69756 55.6703 2.31061 60.0214 2.31061C64.7009 2.31061 67.6471 4.75697 68.2028 8.85638H65.2601C64.7988 6.33662 62.8382 4.89677 60.0179 4.89677C57.1976 4.89677 55.5026 6.20382 55.5026 8.26576C55.5026 13.5674 68.5942 10.3627 68.5942 19.229C68.5942 23.1572 65.2566 25.7433 60.6085 25.7433C55.7682 25.7433 52.186 23.0243 51.8086 17.887Z" fill="#1A0D3B"/>
<path d="M73.3437 2.04845C73.7113 2.05533 74.0686 2.17061 74.3709 2.37981C74.6731 2.58901 74.9069 2.88283 75.0428 3.22439C75.1787 3.56594 75.2107 3.94003 75.1348 4.29971C75.0589 4.65939 74.8785 4.98864 74.6161 5.24616C74.3538 5.50367 74.0212 5.67797 73.6602 5.74719C73.2992 5.81641 72.9258 5.77747 72.5868 5.63525C72.2478 5.49303 71.9584 5.25387 71.7548 4.94777C71.5513 4.64168 71.4426 4.28228 71.4426 3.91468C71.4391 3.66568 71.4862 3.41857 71.581 3.18829C71.6758 2.95801 71.8163 2.74934 71.994 2.5749C72.1717 2.40046 72.3829 2.26386 72.6149 2.17337C72.8469 2.08289 73.0948 2.04039 73.3437 2.04845ZM71.9668 8.98565H74.7836V25.4811H71.9668V8.98565Z" fill="#1A0D3B"/>
<path d="M84.4047 17.202L81.9828 19.4212V25.4777H79.166V2.29663H81.9828V15.7796L89.6714 8.97172H93.4248L86.4876 15.2868L94.0155 25.4672H90.643L84.4047 17.202Z" fill="#1A0D3B"/>
<path d="M96.9197 20.6024V11.3097H94.0889V8.98564H96.9197V4.79187H99.7155V8.98564H103.909V11.3097H99.7155V20.3752C99.7155 22.3044 100.698 23.2549 102.137 23.2549C102.772 23.2465 103.401 23.1355 104 22.9264V25.3169C103.308 25.6111 102.561 25.7564 101.809 25.7433C98.9676 25.7433 96.9197 23.9644 96.9197 20.6024Z" fill="#1A0D3B"/>
</svg>
