<?xml version="1.0" encoding="UTF-8" standalone="no"?>
<!-- Created with Inkscape (http://www.inkscape.org/) -->

<svg
   xmlns:dc="http://purl.org/dc/elements/1.1/"
   xmlns:cc="http://creativecommons.org/ns#"
   xmlns:rdf="http://www.w3.org/1999/02/22-rdf-syntax-ns#"
   xmlns:svg="http://www.w3.org/2000/svg"
   xmlns="http://www.w3.org/2000/svg"
   xmlns:sodipodi="http://sodipodi.sourceforge.net/DTD/sodipodi-0.dtd"
   xmlns:inkscape="http://www.inkscape.org/namespaces/inkscape"
   id="svg3039"
   version="1.1"
   inkscape:version="0.92.3 (2405546, 2018-03-11)"
   width="128"
   height="128"
   sodipodi:docname="interface_browser.svg">
  <title
     id="title3108">Ethernet off</title>
  <metadata
     id="metadata3045">
    <rdf:RDF>
      <cc:Work
         rdf:about="">
        <dc:format>image/svg+xml</dc:format>
        <dc:type
           rdf:resource="http://purl.org/dc/dcmitype/StillImage" />
        <dc:title>Ethernet off</dc:title>
        <dc:description />
        <dc:source>http://icons8.com/web-app/789/Ethernet-Off</dc:source>
      </cc:Work>
    </rdf:RDF>
  </metadata>
  <defs
     id="defs3043" />
  <sodipodi:namedview
     pagecolor="#ffffff"
     bordercolor="#666666"
     borderopacity="1"
     objecttolerance="10"
     gridtolerance="10"
     guidetolerance="10"
     inkscape:pageopacity="0"
     inkscape:pageshadow="2"
     inkscape:window-width="1916"
     inkscape:window-height="1161"
     id="namedview3041"
     showgrid="false"
     inkscape:snap-global="true"
     inkscape:snap-bbox="false"
     inkscape:bbox-nodes="false"
     inkscape:bbox-paths="false"
     inkscape:zoom="0.65186406"
     inkscape:cx="73.113027"
     inkscape:cy="-2.6059117"
     inkscape:window-x="1920"
     inkscape:window-y="18"
     inkscape:window-maximized="0"
     inkscape:current-layer="svg3039">
    <sodipodi:guide
       position="0,0"
       orientation="0,128"
       id="guide909"
       inkscape:locked="false" />
    <sodipodi:guide
       position="128,0"
       orientation="-128,0"
       id="guide911"
       inkscape:locked="false" />
    <sodipodi:guide
       position="128,128"
       orientation="0,-128"
       id="guide913"
       inkscape:locked="false" />
    <sodipodi:guide
       position="0,128"
       orientation="128,0"
       id="guide915"
       inkscape:locked="false" />
  </sodipodi:namedview>
  <path
     style="fill:#4d4d4d;stroke-width:0.49000001"
     d="m 8.8914407,127.95158 c -3.4000512,-0.85495 -6.1218787,-3.0628 -7.9065616,-6.41356 -0.8535653,-1.6026 -0.9134384,-3.20842 -0.9134384,-24.500002 0,-22.410395 0.017395,-22.817242 1.0576258,-24.745 1.237544,-2.293445 3.1570259,-4.178083 5.5573742,-5.456591 1.602594,-0.853531 3.208427,-0.913409 24.5000003,-0.913409 22.410385,0 22.817222,0.01715 24.745,1.057616 2.29343,1.237544 4.178093,3.157021 5.456562,5.557384 0.853565,1.602594 0.913438,3.208422 0.913438,24.5 0,21.291582 -0.05987,22.897402 -0.913438,24.500002 -1.278469,2.40031 -3.163132,4.31984 -5.456562,5.55738 -1.91686,1.03434 -2.439945,1.05948 -23.765,1.1417 -11.99275,0.0461 -22.4665003,-0.0822 -23.2750003,-0.28552 z m 45.5007633,-5.38353 c 0.770422,-0.50794 1.816342,-1.55384 2.324271,-2.32427 0.869858,-1.31937 0.923508,-2.66755 0.923508,-23.205762 0,-20.538252 -0.05365,-21.886389 -0.923508,-23.205763 -0.507929,-0.770427 -1.553849,-1.816332 -2.324271,-2.324266 -1.319384,-0.869848 -2.667536,-0.923503 -23.205763,-0.923503 -20.538227,0 -21.8863795,0.05366 -23.2057633,0.923503 -0.7704221,0.507934 -1.8163418,1.553839 -2.3242709,2.324266 -0.8698578,1.319374 -0.9235079,2.667511 -0.9235079,23.205763 0,20.538212 0.05365,21.886392 0.9235079,23.205762 0.5079291,0.77043 1.5538488,1.81633 2.3242709,2.32427 1.3193838,0.86984 2.6675363,0.9235 23.2057633,0.9235 20.538227,0 21.886379,-0.0537 23.205763,-0.9235 z m -41.727763,-9.45803 c -0.424903,-0.42493 -0.588,-3.87399 -0.588,-12.43503 0,-10.412888 0.09791,-11.928409 0.808809,-12.519496 0.534964,-0.444773 2.506926,-0.728532 5.824218,-0.837998 l 5.015405,-0.165473 0.212371,-2.935933 c 0.131496,-1.817949 0.479274,-3.104885 0.913281,-3.37953 0.912679,-0.577563 11.759153,-0.577563 12.671832,0 0.434007,0.274645 0.78179,1.561581 0.913286,3.37953 l 0.212366,2.935933 5.015405,0.165473 c 3.317295,0.109466 5.289256,0.393225 5.824218,0.837998 0.710902,0.591087 0.808809,2.106608 0.808809,12.519496 0,8.56104 -0.163092,12.0101 -0.588,12.43503 -0.3234,0.3234 -1.858624,0.588 -3.41161,0.588 h -2.823615 l -0.140885,-4.5325 c -0.132972,-4.2778 -0.20285,-4.54132 -1.24339,-4.68911 -1.077436,-0.15302 -1.1025,-0.05 -1.1025,4.5325 v 4.68911 h -2.43161 -2.431615 l -0.140885,-4.5325 c -0.129277,-4.15888 -0.221676,-4.5325 -1.12089,-4.5325 -0.899214,0 -0.991613,0.37362 -1.120885,4.5325 l -0.140889,4.5325 h -2.413226 -2.413225 l -0.140885,-4.5325 c -0.129277,-4.15888 -0.221676,-4.5325 -1.12089,-4.5325 -0.899214,0 -0.991613,0.37362 -1.120885,4.5325 l -0.140889,4.5325 h -2.431611 -2.431615 v -4.68911 c 0,-4.58248 -0.02504,-4.68552 -1.1025,-4.5325 -1.040539,0.14779 -1.110418,0.41131 -1.243385,4.68911 l -0.140889,4.5325 h -2.823613 c -1.552987,0 -3.088213,-0.2646 -3.411613,-0.588 z"
     id="path3068"
     inkscape:connector-curvature="0" />
  <path
     style="fill:#4d4d4d;stroke-width:0.49000001"
     d="M 8.8914406,62.05327 C 5.4913894,61.19832 2.7695619,58.99047 0.98487902,55.63971 0.1313138,54.03711 0.0714407,52.43129 0.0714407,31.139708 0.0714407,8.7293133 0.0888357,8.3224663 1.1290664,6.3947083 2.3666104,4.1012633 4.2860923,2.2166253 6.6864406,0.93811688 8.2890346,0.08458583 9.8948671,0.02470783 31.18644,0.02470783 c 22.410385,0 22.817222,0.01715 24.745,1.05761607 2.29343,1.2375444 4.178093,3.1570214 5.456562,5.5573844 0.853565,1.602594 0.913438,3.2084224 0.913438,24.4999997 0,21.291582 -0.05987,22.897402 -0.913438,24.500002 -1.278469,2.40031 -3.163132,4.31984 -5.456562,5.55738 -1.91686,1.03434 -2.439945,1.05948 -23.765,1.1417 C 20.17369,62.38489 9.6999411,62.25659 8.8914406,62.05327 Z M 54.392203,56.66974 c 0.770422,-0.50794 1.816342,-1.55384 2.324271,-2.32427 0.869858,-1.31937 0.923508,-2.66755 0.923508,-23.205762 0,-20.538251 -0.05365,-21.8863883 -0.923508,-23.2057627 -0.507929,-0.770427 -1.553849,-1.816332 -2.324271,-2.324266 -1.319384,-0.869848 -2.667536,-0.923503 -23.205763,-0.923503 -20.538227,0 -21.8863786,0.05366 -23.2057624,0.923503 -0.7704221,0.507934 -1.8163418,1.553839 -2.3242709,2.324266 -0.8698578,1.3193744 -0.9235079,2.6675117 -0.9235079,23.2057627 0,20.538212 0.05365,21.886392 0.9235079,23.205762 0.5079291,0.77043 1.5538488,1.81633 2.3242709,2.32427 1.3193838,0.86984 2.6675354,0.9235 23.2057624,0.9235 20.538227,0 21.886379,-0.0537 23.205763,-0.9235 z M 12.66444,47.21171 c -0.424903,-0.42493 -0.588,-3.87399 -0.588,-12.43503 0,-10.412888 0.09791,-11.928409 0.808809,-12.519496 0.534964,-0.444772 2.506926,-0.728531 5.824218,-0.837997 l 5.015405,-0.165473 0.212371,-2.935933 c 0.131496,-1.817949 0.479274,-3.104885 0.913281,-3.37953 0.912679,-0.577563 11.759153,-0.577563 12.671832,0 0.434007,0.274645 0.78179,1.561581 0.913286,3.37953 l 0.212366,2.935933 5.015405,0.165473 c 3.317295,0.109466 5.289256,0.393225 5.824218,0.837997 0.710902,0.591087 0.808809,2.106608 0.808809,12.519496 0,8.56104 -0.163092,12.0101 -0.588,12.43503 -0.3234,0.3234 -1.858624,0.588 -3.41161,0.588 h -2.823615 l -0.140885,-4.5325 c -0.132972,-4.2778 -0.20285,-4.54132 -1.24339,-4.68911 -1.077436,-0.15302 -1.1025,-0.05 -1.1025,4.5325 v 4.68911 h -2.43161 -2.431615 l -0.140885,-4.5325 c -0.129277,-4.15888 -0.221676,-4.5325 -1.12089,-4.5325 -0.899214,0 -0.991613,0.37362 -1.120885,4.5325 l -0.140889,4.5325 H 31.18644 28.773215 l -0.140885,-4.5325 c -0.129277,-4.15888 -0.221676,-4.5325 -1.12089,-4.5325 -0.899214,0 -0.991613,0.37362 -1.120885,4.5325 l -0.140889,4.5325 H 23.818055 21.38644 V 43.1106 c 0,-4.58248 -0.02504,-4.68552 -1.1025,-4.5325 -1.040539,0.14779 -1.110418,0.41131 -1.243385,4.68911 l -0.140889,4.5325 h -2.823613 c -1.552987,0 -3.088213,-0.2646 -3.411613,-0.588 z"
     id="path3068-5"
     inkscape:connector-curvature="0" />
  <path
     style="fill:#4d4d4d;stroke-width:0.49000001"
     d="m 74.51856,62.188864 c -3.400052,-0.85495 -6.121879,-3.0628 -7.906562,-6.41356 -0.853565,-1.6026 -0.913438,-3.20842 -0.913438,-24.500002 0,-22.4103955 0.0174,-22.8172425 1.057625,-24.7450005 1.237544,-2.293445 3.157026,-4.178083 5.557375,-5.456591 1.602594,-0.85353106 3.208427,-0.91340906 24.499999,-0.91340906 22.410391,0 22.817221,0.01715 24.745001,1.05761606 2.29343,1.237544 4.17809,3.157021 5.45656,5.557384 0.85357,1.602594 0.91344,3.2084223 0.91344,24.5000005 0,21.291582 -0.0599,22.897402 -0.91344,24.500002 -1.27847,2.40031 -3.16313,4.31984 -5.45656,5.55738 -1.91686,1.03434 -2.43994,1.05948 -23.765001,1.1417 -11.99275,0.0461 -22.466499,-0.0822 -23.274999,-0.28552 z m 45.50076,-5.38353 c 0.77043,-0.50794 1.81635,-1.55384 2.32427,-2.32427 0.86986,-1.31937 0.92351,-2.66755 0.92351,-23.205762 0,-20.538252 -0.0537,-21.8863895 -0.92351,-23.2057635 -0.50792,-0.770427 -1.55384,-1.816332 -2.32427,-2.324266 -1.31938,-0.869848 -2.66753,-0.923503 -23.205761,-0.923503 -20.538226,0 -21.886379,0.05366 -23.205762,0.923503 -0.770422,0.507934 -1.816342,1.553839 -2.324271,2.324266 -0.869858,1.319374 -0.923508,2.6675115 -0.923508,23.2057635 0,20.538212 0.05365,21.886392 0.923508,23.205762 0.507929,0.77043 1.553849,1.81633 2.324271,2.32427 1.319383,0.86984 2.667536,0.9235 23.205762,0.9235 20.538231,0 21.886381,-0.0537 23.205761,-0.9235 z m -41.72776,-9.45803 c -0.424903,-0.42493 -0.588,-3.87399 -0.588,-12.43503 0,-10.412888 0.09791,-11.928409 0.808809,-12.519496 0.534964,-0.444773 2.506926,-0.728532 5.824218,-0.837998 l 5.015402,-0.165473 0.21237,-2.935933 c 0.1315,-1.817949 0.47928,-3.104885 0.91328,-3.37953 0.91268,-0.577563 11.759161,-0.577563 12.671841,0 0.434,0.274645 0.78179,1.561581 0.91328,3.37953 l 0.21237,2.935933 5.0154,0.165473 c 3.3173,0.109466 5.28926,0.393225 5.82422,0.837998 0.7109,0.591087 0.80881,2.106608 0.80881,12.519496 0,8.56104 -0.16309,12.0101 -0.588,12.43503 -0.3234,0.3234 -1.85862,0.588 -3.41161,0.588 h -2.82361 l -0.14089,-4.5325 c -0.13297,-4.2778 -0.20285,-4.54132 -1.24339,-4.68911 -1.07744,-0.15302 -1.1025,-0.05 -1.1025,4.5325 v 4.68911 h -2.43161 -2.43161 l -0.14089,-4.5325 c -0.12928,-4.15888 -0.22168,-4.5325 -1.12089,-4.5325 -0.899209,0 -0.991609,0.37362 -1.120879,4.5325 l -0.14089,4.5325 h -2.413232 -2.41322 l -0.14089,-4.5325 c -0.12928,-4.15888 -0.22168,-4.5325 -1.12089,-4.5325 -0.89921,0 -0.99161,0.37362 -1.12088,4.5325 l -0.14089,4.5325 h -2.43161 -2.43162 v -4.68911 c 0,-4.58248 -0.025,-4.68552 -1.1025,-4.5325 -1.040538,0.14779 -1.110417,0.41131 -1.243384,4.68911 l -0.140889,4.5325 h -2.823613 c -1.552987,0 -3.088213,-0.2646 -3.411613,-0.588 z"
     id="path3068-6"
     inkscape:connector-curvature="0" />
  <path
     style="fill:#4d4d4d;stroke-width:0.49000001"
     d="m 74.51856,127.95158 c -3.400051,-0.85495 -6.121878,-3.0628 -7.906561,-6.41356 -0.853565,-1.6026 -0.913439,-3.20842 -0.913439,-24.500007 0,-22.410395 0.0174,-22.817242 1.057626,-24.745 1.237544,-2.293445 3.157026,-4.178083 5.557374,-5.456591 1.602594,-0.853531 3.208427,-0.913409 24.5,-0.913409 22.41038,0 22.81722,0.01715 24.745,1.057616 2.29343,1.237544 4.17809,3.157021 5.45656,5.557384 0.85357,1.602594 0.91344,3.208422 0.91344,24.5 0,21.291587 -0.0599,22.897407 -0.91344,24.500007 -1.27847,2.40031 -3.16313,4.31984 -5.45656,5.55738 -1.91686,1.03434 -2.43995,1.05948 -23.765,1.1417 -11.99275,0.0461 -22.4665,-0.0822 -23.275,-0.28552 z m 45.50076,-5.38353 c 0.77042,-0.50794 1.81634,-1.55384 2.32427,-2.32427 0.86986,-1.31937 0.92351,-2.66755 0.92351,-23.205767 0,-20.538252 -0.0536,-21.886389 -0.92351,-23.205763 -0.50793,-0.770427 -1.55385,-1.816332 -2.32427,-2.324266 -1.31938,-0.869848 -2.66753,-0.923503 -23.20576,-0.923503 -20.538227,0 -21.886379,0.05366 -23.205763,0.923503 -0.770422,0.507934 -1.816341,1.553839 -2.32427,2.324266 -0.869858,1.319374 -0.923508,2.667511 -0.923508,23.205763 0,20.538217 0.05365,21.886397 0.923508,23.205767 0.507929,0.77043 1.553848,1.81633 2.32427,2.32427 1.319384,0.86984 2.667536,0.9235 23.205763,0.9235 20.53823,0 21.88638,-0.0537 23.20576,-0.9235 z m -41.72776,-9.45803 c -0.424903,-0.42493 -0.588,-3.87399 -0.588,-12.43503 0,-10.412893 0.09791,-11.928414 0.808809,-12.519501 0.534964,-0.444773 2.506926,-0.728532 5.824218,-0.837998 l 5.015405,-0.165473 0.212371,-2.935933 c 0.131496,-1.817949 0.479274,-3.104885 0.913281,-3.37953 0.912679,-0.577563 11.759156,-0.577563 12.671826,0 0.43401,0.274645 0.78179,1.561581 0.91329,3.37953 l 0.21237,2.935933 5.0154,0.165473 c 3.3173,0.109466 5.28926,0.393225 5.82422,0.837998 0.7109,0.591087 0.80881,2.106608 0.80881,12.519501 0,8.56104 -0.16309,12.0101 -0.588,12.43503 -0.3234,0.3234 -1.85863,0.588 -3.41161,0.588 h -2.82362 l -0.14088,-4.5325 c -0.13297,-4.2778 -0.20285,-4.54132 -1.24339,-4.68911 -1.07744,-0.15302 -1.1025,-0.05 -1.1025,4.5325 v 4.68911 h -2.43161 -2.43161 l -0.14089,-4.5325 c -0.12928,-4.15888 -0.22167,-4.5325 -1.12089,-4.5325 -0.899211,0 -0.991611,0.37362 -1.120881,4.5325 l -0.14089,4.5325 H 96.81356 94.400335 l -0.140885,-4.5325 c -0.129277,-4.15888 -0.221676,-4.5325 -1.12089,-4.5325 -0.899214,0 -0.991613,0.37362 -1.120885,4.5325 l -0.140889,4.5325 H 89.445175 87.01356 v -4.68911 c 0,-4.58248 -0.02504,-4.68552 -1.1025,-4.5325 -1.040539,0.14779 -1.110418,0.41131 -1.243385,4.68911 l -0.140889,4.5325 h -2.823613 c -1.552987,0 -3.088213,-0.2646 -3.411613,-0.588 z"
     id="path3068-2"
     inkscape:connector-curvature="0" />
</svg>
